 <svg version="1.0" xmlns="http://www.w3.org/2000/svg" width="700.000000pt" height="700.000000pt" viewBox="0 0 700.000000 700.000000" preserveAspectRatio="xMidYMid meet">
<metadata>
Created by potrace 1.12, written by Peter Selinger 2001-2015
</metadata>
<g transform="translate(0.000000,700.000000) scale(0.100000,-0.100000)" fill="#000000" stroke="none">
<path d="M4460 4401 c-83 -34 -122 -63 -168 -126 -67 -90 -92 -180 -92 -337 0
-90 5 -86 -120 -90 l-75 -3 0 -145 0 -145 75 -3 c41 -1 85 -4 98 -7 l23 -6 -1
-452 -2 -452 176 -3 176 -2 2 457 3 458 135 5 c99 4 135 8 134 18 -1 6 -2 73
-2 147 l-2 134 -132 3 -133 3 0 90 c1 105 14 134 79 167 32 16 52 19 101 15
33 -2 66 -3 73 0 9 3 12 41 12 138 0 171 5 165 -170 164 -112 0 -132 -3 -190
-28z"></path>
<path d="M3105 4256 c-174 -30 -333 -150 -394 -296 -8 -19 -16 -80 -18 -134
-4 -100 -1 -116 41 -205 17 -36 95 -120 127 -137 36 -18 37 -39 2 -61 -92 -58
-152 -130 -186 -223 -23 -62 -23 -225 -1 -277 40 -92 52 -110 111 -167 63 -62
103 -84 248 -133 61 -20 88 -23 222 -23 181 0 256 15 381 78 59 30 147 118
180 180 60 112 64 277 10 390 -26 55 -106 142 -152 167 -43 23 -46 49 -8 69
113 60 188 241 163 394 -29 168 -119 264 -336 358 -76 33 -257 42 -390 20z
m266 -314 c75 -39 108 -90 109 -164 0 -49 -4 -62 -32 -99 -47 -61 -97 -84
-183 -84 -131 0 -215 72 -215 186 0 61 10 87 50 126 69 67 182 82 271 35z m17
-655 c8 -6 24 -16 35 -22 12 -5 36 -30 54 -53 30 -39 33 -50 33 -110 -1 -87
-31 -135 -109 -174 -47 -24 -67 -28 -140 -28 -67 0 -95 5 -126 21 -54 27 -103
84 -116 133 -29 107 53 229 165 246 59 9 188 1 204 -13z"></path>
<path d="M1514 4219 c-8 -8 -14 -26 -14 -38 0 -13 -9 -62 -20 -110 -12 -47
-32 -135 -46 -196 -14 -60 -34 -144 -43 -185 -10 -41 -26 -111 -36 -155 -9
-44 -21 -90 -26 -102 -9 -24 2 -37 41 -46 14 -3 70 -22 125 -42 142 -53 160
-54 198 -17 50 48 110 67 202 66 97 -1 146 -23 204 -92 53 -62 68 -117 52
-194 -14 -71 -48 -124 -103 -161 -155 -104 -361 -24 -418 161 -10 31 -22 57
-26 56 -5 0 -22 -3 -39 -8 -60 -14 -151 -35 -214 -48 -35 -7 -65 -18 -68 -24
-7 -20 39 -156 73 -215 33 -56 132 -156 178 -181 146 -78 203 -92 368 -92 150
1 198 11 318 68 83 40 195 149 232 226 51 107 58 136 58 244 0 131 -12 192
-55 282 -81 171 -266 275 -488 274 -73 -1 -166 -18 -205 -39 -53 -29 -65 0
-38 95 8 27 17 67 21 89 3 22 13 50 21 63 l14 22 314 0 c255 0 316 3 325 14
12 14 20 281 9 291 -3 3 -207 7 -452 8 -397 2 -449 0 -462 -14z"></path>
<path d="M5169 4206 c-5 -6 -9 -57 -9 -113 0 -84 -4 -111 -20 -143 -32 -62
-78 -91 -155 -98 l-65 -5 0 -153 0 -154 105 0 105 0 0 -277 c0 -153 5 -307 11
-343 19 -121 88 -220 184 -265 77 -36 211 -50 310 -33 l80 14 3 133 c3 157 0
164 -67 155 -67 -9 -125 10 -153 49 -22 31 -23 40 -26 276 -2 134 -1 254 2
267 6 23 10 23 124 26 l117 3 0 150 0 150 -117 3 c-65 1 -119 4 -120 5 -1 1
-4 82 -7 180 l-6 179 -143 1 c-79 1 -147 -2 -153 -7z"></path>
</g>
</svg>