<?xml version="1.0" encoding="UTF-8"?>
<svg xmlns="http://www.w3.org/2000/svg" xmlns:xlink="http://www.w3.org/1999/xlink" version="1.2" >
<font id="FormaText">
<font-face  font-family="Forma Text" units-per-em="1000" ascent="750" descent="-250" font-style="normal" font-weight="400" font-stretch="normal" cap-height="700" x-height="515" underline-position="0" underline-thickness="0" />
<missing-glyph  d="" />
<glyph glyph-name="NULL" d="" />
<glyph glyph-name="CR" unicode="&#xd;" horiz-adv-x="250" d="" />
<glyph glyph-name="space" unicode="&#x20;" horiz-adv-x="186" d="" />
<glyph glyph-name="exclam" unicode="&#x21;" horiz-adv-x="202" d="M139 194 C145 194 147 196 147 202 L147 692 C147 698 145 700 139 700 L64 700 C58 700 56 698 56 692 L56 202 C56 196 58 194 64 194 L139 194 Z M142 0 C148 0 150 2 150 8 L150 97 C150 103 148 105 142 105 L60 105 C54 105 52 103 52 97 L52 8 C52 2 54 0 60 0 L142 0 Z " />
<glyph glyph-name="quotedbl" unicode="&#x22;" horiz-adv-x="323" d="M113 497 C119 497 121 499 121 505 L133 692 C133 697 130 700 125 700 L51 700 C46 700 43 697 44 692 L55 505 C56 499 58 497 64 497 L113 497 Z M254 497 C260 497 262 499 262 505 L274 692 C274 697 271 700 266 700 L192 700 C187 700 184 697 185 692 L196 505 C197 499 199 497 205 497 L254 497 Z " />
<glyph glyph-name="numbersign" unicode="&#x23;" horiz-adv-x="667" d="M253 232 C249 232 247 234 248 238 L280 466 C281 470 283 472 287 472 L415 472 C419 472 421 470 420 466 L388 238 C387 234 385 232 381 232 L253 232 Z M431 0 C437 0 439 2 440 8 L461 154 C462 158 464 160 468 160 L600 160 C606 160 608 162 609 168 L619 224 C620 229 617 232 612 232 L478 232 C474 232 472 234 473 238 L505 466 C506 470 508 472 512 472 L648 472 C654 472 656 474 657 480 L664 536 C665 541 662 544 657 544 L523 544 C519 544 517 546 518 550 L538 692 C539 697 536 700 531 700 L462 700 C456 700 454 698 453 692 L433 550 C432 546 430 544 426 544 L298 544 C294 544 292 546 293 550 L313 692 C314 697 311 700 306 700 L237 700 C231 700 229 698 228 692 L208 550 C207 546 205 544 201 544 L66 544 C60 544 58 542 57 536 L50 480 C49 475 52 472 57 472 L190 472 C194 472 196 470 195 466 L163 238 C162 234 160 232 156 232 L21 232 C15 232 13 230 12 224 L2 168 C1 163 4 160 9 160 L146 160 C150 160 152 158 151 154 L130 8 C129 3 132 0 137 0 L206 0 C212 0 214 2 215 8 L236 154 C237 158 239 160 243 160 L371 160 C375 160 377 158 376 154 L355 8 C354 3 357 0 362 0 L431 0 Z " />
<glyph glyph-name="dollar" unicode="&#x24;" horiz-adv-x="574" d="M330 -16 C330 -12 332 -10 336 -9 C456 3 538 75 538 205 C538 487 141 337 141 520 C141 601 196 636 274 636 C371 636 420 590 426 500 C426 494 428 492 434 492 L514 492 C519 492 522 495 521 500 C509 624 443 691 334 708 C330 709 328 711 328 715 L328 772 C328 778 326 780 320 780 L245 780 C239 780 237 778 237 772 L237 716 C237 712 235 710 231 709 C121 695 51 625 51 511 C51 237 446 390 446 193 C446 101 385 63 298 63 C183 63 142 128 134 233 C133 239 131 241 125 241 L44 241 C39 241 36 238 36 233 C43 95 112 13 233 -7 C237 -8 239 -10 239 -14 L239 -92 C239 -98 241 -100 247 -100 L322 -100 C328 -100 330 -98 330 -92 L330 -16 Z " />
<glyph glyph-name="percent" unicode="&#x25;" horiz-adv-x="821" d="M350 537 C350 647 289 710 194 710 C98 710 36 647 36 538 C36 427 99 368 193 368 C288 368 350 428 350 537 L350 537 Z M207 0 C213 0 216 2 219 7 L678 693 C680 697 679 700 674 700 L610 700 C604 700 601 698 598 693 L139 7 C137 3 138 0 143 0 L207 0 Z M115 537 C115 612 144 650 193 650 C241 650 271 612 271 537 C271 464 242 428 193 428 C144 428 115 465 115 537 L115 537 Z M784 163 C784 273 722 332 627 332 C532 332 470 273 470 163 C470 53 532 -10 627 -10 C722 -10 784 53 784 163 L784 163 Z M549 163 C549 235 577 272 627 272 C676 272 705 234 705 163 C705 87 675 50 627 50 C579 50 549 87 549 163 L549 163 Z " />
<glyph glyph-name="ampersand" unicode="&#x26;" horiz-adv-x="665" d="M300 656 C359 656 396 623 396 570 C396 514 343 478 276 443 C273 441 270 441 267 445 C223 498 206 528 206 565 C206 627 242 656 300 656 L300 656 Z M122 190 C122 262 172 308 235 345 C238 347 241 347 244 344 C259 328 274 311 290 294 L431 132 C434 129 434 127 431 124 C390 81 338 57 277 57 C184 57 122 104 122 190 L122 190 Z M650 0 C655 0 656 3 653 6 L539 134 C536 138 536 140 538 144 C574 203 597 276 602 356 C603 361 600 364 595 364 L527 364 C521 364 519 362 519 356 C515 300 503 248 484 205 C482 202 480 202 477 204 L398 294 C368 329 341 359 319 385 C316 387 317 390 320 392 C400 436 474 482 474 569 C473 661 397 716 299 716 C182 716 119 648 119 567 C119 510 148 458 191 405 C194 402 193 399 190 397 C107 351 31 293 31 186 C31 55 146 -12 270 -12 C353 -12 423 18 479 70 C482 73 484 73 487 69 L542 6 C546 2 549 0 555 0 L650 0 Z " />
<glyph glyph-name="quotesingle" unicode="&#x27;" horiz-adv-x="186" d="M116 497 C122 497 124 499 124 505 L136 692 C136 697 133 700 128 700 L54 700 C49 700 46 697 47 692 L58 505 C59 499 61 497 67 497 L116 497 Z " />
<glyph glyph-name="parenleft" unicode="&#x28;" horiz-adv-x="240" d="M200 -140 C205 -140 207 -137 205 -133 C145 1 111 146 111 300 C111 454 146 595 204 723 C206 727 204 730 199 730 L142 730 C136 730 133 728 130 723 C68 604 27 466 27 300 C27 134 67 -2 131 -133 C134 -138 137 -140 143 -140 L200 -140 Z " />
<glyph glyph-name="parenright" unicode="&#x29;" horiz-adv-x="240" d="M97 -140 C103 -140 106 -138 109 -133 C173 -2 213 134 213 300 C213 466 172 604 110 723 C107 728 104 730 98 730 L41 730 C36 730 34 727 36 723 C94 595 129 454 129 300 C129 146 95 1 35 -133 C33 -137 35 -140 40 -140 L97 -140 Z " />
<glyph glyph-name="asterisk" unicode="&#x2a;" horiz-adv-x="342" d="M317 535 C319 540 318 543 313 546 L227 588 C224 590 224 592 227 594 L316 642 C321 645 322 648 319 653 L298 691 C295 696 292 697 287 694 L198 638 C195 636 193 637 193 641 L197 742 C197 747 194 750 189 750 L147 750 C142 750 139 747 139 742 L143 641 C143 637 141 636 138 638 L49 689 C44 692 41 691 39 686 L18 644 C16 639 17 636 22 633 L109 590 C112 588 112 586 109 584 L23 539 C18 536 17 533 20 528 L42 490 C45 485 48 484 53 487 L138 541 C141 543 143 542 143 538 L140 439 C140 434 143 431 148 431 L191 431 C196 431 199 434 199 439 L195 537 C195 541 197 542 200 540 L288 489 C293 486 296 487 298 492 L317 535 Z " />
<glyph glyph-name="plus" unicode="&#x2b;" horiz-adv-x="508" d="M479 374 C479 380 477 382 471 382 L297 382 C293 382 291 384 291 388 L291 583 C291 589 289 591 283 591 L226 591 C220 591 218 589 218 583 L218 388 C218 384 216 382 212 382 L37 382 C31 382 29 380 29 374 L29 315 C29 309 31 307 37 307 L212 307 C216 307 218 305 218 301 L218 107 C218 101 220 99 226 99 L283 99 C289 99 291 101 291 107 L291 301 C291 305 293 307 297 307 L471 307 C477 307 479 309 479 315 L479 374 Z " />
<glyph glyph-name="comma" unicode="&#x2c;" horiz-adv-x="166" d="M60 -98 C66 -98 69 -96 72 -91 L130 -4 C133 1 134 5 134 11 L134 97 C134 103 132 105 126 105 L52 105 C46 105 44 103 44 97 L44 8 C44 4 43 0 42 -4 L19 -90 C18 -95 20 -98 25 -98 L60 -98 Z " />
<glyph glyph-name="hyphen" unicode="&#x2d;" horiz-adv-x="265" d="M237 263 C243 263 245 265 245 271 L245 326 C245 332 243 334 237 334 L28 334 C22 334 20 332 20 326 L20 271 C20 265 22 263 28 263 L237 263 Z " />
<glyph glyph-name="period" unicode="&#x2e;" horiz-adv-x="166" d="M126 0 C132 0 134 2 134 8 L134 97 C134 103 132 105 126 105 L41 105 C35 105 33 103 33 97 L33 8 C33 2 35 0 41 0 L126 0 Z " />
<glyph glyph-name="slash" unicode="&#x2f;" horiz-adv-x="325" d="M83 -143 C89 -143 92 -141 93 -135 L301 719 C302 724 300 727 295 727 L241 727 C235 727 232 725 231 719 L23 -135 C22 -140 24 -143 29 -143 L83 -143 Z " />
<glyph glyph-name="zero" unicode="0" horiz-adv-x="572" d="M538 349 C538 585 438 713 286 713 C133 713 34 584 34 349 C34 120 134 -13 285 -13 C437 -13 538 119 538 349 L538 349 Z M130 349 C130 539 187 635 285 635 C383 635 441 538 441 349 C441 160 383 65 286 65 C189 65 130 161 130 349 L130 349 Z " />
<glyph glyph-name="one" unicode="1" horiz-adv-x="353" d="M262 0 C268 0 270 2 270 8 L266 334 L270 692 C270 698 268 700 262 700 L187 700 C181 700 178 698 174 693 C142 649 91 611 33 589 C27 587 25 584 25 578 L25 516 C25 511 28 509 33 511 C84 528 132 552 171 586 C173 588 175 587 175 584 L177 334 L174 8 C174 2 176 0 182 0 L262 0 Z " />
<glyph glyph-name="two" unicode="2" horiz-adv-x="510" d="M468 0 C474 0 476 2 476 8 L476 68 C476 74 474 76 468 76 L128 76 C124 76 122 78 122 82 L122 106 C122 288 481 258 481 508 C479 634 401 712 259 712 C113 711 36 625 33 470 C33 465 36 462 41 462 L109 462 C115 462 117 464 117 470 C121 580 172 638 260 638 C352 639 396 583 394 506 C394 329 34 363 34 92 L34 8 C34 2 36 0 42 0 L468 0 Z " />
<glyph glyph-name="three" unicode="3" horiz-adv-x="541" d="M508 210 C508 296 460 356 376 376 C373 377 373 378 376 379 C445 404 491 450 491 530 C491 642 398 710 276 710 C139 710 47 637 40 498 C40 493 43 490 48 490 L121 490 C127 490 129 492 129 498 C136 593 182 640 272 640 C345 640 399 596 399 521 C399 452 349 407 246 407 L213 407 C207 407 205 405 205 399 L205 348 C205 342 207 340 213 340 L246 340 C358 340 414 296 413 208 C412 119 362 60 265 60 C170 59 125 115 121 212 C121 218 119 220 113 220 L36 220 C31 220 28 217 28 212 C38 66 119 -10 263 -10 C407 -10 508 76 508 210 L508 210 Z " />
<glyph glyph-name="four" unicode="4" horiz-adv-x="540" d="M516 255 C516 261 514 263 508 263 L447 263 C443 263 441 265 441 269 L441 692 C441 698 439 700 433 700 L320 700 C314 700 311 698 308 693 L28 277 C25 272 24 268 24 262 L24 195 C24 189 26 187 32 187 L343 187 C347 187 349 185 349 181 L349 7 C349 1 351 -1 357 -1 L433 -1 C439 -1 441 1 441 7 L441 181 C441 185 443 187 447 187 L508 187 C514 187 516 189 516 195 L516 255 Z M349 269 C349 265 347 263 343 263 L113 263 C109 263 108 265 110 268 L349 626 C350 629 352 628 352 625 L349 509 L349 269 Z " />
<glyph glyph-name="five" unicode="5" horiz-adv-x="539" d="M509 254 C509 406 417 500 293 500 C230 500 180 480 144 439 C142 436 140 437 141 440 L155 618 C156 622 158 624 162 624 L455 624 C461 624 463 626 463 632 L463 692 C463 698 461 700 455 700 L84 700 C78 700 76 698 75 692 L52 327 C51 322 54 319 59 319 L125 319 C131 319 133 321 135 327 C152 391 197 428 269 428 C360 428 410 365 410 248 C410 128 353 57 263 57 C179 57 133 108 127 185 C127 191 125 193 119 193 L42 193 C37 193 34 190 35 185 C47 66 121 -13 264 -13 C409 -13 509 90 509 254 L509 254 Z " />
<glyph glyph-name="six" unicode="6" horiz-adv-x="555" d="M521 242 C521 382 434 468 304 468 C228 468 169 440 136 389 C135 387 133 387 133 390 C135 546 192 642 289 642 C360 642 397 600 404 541 C405 535 407 533 413 533 L489 533 C494 533 497 536 496 541 C483 653 414 713 295 713 C137 713 37 580 37 346 C37 106 131 -13 286 -13 C422 -13 521 98 521 242 L521 242 Z M140 236 C140 336 195 396 286 396 C377 396 424 331 425 231 C425 125 372 61 282 61 C192 61 140 136 140 236 L140 236 Z " />
<glyph glyph-name="seven" unicode="7" horiz-adv-x="458" d="M436 617 C439 622 440 627 440 632 L440 692 C440 698 438 700 432 700 L26 700 C20 700 18 698 18 692 L18 632 C18 626 20 624 26 624 L334 624 C338 624 339 622 337 619 C240 443 174 227 136 7 C135 2 138 -1 143 -1 L226 -1 C232 -1 234 1 235 7 C269 231 344 434 436 617 L436 617 Z " />
<glyph glyph-name="eight" unicode="8" horiz-adv-x="558" d="M526 194 C526 277 476 343 390 370 C387 371 387 373 390 374 C462 406 501 462 501 524 C499 641 414 712 280 712 C147 712 61 641 60 524 C60 457 98 405 168 374 C171 373 171 371 168 370 C84 344 35 277 35 194 C35 68 140 -10 280 -10 C421 -10 526 68 526 194 L526 194 Z M151 519 C152 597 204 644 280 644 C357 644 410 597 410 519 C410 456 361 401 280 401 C199 401 150 452 151 519 L151 519 Z M128 197 C129 278 183 334 274 337 C277 337 283 337 286 337 C378 334 432 278 433 197 C434 116 373 57 280 57 C187 57 127 116 128 197 L128 197 Z " />
<glyph glyph-name="nine" unicode="9" horiz-adv-x="555" d="M132 469 C132 575 184 639 275 639 C365 639 417 564 417 465 C417 364 362 305 271 305 C180 305 133 369 132 469 L132 469 Z M519 354 C519 594 426 713 271 713 C134 713 35 603 35 458 C35 318 123 232 253 232 C328 232 387 260 420 311 C421 313 423 313 423 310 C422 152 367 59 268 59 C199 59 159 98 152 160 C151 166 149 168 143 168 L67 168 C62 168 59 165 60 160 C74 47 142 -13 262 -13 C420 -13 519 120 519 354 L519 354 Z " />
<glyph glyph-name="colon" unicode="&#x3a;" horiz-adv-x="168" d="M134 423 L134 512 C134 518 132 520 126 520 L41 520 C35 520 33 518 33 512 L33 423 C33 417 35 415 41 415 L126 415 C132 415 134 417 134 423 L134 423 Z M134 8 L134 97 C134 103 132 105 126 105 L41 105 C35 105 33 103 33 97 L33 8 C33 2 35 0 41 0 L126 0 C132 0 134 2 134 8 L134 8 Z " />
<glyph glyph-name="semicolon" unicode="&#x3b;" horiz-adv-x="169" d="M136 423 L136 512 C136 518 134 520 128 520 L43 520 C37 520 35 518 35 512 L35 423 C35 417 37 415 43 415 L128 415 C134 415 136 417 136 423 L136 423 Z M74 -91 L132 -4 C135 1 136 5 136 11 L136 97 C136 103 134 105 128 105 L54 105 C48 105 46 103 46 97 L46 8 C46 4 45 0 44 -4 L21 -90 C20 -95 22 -98 27 -98 L62 -98 C68 -98 71 -96 74 -91 L74 -91 Z " />
<glyph glyph-name="less" unicode="&#x3c;" horiz-adv-x="508" d="M479 171 C479 177 477 180 472 182 L108 343 C105 344 105 346 108 347 L472 507 C477 509 479 512 479 518 L479 580 C479 585 476 587 472 585 L36 385 C31 383 29 380 29 374 L29 315 C29 309 31 306 36 304 L472 105 C476 103 479 105 479 110 L479 171 Z " />
<glyph glyph-name="equal" unicode="&#x3d;" horiz-adv-x="508" d="M471 424 C477 424 479 426 479 432 L479 491 C479 497 477 499 471 499 L37 499 C31 499 29 497 29 491 L29 432 C29 426 31 424 37 424 L471 424 Z M471 191 C477 191 479 193 479 199 L479 258 C479 264 477 266 471 266 L37 266 C31 266 29 264 29 258 L29 199 C29 193 31 191 37 191 L471 191 Z " />
<glyph glyph-name="greater" unicode="&#x3e;" horiz-adv-x="508" d="M472 304 C477 306 479 309 479 315 L479 374 C479 380 477 383 472 385 L36 585 C32 587 29 585 29 580 L29 518 C29 512 31 509 36 507 L399 347 C402 346 402 344 399 343 L36 182 C31 180 29 177 29 171 L29 110 C29 105 32 103 36 105 L472 304 Z " />
<glyph glyph-name="question" unicode="&#x3f;" horiz-adv-x="487" d="M277 194 C282 194 285 196 285 202 C290 368 459 368 459 525 C459 643 367 709 245 709 C104 709 23 636 16 499 C16 494 19 491 24 491 L96 491 C102 491 104 493 104 499 C108 594 150 641 242 640 C317 639 369 600 369 528 C369 413 199 396 194 202 C194 197 197 194 202 194 L277 194 Z M281 0 C287 0 289 2 289 8 L289 97 C289 103 287 105 281 105 L198 105 C192 105 190 103 190 97 L190 8 C190 2 192 0 198 0 L281 0 Z " />
<glyph glyph-name="at" unicode="&#x40;" horiz-adv-x="845" d="M721 -26 C724 -22 722 -19 717 -19 L675 -19 C669 -19 666 -21 663 -26 C612 -104 522 -131 417 -131 C215 -131 85 11 85 250 C85 495 214 641 417 641 C626 641 759 496 759 250 C759 128 719 70 669 70 C636 70 611 88 611 160 L611 487 C611 493 609 495 603 495 L535 495 C530 495 527 492 527 487 L529 430 C529 427 527 427 526 429 C495 478 446 504 383 504 C259 504 188 394 188 258 C188 121 255 15 382 15 C454 15 508 53 538 114 C540 116 542 116 542 113 C558 42 619 20 669 20 C746 20 813 101 813 250 C813 525 656 690 418 690 C186 690 32 525 32 251 C32 -16 186 -180 417 -180 C550 -180 659 -133 721 -26 L721 -26 Z M274 264 C274 370 315 442 405 441 C486 440 533 373 532 255 C531 136 482 77 403 77 C315 77 274 152 274 264 L274 264 Z " />
<glyph glyph-name="A" unicode="A" horiz-adv-x="629" d="M201 288 C197 288 196 290 197 294 L309 626 C310 629 312 629 313 626 L427 294 C428 290 427 288 423 288 L201 288 Z M617 0 C622 0 624 3 622 8 L380 692 C378 698 375 700 369 700 L263 700 C257 700 254 698 252 692 L7 8 C5 3 7 0 12 0 L90 0 C96 0 99 2 101 8 L166 203 C167 207 170 209 174 209 L450 209 C454 209 457 207 458 203 L525 8 C527 2 530 0 536 0 L617 0 Z " />
<glyph glyph-name="B" unicode="B" horiz-adv-x="624" d="M589 208 C587 287 544 348 444 373 C441 373 441 375 444 375 C520 394 568 446 568 532 C568 643 467 700 328 700 L61 700 C55 700 53 698 53 692 L58 360 L53 8 C53 2 55 0 61 0 L330 0 C469 0 589 59 589 208 L589 208 Z M150 623 C150 627 152 629 156 629 L328 629 C414 629 474 592 474 515 C474 436 418 405 328 405 L151 405 C147 405 145 407 145 411 L150 623 Z M145 328 C145 332 147 334 151 334 L328 334 C416 334 494 299 494 207 C494 108 425 72 328 72 L156 72 C152 72 150 74 150 78 L145 328 Z " />
<glyph glyph-name="C" unicode="C" horiz-adv-x="682" d="M656 248 C657 253 654 256 649 256 L571 256 C565 256 563 254 562 248 C549 128 472 64 356 64 C214 64 128 162 128 351 C128 523 210 636 357 636 C460 636 537 583 559 467 C560 461 562 459 568 459 L644 459 C649 459 652 462 651 467 C618 649 498 713 358 713 C157 713 32 572 32 351 C32 125 154 -13 358 -13 C519 -13 630 70 656 248 L656 248 Z " />
<glyph glyph-name="D" unicode="D" horiz-adv-x="670" d="M287 0 C474 0 639 111 639 350 C639 579 486 700 285 700 L62 700 C56 700 54 698 54 692 L58 359 L54 8 C54 2 56 0 62 0 L287 0 Z M147 361 C147 418 150 585 151 619 C151 623 153 625 157 625 L291 625 C429 625 543 535 543 350 C543 156 418 75 295 75 L157 75 C153 75 151 77 151 81 C150 117 147 302 147 361 L147 361 Z " />
<glyph glyph-name="E" unicode="E" horiz-adv-x="535" d="M495 0 C501 0 503 2 503 8 L503 67 C503 73 501 75 495 75 L156 75 C152 75 150 77 150 81 L145 330 C145 334 147 336 151 336 L463 336 C469 336 471 338 471 344 L471 403 C471 409 469 411 463 411 L151 411 C147 411 145 413 145 417 L150 619 C150 623 152 625 156 625 L487 625 C493 625 495 627 495 633 L495 692 C495 698 493 700 487 700 L61 700 C55 700 53 698 53 692 L58 361 L53 8 C53 2 55 0 61 0 L495 0 Z " />
<glyph glyph-name="F" unicode="F" horiz-adv-x="508" d="M142 0 C148 0 150 2 150 8 L145 299 C145 303 147 305 151 305 L458 305 C464 305 466 307 466 313 L466 372 C466 378 464 380 458 380 L151 380 C147 380 145 382 145 386 L150 619 C150 623 152 625 156 625 L474 625 C480 625 482 627 482 633 L482 692 C482 698 480 700 474 700 L61 700 C55 700 53 698 53 692 L58 350 L53 8 C53 2 55 0 61 0 L142 0 Z " />
<glyph glyph-name="G" unicode="G" horiz-adv-x="694" d="M662 356 C662 361 660 364 654 364 L353 364 C347 364 345 362 345 356 L345 298 C345 292 347 290 353 290 L558 290 C562 290 564 288 564 284 C561 148 487 63 355 63 C218 63 128 173 128 349 C128 527 215 637 351 637 C455 637 527 585 550 485 C552 479 554 477 560 477 L639 477 C644 477 646 480 645 485 C612 632 507 713 351 713 C163 713 32 573 32 350 C32 130 165 -13 352 -13 C555 -13 665 116 662 356 L662 356 Z " />
<glyph glyph-name="H" unicode="H" horiz-adv-x="667" d="M605 0 C611 0 613 2 613 8 L608 346 L613 692 C613 698 611 700 605 700 L524 700 C518 700 516 698 516 692 L520 419 C520 415 518 413 514 413 L153 413 C149 413 147 415 147 419 L150 692 C150 698 148 700 142 700 L61 700 C55 700 53 698 53 692 L58 346 L53 8 C53 2 55 0 61 0 L142 0 C148 0 150 2 150 8 L146 332 C146 336 148 338 152 338 L515 338 C519 338 521 336 521 332 L516 8 C516 2 518 0 524 0 L605 0 Z " />
<glyph glyph-name="I" unicode="I" horiz-adv-x="213" d="M146 0 C152 0 154 2 154 8 L150 356 L154 692 C154 698 152 700 146 700 L67 700 C61 700 59 698 59 692 L63 356 L59 8 C59 2 61 0 67 0 L146 0 Z " />
<glyph glyph-name="J" unicode="J" horiz-adv-x="491" d="M446 248 L445 445 L449 692 C449 698 447 700 441 700 L359 700 C353 700 351 698 351 692 L354 445 L353 249 C352 132 328 64 232 64 C139 64 111 132 110 241 C110 247 108 249 102 249 L28 249 C23 249 20 246 20 241 C22 83 86 -14 232 -14 C379 -14 448 76 446 248 L446 248 Z " />
<glyph glyph-name="K" unicode="K" horiz-adv-x="566" d="M448 7 C451 2 454 0 460 0 L559 0 C564 0 565 3 563 7 L289 415 C287 419 287 421 290 425 L516 694 C519 697 518 700 513 700 L418 700 C412 700 409 698 405 694 L150 366 C148 363 146 364 146 367 L149 692 C149 698 147 700 141 700 L62 700 C56 700 54 698 54 692 L58 359 L54 8 C54 2 56 0 62 0 L141 0 C147 0 149 2 149 8 L147 245 C147 249 148 252 151 256 L221 341 C224 344 226 344 228 341 L380 111 L448 7 Z " />
<glyph glyph-name="L" unicode="L" horiz-adv-x="477" d="M460 0 C466 0 468 2 468 8 L468 67 C468 73 466 75 460 75 L156 75 C152 75 150 77 150 81 L146 371 L150 692 C150 698 148 700 142 700 L62 700 C56 700 54 698 54 692 L58 366 L54 8 C54 2 56 0 62 0 L460 0 Z " />
<glyph glyph-name="M" unicode="M" horiz-adv-x="800" d="M138 484 L135 576 C135 579 136 579 137 576 L360 7 C362 2 365 0 371 0 L430 0 C436 0 439 2 441 7 L655 571 C656 574 657 574 657 571 L655 486 L653 287 L652 8 C652 2 654 0 660 0 L738 0 C744 0 746 2 746 8 L742 344 L746 692 C746 698 744 700 738 700 L634 700 C628 700 625 698 623 693 L408 125 C407 122 405 122 404 125 L184 693 C182 698 179 700 173 700 L62 700 C56 700 54 698 54 692 L58 344 L53 8 C53 2 55 0 61 0 L133 0 C139 0 141 2 141 8 L140 287 L138 484 Z " />
<glyph glyph-name="N" unicode="N" horiz-adv-x="673" d="M140 500 L138 567 C138 570 140 570 141 568 L501 7 C504 2 507 0 513 0 L611 0 C617 0 619 2 619 8 L615 355 L620 692 C620 698 618 700 612 700 L538 700 C532 700 530 698 530 692 L531 387 L533 179 L535 125 C535 122 533 122 532 124 L167 693 C164 698 161 700 155 700 L62 700 C56 700 54 698 54 692 L58 355 L53 8 C53 2 55 0 61 0 L135 0 C141 0 143 2 143 8 L142 305 L140 500 Z " />
<glyph glyph-name="O" unicode="O" horiz-adv-x="733" d="M701 349 C701 574 568 713 366 713 C164 713 32 573 32 349 C32 131 164 -13 366 -13 C567 -13 701 130 701 349 L701 349 Z M128 349 C128 528 216 636 366 636 C515 636 604 527 604 349 C604 171 515 64 366 64 C218 64 128 172 128 349 L128 349 Z " />
<glyph glyph-name="P" unicode="P" horiz-adv-x="563" d="M541 487 C541 628 445 700 292 700 L61 700 C55 700 53 698 53 692 L58 359 L53 8 C53 2 55 0 61 0 L142 0 C148 0 150 2 150 8 L147 261 C147 265 149 267 153 267 L293 267 C442 267 541 341 541 487 L541 487 Z M149 620 C149 624 151 626 155 626 L295 626 C393 626 450 581 450 485 C450 381 389 341 299 341 L152 341 C148 341 146 343 146 347 L146 353 L149 620 Z " />
<glyph glyph-name="Q" unicode="Q" horiz-adv-x="734" d="M124 349 C124 528 212 636 362 636 C511 636 600 527 600 349 C600 171 511 64 362 64 C214 64 124 172 124 349 L124 349 Z M700 0 C706 0 708 2 708 8 L708 70 C708 76 706 78 700 78 L625 78 L595 76 C660 139 697 234 697 349 C697 574 564 713 362 713 C160 713 28 573 28 349 C28 131 160 -13 362 -13 C397 -13 431 -9 462 0 L700 0 Z " />
<glyph glyph-name="R" unicode="R" horiz-adv-x="603" d="M474 492 C474 398 410 359 318 359 L151 359 C147 359 145 361 145 365 L149 620 C149 624 151 626 155 626 L316 626 C415 626 474 581 474 492 L474 492 Z M470 7 C473 2 476 0 482 0 L575 0 C580 0 581 3 579 7 L399 289 C397 292 398 294 402 295 C502 319 565 385 565 494 C565 631 467 700 308 700 L61 700 C55 700 53 698 53 692 L58 360 L53 8 C53 2 55 0 61 0 L142 0 C148 0 150 2 150 8 L146 280 C146 284 148 286 152 286 L290 286 C294 286 297 285 299 281 L403 121 L470 7 Z " />
<glyph glyph-name="S" unicode="S" horiz-adv-x="617" d="M589 205 C589 478 133 340 133 520 C133 600 200 636 296 636 C410 636 469 591 476 500 C477 494 479 492 485 492 L566 492 C571 492 574 495 573 500 C558 644 459 712 298 712 C144 712 42 639 42 511 C42 245 498 387 498 193 C498 101 424 63 320 63 C183 63 133 128 125 233 C124 239 122 241 116 241 L36 241 C31 241 28 238 28 233 C34 73 139 -12 317 -12 C476 -12 589 61 589 205 L589 205 Z " />
<glyph glyph-name="T" unicode="T" horiz-adv-x="526" d="M304 0 C310 0 312 2 312 8 L307 347 L311 619 C311 623 313 625 317 625 L506 625 C512 625 514 627 514 633 L514 692 C514 698 512 700 506 700 L20 700 C14 700 12 698 12 692 L12 633 C12 627 14 625 20 625 L209 625 C213 625 215 623 215 619 L219 347 L214 8 C214 2 216 0 222 0 L304 0 Z " />
<glyph glyph-name="U" unicode="U" horiz-adv-x="607" d="M562 265 L562 483 L564 692 C564 698 562 700 556 700 L481 700 C475 700 473 698 473 692 L476 483 L476 265 C476 146 427 66 305 66 C186 66 138 146 138 265 L137 485 L141 692 C141 697 138 700 133 700 L50 700 C45 700 42 697 42 692 L46 483 L45 265 C44 89 132 -13 305 -13 C478 -13 562 89 562 265 L562 265 Z " />
<glyph glyph-name="V" unicode="V" horiz-adv-x="613" d="M606 692 C608 697 606 700 601 700 L525 700 C519 700 516 698 515 692 L315 78 C314 75 312 75 311 78 L109 692 C108 698 105 700 99 700 L12 700 C7 700 5 697 7 692 L245 8 C247 2 250 0 256 0 L359 0 C365 0 368 2 370 8 L606 692 Z " />
<glyph glyph-name="W" unicode="W" horiz-adv-x="880" d="M681 0 C687 0 690 2 691 8 L868 692 C869 697 867 700 862 700 L790 700 C784 700 781 698 780 692 L638 96 C638 93 636 93 636 96 L497 692 C496 698 493 700 487 700 L397 700 C391 700 388 698 387 692 L251 96 C251 93 249 93 249 96 L106 692 C105 698 102 700 96 700 L17 700 C12 700 10 697 11 692 L187 8 C188 2 191 0 197 0 L292 0 C298 0 301 2 302 8 L436 566 C436 569 438 569 438 566 L578 8 C579 2 582 0 588 0 L681 0 Z " />
<glyph glyph-name="X" unicode="X" horiz-adv-x="597" d="M580 0 C585 0 586 3 584 7 L356 361 C354 365 354 367 356 371 L558 693 C560 697 559 700 554 700 L466 700 C460 700 457 698 454 693 L303 449 C301 446 299 446 297 449 L146 693 C143 698 140 700 134 700 L38 700 C33 700 32 697 34 693 L241 375 C243 371 243 369 241 365 L13 7 C11 3 12 0 17 0 L105 0 C111 0 114 2 117 7 L293 290 C295 293 297 293 299 290 L472 7 C475 2 478 0 484 0 L580 0 Z " />
<glyph glyph-name="Y" unicode="Y" horiz-adv-x="567" d="M327 237 C327 241 328 245 330 248 L560 693 C563 697 561 700 556 700 L474 700 C468 700 465 698 463 693 L290 333 C288 330 286 330 284 333 L112 693 C110 698 107 700 101 700 L11 700 C6 700 4 697 7 693 L235 250 C237 247 238 243 238 239 L234 8 C234 2 236 0 242 0 L322 0 C328 0 330 2 330 8 L327 237 Z " />
<glyph glyph-name="Z" unicode="Z" horiz-adv-x="569" d="M542 67 C542 73 540 75 534 75 L148 75 C145 75 143 77 146 80 L532 610 C536 614 537 618 537 624 L537 692 C537 698 535 700 529 700 L61 700 C55 700 53 698 53 692 L53 633 C53 627 55 625 61 625 L420 625 C423 625 425 623 422 620 L32 88 C28 84 27 80 27 74 L27 8 C27 2 29 0 35 0 L534 0 C540 0 542 2 542 8 L542 67 Z " />
<glyph glyph-name="bracketleft" unicode="&#x5b;" horiz-adv-x="247" d="M211 -140 C217 -140 219 -138 219 -132 L219 -73 C219 -67 217 -65 211 -65 L132 -65 C128 -65 126 -63 126 -59 L126 649 C126 653 128 655 132 655 L211 655 C217 655 219 657 219 663 L219 722 C219 728 217 730 211 730 L53 730 C47 730 45 728 45 722 L45 -132 C45 -138 47 -140 53 -140 L211 -140 Z " />
<glyph glyph-name="backslash" unicode="&#x5c;" horiz-adv-x="326" d="M296 -143 C301 -143 303 -140 302 -135 L94 719 C93 725 90 727 84 727 L29 727 C24 727 22 724 23 719 L231 -135 C232 -141 235 -143 241 -143 L296 -143 Z " />
<glyph glyph-name="bracketright" unicode="&#x5d;" horiz-adv-x="247" d="M195 -140 C201 -140 203 -138 203 -132 L203 722 C203 728 201 730 195 730 L37 730 C31 730 29 728 29 722 L29 663 C29 657 31 655 37 655 L115 655 C119 655 121 653 121 649 L121 -59 C121 -63 119 -65 115 -65 L37 -65 C31 -65 29 -67 29 -73 L29 -132 C29 -138 31 -140 37 -140 L195 -140 Z " />
<glyph glyph-name="asciicircum" unicode="&#x5e;" horiz-adv-x="504" d="M473 277 C478 277 480 280 478 284 L287 693 C285 698 282 700 276 700 L227 700 C221 700 218 698 216 693 L25 284 C23 280 25 277 30 277 L87 277 C93 277 96 279 98 284 L250 617 C251 620 253 620 254 617 L405 284 C407 279 410 277 416 277 L473 277 Z " />
<glyph glyph-name="underscore" unicode="&#x5f;" horiz-adv-x="401" d="M372 -170 C378 -170 380 -168 380 -162 L380 -107 C380 -101 378 -99 372 -99 L28 -99 C22 -99 20 -101 20 -107 L20 -162 C20 -168 22 -170 28 -170 L372 -170 Z " />
<glyph glyph-name="grave" unicode="&#x60;" horiz-adv-x="500" d="M347 604 L130 707 C125 709 122 708 120 702 L100 643 C98 637 99 634 105 632 L326 555 C332 553 335 554 337 559 L351 594 C353 599 352 602 347 604 L347 604 Z " />
<glyph glyph-name="a" unicode="a" horiz-adv-x="544" d="M122 263 C122 376 166 454 259 457 C264 457 274 457 278 457 C362 451 410 378 409 253 C408 124 354 58 265 58 C168 58 122 141 122 263 L122 263 Z M489 0 C495 0 497 2 497 8 L493 262 L497 507 C497 513 495 515 489 515 L412 515 C407 515 404 512 404 507 L406 442 C406 439 404 439 403 441 C369 495 314 524 244 524 C108 524 29 404 29 256 C29 107 103 -9 242 -9 C315 -9 369 24 404 78 C405 80 407 80 407 77 L405 8 C405 3 408 0 413 0 L489 0 Z " />
<glyph glyph-name="b" unicode="b" horiz-adv-x="544" d="M515 259 C515 409 441 525 302 525 C231 525 176 493 141 439 C140 437 138 437 138 440 L140 692 C140 698 138 700 132 700 L55 700 C49 700 47 698 47 692 L51 384 L47 8 C47 2 49 0 55 0 L132 0 C137 0 140 3 140 8 L138 72 C138 75 140 75 141 73 C175 19 229 -10 300 -10 C436 -10 515 110 515 259 L515 259 Z M135 263 C136 392 191 458 279 458 C376 458 422 375 422 253 C422 138 376 57 277 58 C186 58 134 133 135 263 L135 263 Z " />
<glyph glyph-name="c" unicode="c" horiz-adv-x="519" d="M495 186 C496 191 493 194 488 194 L419 194 C413 194 411 192 410 186 C402 101 349 55 272 55 C171 56 123 126 123 257 C123 385 171 459 272 459 C340 459 392 422 405 345 C406 339 408 337 414 337 L482 337 C487 337 490 340 489 345 C478 454 400 527 272 527 C116 527 29 418 29 256 C29 94 116 -12 270 -12 C403 -12 485 71 495 186 L495 186 Z " />
<glyph glyph-name="d" unicode="d" horiz-adv-x="544" d="M122 263 C122 379 168 461 267 460 C358 459 410 383 409 253 C408 122 353 56 265 56 C168 56 122 139 122 263 L122 263 Z M489 0 C495 0 497 2 497 8 L494 388 L497 692 C497 698 495 700 489 700 L412 700 C406 700 404 698 404 692 L406 444 C406 441 404 441 403 443 C368 497 314 525 244 525 C108 525 29 405 29 256 C29 106 103 -10 242 -10 C314 -10 369 22 403 77 C404 79 406 79 406 76 L404 8 C404 3 407 0 412 0 L489 0 Z " />
<glyph glyph-name="e" unicode="e" horiz-adv-x="537" d="M423 179 C417 179 415 177 414 171 C398 95 352 55 276 55 C177 55 126 119 121 239 C121 243 123 245 127 245 L502 245 C507 245 510 248 510 253 C507 424 420 527 270 527 C121 527 29 417 29 256 C29 99 115 -12 275 -12 C408 -12 485 65 501 171 C502 176 499 179 494 179 L423 179 Z M412 315 C412 311 410 309 406 309 L130 309 C126 309 124 311 125 315 C139 408 188 461 271 461 C360 461 407 394 412 315 L412 315 Z " />
<glyph glyph-name="f" unicode="f" horiz-adv-x="335" d="M191 439 C191 443 193 445 197 445 L304 445 C310 445 312 447 312 453 L312 507 C312 513 310 515 304 515 L197 515 C193 515 191 517 191 521 L191 553 C191 618 216 643 257 643 C275 643 291 641 305 637 C310 636 313 638 313 643 L313 696 C313 702 311 705 305 706 C286 710 261 713 237 713 C171 713 102 673 102 560 L102 521 C102 517 100 515 96 515 L29 515 C23 515 21 513 21 507 L21 453 C21 447 23 445 29 445 L96 445 C100 445 102 443 102 439 L102 232 L98 8 C98 3 101 0 106 0 L186 0 C192 0 194 2 194 8 L191 232 L191 439 Z " />
<glyph glyph-name="g" unicode="g" horiz-adv-x="542" d="M121 262 C121 378 167 454 259 457 C264 457 274 457 278 457 C362 451 410 378 409 255 C408 128 353 68 269 68 C171 67 121 138 121 262 L121 262 Z M495 35 L493 309 L495 507 C495 513 493 515 487 515 L412 515 C407 515 404 512 404 507 L407 440 C407 437 405 437 404 439 C370 493 316 522 246 522 C107 522 29 404 29 259 C29 112 105 3 249 3 C319 3 373 35 406 89 C407 91 409 91 409 88 L409 36 C409 -80 354 -130 267 -130 C195 -130 143 -100 134 -36 C133 -30 131 -28 125 -28 L51 -28 C46 -28 43 -31 43 -36 C52 -147 147 -198 266 -196 C413 -196 496 -113 495 35 L495 35 Z " />
<glyph glyph-name="h" unicode="h" horiz-adv-x="525" d="M390 319 L390 207 L387 8 C387 2 389 0 395 0 L473 0 C479 0 481 2 481 8 L478 208 L479 312 C481 460 414 527 304 527 C227 527 173 489 140 438 C139 436 137 436 137 439 L140 692 C140 698 138 700 132 700 L56 700 C50 700 48 698 48 692 L52 355 L48 8 C48 2 50 0 56 0 L132 0 C138 0 140 2 140 8 L137 303 C137 307 138 312 138 315 C161 403 217 455 282 455 C345 455 389 415 390 319 L390 319 Z " />
<glyph glyph-name="i" unicode="i" horiz-adv-x="198" d="M146 578 L146 661 C146 667 144 669 138 669 L61 669 C55 669 53 667 53 661 L53 578 C53 572 55 570 61 570 L138 570 C144 570 146 572 146 578 L146 578 Z M146 8 L143 266 L146 507 C146 513 144 515 138 515 L60 515 C54 515 52 513 52 507 L55 265 L52 8 C52 2 54 0 60 0 L138 0 C144 0 146 2 146 8 L146 8 Z " />
<glyph glyph-name="j" unicode="j" horiz-adv-x="198" d="M146 578 L146 661 C146 667 144 669 138 669 L61 669 C55 669 53 667 53 661 L53 578 C53 572 55 570 61 570 L138 570 C144 570 146 572 146 578 L146 578 Z M146 -162 L143 166 L146 507 C146 513 144 515 138 515 L60 515 C54 515 52 513 52 507 L55 166 L52 -162 C52 -168 54 -170 60 -170 L138 -170 C144 -170 146 -168 146 -162 L146 -162 Z " />
<glyph glyph-name="k" unicode="k" horiz-adv-x="466" d="M352 7 C355 2 358 0 364 0 L454 0 C459 0 460 3 458 7 L269 322 C267 326 267 328 270 331 L437 509 C440 512 438 515 434 515 L345 515 C339 515 336 513 332 509 L140 297 C138 295 136 296 136 299 L136 349 L139 692 C139 698 137 700 131 700 L55 700 C49 700 47 698 47 692 L51 347 L47 8 C47 2 49 0 55 0 L131 0 C137 0 139 2 139 8 L137 184 C137 188 138 191 141 194 L198 258 C201 260 203 260 205 257 L311 83 L352 7 Z " />
<glyph glyph-name="l" unicode="l" horiz-adv-x="197" d="M136 0 C142 0 144 2 144 8 L140 355 L144 692 C144 698 142 700 136 700 L60 700 C54 700 52 698 52 692 L56 354 L52 8 C52 2 54 0 60 0 L136 0 Z " />
<glyph glyph-name="m" unicode="m" horiz-adv-x="811" d="M139 292 C139 296 140 301 140 304 C161 399 209 454 268 454 C328 454 367 415 367 319 L367 201 L364 8 C364 2 366 0 372 0 L450 0 C456 0 458 2 458 8 L455 201 L455 314 C455 318 456 322 457 326 C479 407 524 454 578 454 C638 454 677 415 677 319 L677 201 L674 8 C674 2 676 0 682 0 L760 0 C766 0 768 2 768 8 L766 201 L766 323 C766 463 706 527 605 527 C535 527 482 491 446 424 C444 421 442 422 441 425 C417 495 366 527 295 527 C220 527 171 485 139 433 C138 431 136 431 136 434 L138 507 C138 512 135 515 130 515 L56 515 C50 515 48 513 48 507 L51 201 L47 8 C47 3 50 0 55 0 L134 0 C140 0 142 2 142 8 L139 201 L139 292 Z " />
<glyph glyph-name="n" unicode="n" horiz-adv-x="525" d="M134 0 C140 0 142 2 142 8 L140 220 L140 292 C140 296 141 301 141 304 C162 402 216 454 282 454 C347 454 391 412 391 319 L391 220 L389 8 C389 2 391 0 397 0 L474 0 C480 0 482 2 482 8 L479 220 L479 323 C479 457 413 527 307 527 C228 527 171 483 139 433 C138 431 136 431 136 434 L138 507 C138 512 135 515 130 515 L57 515 C51 515 49 513 49 507 L52 235 L48 8 C48 3 51 0 56 0 L134 0 Z " />
<glyph glyph-name="o" unicode="o" horiz-adv-x="547" d="M518 258 C518 420 431 527 274 527 C118 527 30 419 30 256 C30 94 118 -12 274 -12 C431 -12 518 96 518 258 L518 258 Z M123 256 C123 385 172 459 274 460 C374 460 424 385 424 256 C424 127 375 55 274 55 C173 55 123 127 123 256 L123 256 Z " />
<glyph glyph-name="p" unicode="p" horiz-adv-x="544" d="M135 262 C136 391 191 458 279 458 C377 458 423 375 423 252 C423 137 376 57 277 57 C186 57 134 132 135 262 L135 262 Z M515 259 C515 409 441 525 302 525 C230 525 175 493 141 438 C140 436 138 436 138 439 L140 507 C140 512 137 515 132 515 L55 515 C49 515 47 513 47 507 L51 224 L47 -162 C47 -168 49 -170 55 -170 L133 -170 C139 -170 141 -168 141 -162 L139 70 C139 73 141 73 142 71 C177 18 231 -10 300 -10 C436 -10 515 110 515 259 L515 259 Z " />
<glyph glyph-name="q" unicode="q" horiz-adv-x="544" d="M493 202 L497 507 C497 513 495 515 489 515 L412 515 C407 515 404 512 404 507 L406 442 C406 439 404 439 403 441 C369 495 315 524 244 524 C108 524 29 404 29 256 C29 107 103 -9 242 -9 C313 -9 367 22 402 74 C403 76 405 76 405 73 L404 -162 C404 -168 406 -170 412 -170 L489 -170 C495 -170 497 -168 497 -162 L493 202 Z M122 262 C122 381 170 458 267 458 C358 458 410 382 409 252 C408 123 353 58 265 58 C168 58 122 140 122 262 L122 262 Z " />
<glyph glyph-name="r" unicode="r" horiz-adv-x="361" d="M132 0 C138 0 140 2 140 8 L138 276 C138 279 138 284 139 287 C154 395 226 445 310 445 C323 445 333 444 341 443 C347 442 349 444 349 449 L349 507 C349 513 347 516 341 517 C332 519 322 520 311 520 C241 520 176 487 139 423 C137 421 136 421 136 424 L139 507 C139 512 136 515 131 515 L55 515 C49 515 47 513 47 507 L51 263 L47 8 C47 2 49 0 55 0 L132 0 Z " />
<glyph glyph-name="s" unicode="s" horiz-adv-x="501" d="M474 148 C474 364 126 253 126 381 C126 438 171 464 242 464 C316 464 365 433 371 368 C372 362 374 360 380 360 L449 360 C455 360 457 363 457 368 C451 476 362 526 243 526 C121 526 39 474 39 375 C39 167 387 276 387 141 C387 84 336 52 260 52 C169 52 119 89 116 171 C116 177 113 179 108 179 L36 179 C30 179 28 176 28 171 C32 49 126 -11 260 -11 C380 -11 474 47 474 148 L474 148 Z " />
<glyph glyph-name="t" unicode="t" horiz-adv-x="325" d="M305 64 C305 69 302 71 297 70 C283 66 263 63 243 63 C199 63 178 82 178 144 L178 438 C178 442 180 444 184 444 L297 444 C303 444 305 446 305 452 L305 507 C305 513 303 515 297 515 L184 515 C180 515 178 517 178 521 L180 636 C180 642 178 644 172 644 L95 644 C89 644 87 642 87 636 L88 521 C88 517 86 515 82 515 L30 515 C24 515 22 513 22 507 L22 452 C22 446 24 444 30 444 L82 444 C86 444 88 442 88 438 L88 142 C88 30 151 -9 226 -9 C250 -9 276 -3 297 4 C303 5 305 8 305 14 L305 64 Z " />
<glyph glyph-name="u" unicode="u" horiz-adv-x="525" d="M387 83 C388 85 390 85 390 82 L387 8 C387 3 390 0 395 0 L468 0 C474 0 476 2 476 8 L474 280 L477 507 C477 513 475 515 469 515 L392 515 C386 515 384 513 384 507 L385 295 L385 223 C385 219 384 214 384 211 C363 113 310 61 243 61 C179 61 134 103 134 196 L134 295 L136 507 C136 513 134 515 128 515 L52 515 C46 515 44 513 44 507 L46 295 L46 193 C46 58 112 -12 218 -12 C297 -12 354 32 387 83 L387 83 Z " />
<glyph glyph-name="v" unicode="v" horiz-adv-x="489" d="M485 507 C487 512 485 515 480 515 L408 515 C402 515 399 513 397 507 L250 76 C249 73 247 73 246 76 L103 507 C101 513 98 515 92 515 L9 515 C4 515 2 512 4 507 L186 6 C188 0 191 -2 197 -2 L294 -2 C300 -2 303 0 305 6 L485 507 Z " />
<glyph glyph-name="w" unicode="w" horiz-adv-x="705" d="M559 0 C565 0 568 2 569 8 L696 507 C697 512 695 515 690 515 L621 515 C615 515 612 513 611 507 L516 87 C516 84 514 84 514 87 L412 507 C411 513 408 515 402 515 L310 515 C304 515 301 513 300 507 L201 79 C201 76 199 76 199 79 L100 507 C99 513 96 515 90 515 L15 515 C10 515 8 512 9 507 L142 8 C143 2 146 0 152 0 L242 0 C248 0 251 2 252 8 L348 437 C348 440 350 440 350 437 L459 8 C460 2 463 0 469 0 L559 0 Z " />
<glyph glyph-name="x" unicode="x" horiz-adv-x="469" d="M458 0 C463 0 464 3 462 7 L300 265 C298 269 298 271 300 275 L445 508 C447 512 446 515 441 515 L364 515 C358 515 355 513 352 508 L243 324 C241 321 239 321 237 324 L124 508 C121 513 118 515 112 515 L24 515 C19 515 18 512 20 508 L171 275 C173 271 173 269 171 265 L7 7 C5 3 6 0 11 0 L91 0 C97 0 100 2 103 7 L229 211 C231 214 233 214 235 211 L358 7 C361 2 364 0 370 0 L458 0 Z " />
<glyph glyph-name="y" unicode="y" horiz-adv-x="474" d="M470 507 C472 512 470 515 465 515 L387 515 C381 515 378 513 377 507 L255 124 C254 121 252 121 251 124 L107 508 C105 513 102 515 96 515 L9 515 C4 515 2 512 4 508 L204 5 C205 1 205 -3 204 -7 L151 -162 C149 -167 151 -170 156 -170 L227 -170 C233 -170 236 -168 238 -162 L470 507 Z " />
<glyph glyph-name="z" unicode="z" horiz-adv-x="466" d="M436 63 C436 69 434 71 428 71 L145 71 C142 71 141 73 143 76 L419 438 C423 442 424 446 424 452 L424 507 C424 513 422 515 416 515 L60 515 C54 515 52 513 52 507 L52 452 C52 446 54 444 60 444 L306 444 C309 444 310 442 308 439 L36 77 C32 73 31 69 31 63 L31 8 C31 2 33 0 39 0 L428 0 C434 0 436 2 436 8 L436 63 Z " />
<glyph glyph-name="braceleft" unicode="&#x7b;" horiz-adv-x="253" d="M226 -73 C226 -67 224 -65 218 -65 L189 -65 C140 -65 124 -35 152 61 L187 185 C201 228 193 273 144 293 C141 294 141 296 144 297 C193 316 201 358 187 405 L148 541 C123 624 139 655 189 655 L218 655 C224 655 226 657 226 663 L226 722 C226 728 224 730 218 730 L188 730 C85 730 31 658 67 541 L106 405 C118 366 122 332 72 332 L54 332 C48 332 46 330 46 324 L46 266 C46 260 48 258 54 258 L72 258 C122 258 118 224 106 185 L71 62 C35 -59 70 -140 188 -140 L218 -140 C224 -140 226 -138 226 -132 L226 -73 Z " />
<glyph glyph-name="bar" unicode="&#x7c;" horiz-adv-x="138" d="M96 -140 C102 -140 104 -138 104 -132 L104 722 C104 728 102 730 96 730 L42 730 C36 730 34 728 34 722 L34 -132 C34 -138 36 -140 42 -140 L96 -140 Z " />
<glyph glyph-name="braceright" unicode="&#x7d;" horiz-adv-x="253" d="M151 185 C139 224 136 258 185 258 L203 258 C209 258 211 260 211 266 L211 324 C211 330 209 332 203 332 L185 332 C136 332 139 366 151 405 L190 541 C226 658 172 730 69 730 L39 730 C33 730 31 728 31 722 L31 663 C31 657 33 655 39 655 L68 655 C118 655 134 624 109 541 L70 405 C56 358 64 316 113 297 C116 296 116 294 113 293 C65 273 57 228 70 185 L105 61 C134 -35 118 -65 68 -65 L39 -65 C33 -65 31 -67 31 -73 L31 -132 C31 -138 33 -140 39 -140 L69 -140 C188 -140 223 -59 186 62 L151 185 Z " />
<glyph glyph-name="asciitilde" unicode="&#x7e;" horiz-adv-x="506" d="M88 290 C94 290 96 292 96 298 C97 375 115 430 159 430 C225 430 246 287 349 287 C436 287 476 368 478 485 C478 490 475 493 470 493 L419 493 C414 493 411 491 411 485 C410 411 392 357 346 357 C287 357 263 501 158 501 C71 501 30 413 28 298 C28 293 31 290 36 290 L88 290 Z " />
<glyph glyph-name="exclamdown" unicode="&#xa1;" horiz-adv-x="202" d="M60 523 C54 523 52 521 52 515 L52 426 C52 420 54 418 60 418 L142 418 C148 418 150 420 150 426 L150 515 C150 521 148 523 142 523 L60 523 Z M63 329 C57 329 55 327 55 321 L55 -169 C55 -175 57 -177 63 -177 L138 -177 C144 -177 146 -175 146 -169 L146 321 C146 327 144 329 138 329 L63 329 Z " />
<glyph glyph-name="cent" unicode="&#xa2;" horiz-adv-x="526" d="M323 8 L323 91 C429 108 494 185 503 286 C504 291 501 294 496 294 L427 294 C421 294 419 292 418 286 C410 201 357 155 280 155 C179 156 131 226 131 357 C131 485 179 559 280 559 C348 559 400 522 413 445 C414 439 416 437 422 437 L490 437 C495 437 498 440 497 445 C488 541 425 609 323 624 L323 697 C323 703 321 705 315 705 L240 705 C234 705 232 703 232 697 L232 623 C106 603 37 501 37 356 C37 211 107 111 232 91 L232 8 C232 2 234 0 240 0 L315 0 C321 0 323 2 323 8 L323 8 Z " />
<glyph glyph-name="sterling" unicode="&#xa3;" horiz-adv-x="572" d="M464 222 C458 222 456 220 456 214 C454 117 425 64 325 68 L134 75 C131 75 131 76 134 77 C192 101 220 153 220 202 C220 238 212 275 202 313 C202 317 203 319 207 319 L341 319 C347 319 349 321 349 327 L349 381 C349 387 347 389 341 389 L187 389 C183 389 181 391 179 395 C169 434 161 472 161 508 C161 577 208 635 289 635 C374 635 422 580 432 497 C433 491 435 489 441 489 L516 489 C521 489 524 492 523 497 C507 637 423 712 290 712 C154 712 67 627 67 508 C67 472 75 434 85 395 C86 391 85 389 81 389 L13 389 C7 389 5 387 5 381 L5 327 C5 321 7 319 13 319 L101 319 C105 319 107 317 109 313 C121 269 131 226 131 190 C130 143 110 101 47 80 L26 73 C20 71 18 68 18 62 L18 8 C18 2 20 0 26 0 L331 -9 C468 -14 546 54 549 214 C549 219 546 222 541 222 L464 222 Z " />
<glyph glyph-name="yen" unicode="&#xa5;" horiz-adv-x="576" d="M513 163 C513 169 511 171 505 171 L339 171 C335 171 333 173 333 177 L332 232 C332 236 334 238 338 238 L505 238 C511 238 513 240 513 246 L513 299 C513 305 511 307 505 307 L348 307 C344 307 343 309 345 312 L564 693 C566 697 565 700 560 700 L479 700 C473 700 470 698 467 693 L295 366 C293 363 291 363 289 366 L118 693 C115 698 112 700 106 700 L16 700 C11 700 10 697 12 693 L230 312 C232 309 231 307 227 307 L71 307 C65 307 63 305 63 299 L63 246 C63 240 65 238 71 238 L236 238 C240 238 242 236 242 232 L241 177 C241 173 239 171 235 171 L71 171 C65 171 63 169 63 163 L63 110 C63 104 65 102 71 102 L234 102 C238 102 240 100 240 96 L238 8 C238 3 241 0 246 0 L327 0 C333 0 335 2 335 8 L334 96 C334 100 336 102 340 102 L505 102 C511 102 513 104 513 110 L513 163 Z " />
<glyph glyph-name="brokenbar" unicode="&#xa6;" horiz-adv-x="138" d="M96 360 C102 360 104 362 104 368 L104 722 C104 728 102 730 96 730 L42 730 C36 730 34 728 34 722 L34 368 C34 362 36 360 42 360 L96 360 Z M96 -140 C102 -140 104 -138 104 -132 L104 222 C104 228 102 230 96 230 L42 230 C36 230 34 228 34 222 L34 -132 C34 -138 36 -140 42 -140 L96 -140 Z " />
<glyph glyph-name="section" unicode="&#xa7;" horiz-adv-x="582" d="M264 362 C268 363 272 363 276 362 C370 338 457 317 457 246 C457 194 406 162 325 152 C321 151 317 151 313 152 C222 174 137 192 137 260 C137 321 186 351 264 362 L264 362 Z M544 -33 C544 51 492 93 425 120 C422 121 422 123 425 124 C497 149 544 197 544 265 C544 487 137 407 137 550 C137 614 194 643 282 643 C375 643 436 609 442 537 C443 531 446 529 451 529 L520 529 C526 529 528 532 528 537 C520 651 420 705 283 705 C143 705 50 645 50 533 C50 458 100 419 165 394 C168 393 168 391 165 390 C94 366 50 317 50 246 C50 23 457 106 457 -52 C457 -111 395 -145 301 -145 C190 -145 130 -106 126 -22 C126 -16 123 -14 118 -14 L46 -14 C40 -14 38 -17 38 -22 C43 -147 149 -208 301 -208 C438 -208 544 -144 544 -33 L544 -33 Z " />
<glyph glyph-name="dieresis" unicode="&#xa8;" horiz-adv-x="500" d="M209 583 L209 666 C209 672 207 674 201 674 L139 674 C133 674 131 672 131 666 L131 583 C131 577 133 575 139 575 L201 575 C207 575 209 577 209 583 L209 583 Z M368 583 L368 666 C368 672 366 674 360 674 L297 674 C291 674 289 672 289 666 L289 583 C289 577 291 575 297 575 L360 575 C366 575 368 577 368 583 L368 583 Z " />
<glyph glyph-name="copyright" unicode="&#xa9;" horiz-adv-x="737" d="M703 349 C703 574 570 713 369 713 C166 713 34 573 34 349 C34 131 167 -13 368 -13 C570 -13 703 130 703 349 L703 349 Z M83 349 C83 548 188 669 368 669 C548 669 654 546 654 349 C654 151 548 31 369 31 C190 31 83 152 83 349 L83 349 Z M564 283 C565 288 562 291 557 291 L510 291 C504 291 502 289 501 283 C491 211 444 172 373 172 C285 172 232 233 232 351 C232 459 283 529 374 529 C437 529 484 497 498 429 C499 423 501 421 507 421 L554 421 C559 421 562 424 561 429 C539 542 464 582 375 582 C246 582 167 493 167 351 C167 208 244 120 375 120 C477 120 547 172 564 283 L564 283 Z " />
<glyph glyph-name="ordfeminine" unicode="&#xaa;" horiz-adv-x="544" d="M259 642 C264 642 274 642 278 642 C362 636 410 563 409 438 C408 309 354 243 265 243 C168 243 122 326 122 448 C122 561 166 639 259 642 L259 642 Z M497 193 L493 447 L497 692 C497 698 495 700 489 700 L412 700 C407 700 404 697 404 692 L406 627 C406 624 404 624 403 626 C369 680 314 709 244 709 C108 709 29 589 29 441 C29 292 103 176 242 176 C315 176 369 209 404 263 C405 265 407 265 407 262 L405 193 C405 188 408 185 413 185 L489 185 C495 185 497 187 497 193 L497 193 Z " />
<glyph glyph-name="guillemotleft" unicode="&#xab;" horiz-adv-x="449" d="M220 97 C225 97 226 100 223 103 L100 275 C97 279 97 281 100 285 L223 454 C226 457 225 460 220 460 L158 460 C152 460 149 458 145 454 L24 286 C20 282 20 278 24 273 L145 104 C149 99 152 97 158 97 L220 97 Z M415 97 C420 97 421 100 418 103 L295 275 C292 279 292 281 295 285 L418 454 C421 457 420 460 415 460 L353 460 C347 460 344 458 340 454 L219 286 C215 282 215 278 219 273 L340 104 C344 99 347 97 353 97 L415 97 Z " />
<glyph glyph-name="logicalnot" unicode="&#xac;" horiz-adv-x="515" d="M483 374 C483 380 481 382 475 382 L41 382 C35 382 33 380 33 374 L33 315 C33 309 35 307 41 307 L404 307 C408 307 410 305 410 301 L410 107 C410 101 412 99 418 99 L475 99 C481 99 483 101 483 107 L483 374 Z " />
<glyph glyph-name="registered" unicode="&#xae;" horiz-adv-x="367" d="M341 545 C341 648 279 712 184 712 C89 712 27 648 27 545 C27 445 90 378 184 378 C279 378 341 445 341 545 L341 545 Z M56 545 C56 632 103 685 184 685 C265 685 311 631 311 545 C311 458 264 406 184 406 C104 406 56 458 56 545 L56 545 Z M227 584 C227 562 210 553 185 553 L151 553 C147 553 145 555 145 559 L146 611 C146 615 148 617 152 617 L184 617 C212 617 227 606 227 584 L227 584 Z M222 455 C225 450 228 448 234 448 L259 448 C264 448 265 451 263 455 L219 524 C217 527 218 529 222 531 C247 540 262 558 262 585 C262 624 231 644 183 644 L118 644 C112 644 110 642 110 636 L110 456 C110 450 112 448 118 448 L138 448 C144 448 146 450 146 456 L145 519 C145 523 147 525 151 525 L170 525 C174 525 177 524 179 520 L206 481 L222 455 Z " />
<glyph glyph-name="macron" unicode="&#xaf;" horiz-adv-x="500" d="M397 591 L397 644 C397 650 395 652 389 652 L108 652 C102 652 100 650 100 644 L100 591 C100 585 102 583 108 583 L389 583 C395 583 397 585 397 591 L397 591 Z " />
<glyph glyph-name="degree" unicode="&#xb0;" horiz-adv-x="348" d="M324 565 C324 648 260 711 174 711 C88 711 24 648 24 565 C24 481 88 418 174 418 C259 418 324 481 324 565 L324 565 Z M88 565 C88 621 123 654 174 654 C223 654 260 621 260 565 C260 510 223 475 174 475 C123 475 88 510 88 565 L88 565 Z " />
<glyph glyph-name="plusminus" unicode="&#xb1;" horiz-adv-x="503" d="M288 127 L288 327 L468 327 C474 327 476 329 476 335 L476 394 C476 400 474 402 468 402 L288 402 L288 603 C288 609 286 611 280 611 L223 611 C217 611 215 609 215 603 L215 402 L34 402 C28 402 26 400 26 394 L26 335 C26 329 28 327 34 327 L215 327 L215 127 C215 121 217 119 223 119 L280 119 C286 119 288 121 288 127 L288 127 Z M476 6 L476 65 C476 71 474 73 468 73 L34 73 C28 73 26 71 26 65 L26 6 C26 0 28 -2 34 -2 L468 -2 C474 -2 476 0 476 6 L476 6 Z " />
<glyph glyph-name="two.sups" unicode="&#xb2;" horiz-adv-x="297" d="M262 331 C268 331 270 333 270 339 L270 374 C270 380 268 382 262 382 L89 382 C87 382 86 383 86 385 L86 392 C86 474 271 463 271 597 C269 665 228 707 150 707 C71 706 29 662 27 583 C27 578 29 575 35 575 L77 575 C82 575 85 577 85 583 C89 631 112 657 150 657 C191 658 213 633 211 596 C211 511 26 527 26 381 L26 339 C26 333 28 331 34 331 L262 331 Z " />
<glyph glyph-name="three.sups" unicode="&#xb3;" horiz-adv-x="307" d="M283 443 C283 487 259 517 218 529 C215 530 215 532 218 533 C251 546 274 569 274 611 C273 668 225 706 157 706 C83 706 35 668 29 599 C29 594 31 591 37 591 L83 591 C88 591 91 593 91 599 C95 640 115 659 154 659 C186 659 211 638 211 604 C211 571 187 549 136 549 L125 549 C119 549 117 547 117 541 L117 513 C117 507 119 505 125 505 L136 505 C192 505 218 485 217 441 C217 399 193 372 151 372 C109 371 88 396 86 439 C86 445 83 447 78 447 L31 447 C26 447 23 444 24 439 C30 365 73 326 149 326 C224 326 283 370 283 443 L283 443 Z " />
<glyph glyph-name="acute" unicode="&#xb4;" horiz-adv-x="500" d="M392 643 L372 702 C370 708 367 709 362 707 L145 604 C140 602 139 599 141 594 L155 559 C157 554 160 553 166 555 L387 632 C393 634 394 637 392 643 L392 643 Z " />
<glyph glyph-name="uni00B5" unicode="&#xb5;" horiz-adv-x="523" d="M136 -162 L135 12 C161 -4 192 -12 228 -12 C307 -12 364 32 397 83 C398 85 400 85 400 82 L397 8 C397 3 400 0 405 0 L478 0 C484 0 486 2 486 8 L484 280 L487 507 C487 513 485 515 479 515 L402 515 C396 515 394 513 394 507 L395 295 L395 223 C395 219 394 214 394 211 C373 113 320 61 253 61 C189 61 144 103 144 196 L144 295 L146 507 C146 513 144 515 138 515 L52 515 C46 515 44 513 44 507 L46 224 L44 -162 C44 -168 46 -170 52 -170 L128 -170 C134 -170 136 -168 136 -162 L136 -162 Z " />
<glyph glyph-name="paragraph" unicode="&#xb6;" horiz-adv-x="645" d="M383 -184 C389 -184 391 -182 391 -176 L388 148 L388 261 C388 265 390 267 394 267 L497 267 C501 267 503 265 503 261 L502 148 L499 -176 C499 -182 501 -184 507 -184 L588 -184 C594 -184 596 -182 596 -176 L591 230 L596 692 C596 698 594 700 588 700 L283 700 C129 700 34 628 34 487 C34 341 132 267 281 267 L292 267 C296 267 298 265 298 261 L297 146 L294 -176 C294 -182 296 -184 302 -184 L383 -184 Z " />
<glyph glyph-name="periodcentered" unicode="&#xb7;" horiz-adv-x="167" d="M135 258 L135 347 C135 353 133 355 127 355 L42 355 C36 355 34 353 34 347 L34 258 C34 252 36 250 42 250 L127 250 C133 250 135 252 135 258 L135 258 Z " />
<glyph glyph-name="cedilla" unicode="&#xb8;" horiz-adv-x="500" d="M289 7 L229 16 C223 17 220 15 218 9 L163 -146 C161 -152 163 -155 168 -156 L239 -171 C245 -172 248 -171 249 -165 L295 -2 C296 3 294 6 289 7 L289 7 Z " />
<glyph glyph-name="one.sups" unicode="&#xb9;" horiz-adv-x="219" d="M162 331 C167 331 170 334 170 339 L166 499 L170 692 C170 697 167 700 162 700 L114 700 C108 700 105 698 102 693 C86 669 61 649 31 638 C26 636 24 633 24 627 L24 590 C24 585 27 583 32 585 C57 594 80 605 99 621 C101 623 103 622 103 619 L105 517 L102 339 C102 333 104 331 110 331 L162 331 Z " />
<glyph glyph-name="ordmasculine" unicode="&#xba;" horiz-adv-x="547" d="M518 442 C518 604 431 711 274 711 C118 711 30 603 30 440 C30 278 118 172 274 172 C431 172 518 280 518 442 L518 442 Z M123 440 C123 569 172 643 274 644 C374 644 424 569 424 440 C424 311 375 239 274 239 C173 239 123 311 123 440 L123 440 Z " />
<glyph glyph-name="guillemotright" unicode="&#xbb;" horiz-adv-x="449" d="M96 97 C102 97 105 99 109 104 L230 273 C234 278 234 282 230 286 L109 454 C105 458 102 460 96 460 L34 460 C29 460 28 457 31 454 L154 285 C157 281 157 279 154 275 L31 103 C28 100 29 97 34 97 L96 97 Z M291 97 C297 97 300 99 304 104 L425 273 C429 278 429 282 425 286 L304 454 C300 458 297 460 291 460 L229 460 C224 460 223 457 226 454 L349 285 C352 281 352 279 349 275 L226 103 C223 100 224 97 229 97 L291 97 Z " />
<glyph glyph-name="onequarter" unicode="&#xbc;" horiz-adv-x="683" d="M121 0 C127 0 130 2 133 7 L560 693 C562 697 561 700 556 700 L504 700 C498 700 495 698 492 693 L65 7 C63 3 64 0 69 0 L121 0 Z M170 339 L166 499 L170 692 C170 697 167 700 162 700 L114 700 C108 700 105 698 102 693 C86 669 61 649 31 638 C26 636 24 633 24 627 L24 590 C24 585 27 583 32 585 C57 594 80 605 99 621 C101 623 103 622 103 619 L105 517 L102 339 C102 333 104 331 110 331 L162 331 C167 331 170 334 170 339 L170 339 Z M655 139 L630 139 C626 139 624 141 624 145 L624 359 C624 365 622 367 616 367 L545 367 C539 367 536 365 533 360 L396 153 C393 148 392 144 392 138 L392 96 C392 90 394 88 400 88 L554 88 C558 88 560 86 560 82 L560 5 C560 -1 562 -3 568 -3 L616 -3 C622 -3 624 -1 624 5 L624 82 C624 86 626 88 630 88 L655 88 C661 88 663 90 663 96 L663 131 C663 137 661 139 655 139 L655 139 Z M554 139 L452 139 C448 139 447 141 449 144 L559 313 C560 315 562 315 562 312 L560 248 L560 145 C560 141 558 139 554 139 L554 139 Z " />
<glyph glyph-name="onehalf" unicode="&#xbd;" horiz-adv-x="692" d="M121 0 C127 0 130 2 133 7 L560 693 C562 697 561 700 556 700 L504 700 C498 700 495 698 492 693 L65 7 C63 3 64 0 69 0 L121 0 Z M170 339 L166 499 L170 692 C170 697 167 700 162 700 L114 700 C108 700 105 698 102 693 C86 669 61 649 31 638 C26 636 24 633 24 627 L24 590 C24 585 27 583 32 585 C57 594 80 605 99 621 C101 623 103 622 103 619 L105 517 L102 339 C102 333 104 331 110 331 L162 331 C167 331 170 334 170 339 L170 339 Z M658 -2 C664 -2 666 0 666 6 L666 41 C666 47 664 49 658 49 L485 49 C483 49 482 50 482 52 L482 59 C482 141 667 130 667 264 C665 332 624 374 546 374 C467 373 425 329 423 250 C423 245 425 242 431 242 L473 242 C478 242 481 244 481 250 C485 298 508 324 546 324 C587 325 609 300 607 263 C607 178 422 194 422 48 L422 6 C422 0 424 -2 430 -2 L658 -2 Z " />
<glyph glyph-name="threequarters" unicode="&#xbe;" horiz-adv-x="761" d="M199 0 C205 0 208 2 211 7 L638 693 C640 697 639 700 634 700 L582 700 C576 700 573 698 570 693 L143 7 C141 3 142 0 147 0 L199 0 Z M218 529 C215 530 215 532 218 533 C251 546 274 569 274 611 C273 668 225 706 157 706 C83 706 35 668 29 599 C29 594 31 591 37 591 L83 591 C88 591 91 593 91 599 C95 640 115 659 154 659 C186 659 211 638 211 604 C211 571 187 549 136 549 L125 549 C119 549 117 547 117 541 L117 513 C117 507 119 505 125 505 L136 505 C192 505 218 485 217 441 C217 399 193 372 151 372 C109 371 88 396 86 439 C86 445 83 447 78 447 L31 447 C26 447 23 444 24 439 C30 365 73 326 149 326 C224 326 283 370 283 443 C283 487 259 517 218 529 L218 529 Z M638 248 L638 139 L524 139 L640 318 L638 248 Z M702 5 L702 88 L733 88 C739 88 741 90 741 96 L741 131 C741 137 739 139 733 139 L702 139 L702 359 C702 365 700 367 694 367 L623 367 C617 367 614 365 611 360 L474 153 C471 148 470 144 470 138 L470 96 C470 90 472 88 478 88 L638 88 L638 5 C638 -1 640 -3 646 -3 L694 -3 C700 -3 702 -1 702 5 L702 5 Z " />
<glyph glyph-name="questiondown" unicode="&#xbf;" horiz-adv-x="487" d="M206 515 C200 515 198 513 198 507 L198 418 C198 412 200 410 206 410 L289 410 C295 410 297 412 297 418 L297 507 C297 513 295 515 289 515 L206 515 Z M210 321 C205 321 202 319 202 313 C197 147 28 147 28 -10 C28 -128 120 -194 242 -194 C383 -194 464 -121 471 16 C471 21 468 24 463 24 L391 24 C385 24 383 22 383 16 C379 -79 337 -126 245 -125 C170 -124 118 -85 118 -13 C118 102 288 119 293 313 C293 318 290 321 285 321 L210 321 Z " />
<glyph glyph-name="Agrave" unicode="&#xc0;" horiz-adv-x="629" d="M412 779 C414 784 413 787 408 789 L191 892 C186 894 183 893 181 887 L161 828 C159 822 160 819 166 817 L387 740 C393 738 396 739 398 744 L412 779 Z M429 288 L195 288 L311 632 L429 288 Z M101 8 L168 209 L456 209 L525 8 C527 2 530 0 536 0 L617 0 C622 0 624 3 622 8 L380 692 C378 698 375 700 369 700 L263 700 C257 700 254 698 252 692 L7 8 C5 3 7 0 12 0 L90 0 C96 0 99 2 101 8 L101 8 Z " />
<glyph glyph-name="Aacute" unicode="&#xc1;" horiz-adv-x="629" d="M453 828 L433 887 C431 893 428 894 423 892 L206 789 C201 787 200 784 202 779 L216 744 C218 739 221 738 227 740 L448 817 C454 819 455 822 453 828 L453 828 Z M197 294 L309 626 C310 629 312 629 313 626 L427 294 C428 290 427 288 423 288 L201 288 C197 288 196 290 197 294 L197 294 Z M622 8 L380 692 C378 698 375 700 369 700 L263 700 C257 700 254 698 252 692 L7 8 C5 3 7 0 12 0 L90 0 C96 0 99 2 101 8 L166 203 C167 207 170 209 174 209 L450 209 C454 209 457 207 458 203 L525 8 C527 2 530 0 536 0 L617 0 C622 0 624 3 622 8 L622 8 Z " />
<glyph glyph-name="Acircumflex" unicode="&#xc2;" horiz-adv-x="629" d="M468 791 L337 881 C332 884 328 885 322 885 L299 885 C293 885 289 884 284 881 L152 791 C147 788 146 785 148 780 L162 744 C164 739 167 738 172 741 L306 810 C310 812 312 812 316 810 L448 741 C453 738 456 739 458 744 L472 780 C474 785 473 788 468 791 L468 791 Z M197 294 L309 626 C310 629 312 629 313 626 L427 294 C428 290 427 288 423 288 L201 288 C197 288 196 290 197 294 L197 294 Z M622 8 L380 692 C378 698 375 700 369 700 L263 700 C257 700 254 698 252 692 L7 8 C5 3 7 0 12 0 L90 0 C96 0 99 2 101 8 L166 203 C167 207 170 209 174 209 L450 209 C454 209 457 207 458 203 L525 8 C527 2 530 0 536 0 L617 0 C622 0 624 3 622 8 L622 8 Z " />
<glyph glyph-name="Atilde" unicode="&#xc3;" horiz-adv-x="629" d="M451 863 C451 868 449 871 443 871 L408 871 C403 871 400 869 400 863 C399 831 389 809 364 809 C330 809 315 875 255 875 C199 875 173 827 171 764 C171 759 173 756 179 756 L214 756 C219 756 222 758 222 764 C223 796 233 817 256 817 C294 817 305 751 367 751 C423 751 449 796 451 863 L451 863 Z M197 294 L309 626 C310 629 312 629 313 626 L427 294 C428 290 427 288 423 288 L201 288 C197 288 196 290 197 294 L197 294 Z M622 8 L380 692 C378 698 375 700 369 700 L263 700 C257 700 254 698 252 692 L7 8 C5 3 7 0 12 0 L90 0 C96 0 99 2 101 8 L166 203 C167 207 170 209 174 209 L450 209 C454 209 457 207 458 203 L525 8 C527 2 530 0 536 0 L617 0 C622 0 624 3 622 8 L622 8 Z " />
<glyph glyph-name="Adieresis" unicode="&#xc4;" horiz-adv-x="629" d="M421 760 C427 760 429 762 429 768 L429 851 C429 857 427 859 421 859 L358 859 C352 859 350 857 350 851 L350 768 C350 762 352 760 358 760 L421 760 Z M262 760 C268 760 270 762 270 768 L270 851 C270 857 268 859 262 859 L200 859 C194 859 192 857 192 851 L192 768 C192 762 194 760 200 760 L262 760 Z M197 294 L309 626 C310 629 312 629 313 626 L427 294 C428 290 427 288 423 288 L201 288 C197 288 196 290 197 294 L197 294 Z M622 8 L380 692 C378 698 375 700 369 700 L263 700 C257 700 254 698 252 692 L7 8 C5 3 7 0 12 0 L90 0 C96 0 99 2 101 8 L166 203 C167 207 170 209 174 209 L450 209 C454 209 457 207 458 203 L525 8 C527 2 530 0 536 0 L617 0 C622 0 624 3 622 8 L622 8 Z " />
<glyph glyph-name="Aring" unicode="&#xc5;" horiz-adv-x="629" d="M418 848 C418 907 372 952 310 952 C249 952 203 907 203 848 C203 788 249 743 310 743 C372 743 418 788 418 848 L418 848 Z M255 848 C255 888 277 911 310 911 C342 911 366 888 366 848 C366 808 342 784 310 784 C277 784 255 808 255 848 L255 848 Z M429 288 L195 288 L311 632 L429 288 Z M101 8 L168 209 L456 209 L525 8 C527 2 530 0 536 0 L617 0 C622 0 624 3 622 8 L380 692 C378 698 375 700 369 700 L263 700 C257 700 254 698 252 692 L7 8 C5 3 7 0 12 0 L90 0 C96 0 99 2 101 8 L101 8 Z " />
<glyph glyph-name="AE" unicode="&#xc6;" horiz-adv-x="870" d="M439 294 C439 290 437 288 433 288 L245 288 C241 288 240 290 242 293 L407 626 C409 630 412 631 416 631 L430 631 C434 631 436 629 436 625 L440 361 L439 294 Z M826 0 C832 0 834 2 834 8 L834 67 C834 73 832 75 826 75 L537 75 C533 75 531 77 531 81 L527 330 C527 334 529 336 533 336 L794 336 C800 336 802 338 802 344 L802 403 C802 409 800 411 794 411 L533 411 C529 411 527 413 527 417 L531 619 C531 623 533 625 537 625 L818 625 C824 625 826 627 826 633 L826 692 C826 698 824 700 818 700 L365 700 C359 700 356 698 353 693 L5 7 C2 3 4 0 9 0 L88 0 C94 0 97 2 100 7 L197 204 C199 208 202 209 206 209 L432 209 C436 209 438 207 438 203 L435 8 C435 2 437 0 443 0 L826 0 Z " />
<glyph glyph-name="Ccedilla" unicode="&#xc7;" horiz-adv-x="682" d="M346 -165 L389 -12 C533 -2 631 81 656 248 C657 253 654 256 649 256 L571 256 C565 256 563 254 562 248 C549 128 472 64 356 64 C214 64 128 162 128 351 C128 523 210 636 357 636 C460 636 537 583 559 467 C560 461 562 459 568 459 L644 459 C649 459 652 462 651 467 C618 649 498 713 358 713 C157 713 32 572 32 351 C32 144 134 11 308 -10 L260 -146 C258 -152 260 -155 265 -156 L336 -171 C342 -172 345 -171 346 -165 L346 -165 Z " />
<glyph glyph-name="Egrave" unicode="&#xc8;" horiz-adv-x="535" d="M392 789 L175 892 C170 894 167 893 165 887 L145 828 C143 822 144 819 150 817 L371 740 C377 738 380 739 382 744 L396 779 C398 784 397 787 392 789 L392 789 Z M503 8 L503 67 C503 73 501 75 495 75 L156 75 C152 75 150 77 150 81 L145 330 C145 334 147 336 151 336 L463 336 C469 336 471 338 471 344 L471 403 C471 409 469 411 463 411 L151 411 C147 411 145 413 145 417 L150 619 C150 623 152 625 156 625 L487 625 C493 625 495 627 495 633 L495 692 C495 698 493 700 487 700 L61 700 C55 700 53 698 53 692 L58 361 L53 8 C53 2 55 0 61 0 L495 0 C501 0 503 2 503 8 L503 8 Z " />
<glyph glyph-name="Eacute" unicode="&#xc9;" horiz-adv-x="535" d="M437 828 L417 887 C415 893 412 894 407 892 L190 789 C185 787 184 784 186 779 L200 744 C202 739 205 738 211 740 L432 817 C438 819 439 822 437 828 L437 828 Z M503 8 L503 67 C503 73 501 75 495 75 L156 75 C152 75 150 77 150 81 L145 330 C145 334 147 336 151 336 L463 336 C469 336 471 338 471 344 L471 403 C471 409 469 411 463 411 L151 411 C147 411 145 413 145 417 L150 619 C150 623 152 625 156 625 L487 625 C493 625 495 627 495 633 L495 692 C495 698 493 700 487 700 L61 700 C55 700 53 698 53 692 L58 361 L53 8 C53 2 55 0 61 0 L495 0 C501 0 503 2 503 8 L503 8 Z " />
<glyph glyph-name="Ecircumflex" unicode="&#xca;" horiz-adv-x="535" d="M452 791 L321 881 C316 884 312 885 306 885 L283 885 C277 885 273 884 268 881 L136 791 C131 788 130 785 132 780 L146 744 C148 739 151 738 156 741 L290 810 C294 812 296 812 300 810 L432 741 C437 738 440 739 442 744 L456 780 C458 785 457 788 452 791 L452 791 Z M503 8 L503 67 C503 73 501 75 495 75 L156 75 C152 75 150 77 150 81 L145 330 C145 334 147 336 151 336 L463 336 C469 336 471 338 471 344 L471 403 C471 409 469 411 463 411 L151 411 C147 411 145 413 145 417 L150 619 C150 623 152 625 156 625 L487 625 C493 625 495 627 495 633 L495 692 C495 698 493 700 487 700 L61 700 C55 700 53 698 53 692 L58 361 L53 8 C53 2 55 0 61 0 L495 0 C501 0 503 2 503 8 L503 8 Z " />
<glyph glyph-name="Edieresis" unicode="&#xcb;" horiz-adv-x="535" d="M254 768 L254 851 C254 857 252 859 246 859 L184 859 C178 859 176 857 176 851 L176 768 C176 762 178 760 184 760 L246 760 C252 760 254 762 254 768 L254 768 Z M413 768 L413 851 C413 857 411 859 405 859 L342 859 C336 859 334 857 334 851 L334 768 C334 762 336 760 342 760 L405 760 C411 760 413 762 413 768 L413 768 Z M503 8 L503 67 C503 73 501 75 495 75 L156 75 C152 75 150 77 150 81 L145 330 C145 334 147 336 151 336 L463 336 C469 336 471 338 471 344 L471 403 C471 409 469 411 463 411 L151 411 C147 411 145 413 145 417 L150 619 C150 623 152 625 156 625 L487 625 C493 625 495 627 495 633 L495 692 C495 698 493 700 487 700 L61 700 C55 700 53 698 53 692 L58 361 L53 8 C53 2 55 0 61 0 L495 0 C501 0 503 2 503 8 L503 8 Z " />
<glyph glyph-name="Igrave" unicode="&#xcc;" horiz-adv-x="213" d="M204 789 L-13 892 C-18 894 -21 893 -23 887 L-43 828 C-45 822 -44 819 -38 817 L183 740 C189 738 192 739 194 744 L208 779 C210 784 209 787 204 789 L204 789 Z M154 8 L150 356 L154 692 C154 698 152 700 146 700 L67 700 C61 700 59 698 59 692 L63 356 L59 8 C59 2 61 0 67 0 L146 0 C152 0 154 2 154 8 L154 8 Z " />
<glyph glyph-name="Iacute" unicode="&#xcd;" horiz-adv-x="213" d="M249 828 L229 887 C227 893 224 894 219 892 L2 789 C-3 787 -4 784 -2 779 L12 744 C14 739 17 738 23 740 L244 817 C250 819 251 822 249 828 L249 828 Z M154 8 L150 356 L154 692 C154 698 152 700 146 700 L67 700 C61 700 59 698 59 692 L63 356 L59 8 C59 2 61 0 67 0 L146 0 C152 0 154 2 154 8 L154 8 Z " />
<glyph glyph-name="Icircumflex" unicode="&#xce;" horiz-adv-x="213" d="M254 744 L268 780 C270 785 269 788 264 791 L133 881 C128 884 124 885 118 885 L95 885 C89 885 85 884 80 881 L-52 791 C-57 788 -58 785 -56 780 L-42 744 C-40 739 -37 738 -32 741 L107 813 L244 741 C249 738 252 739 254 744 L254 744 Z M146 0 C152 0 154 2 154 8 L150 356 L154 692 C154 698 152 700 146 700 L67 700 C61 700 59 698 59 692 L63 356 L59 8 C59 2 61 0 67 0 L146 0 Z " />
<glyph glyph-name="Idieresis" unicode="&#xcf;" horiz-adv-x="213" d="M217 760 C223 760 225 762 225 768 L225 851 C225 857 223 859 217 859 L154 859 C148 859 146 857 146 851 L146 768 C146 762 148 760 154 760 L217 760 Z M58 760 C64 760 66 762 66 768 L66 851 C66 857 64 859 58 859 L-4 859 C-10 859 -12 857 -12 851 L-12 768 C-12 762 -10 760 -4 760 L58 760 Z M154 8 L150 356 L154 692 C154 698 152 700 146 700 L67 700 C61 700 59 698 59 692 L63 356 L59 8 C59 2 61 0 67 0 L146 0 C152 0 154 2 154 8 L154 8 Z " />
<glyph glyph-name="Eth" unicode="&#xd0;" horiz-adv-x="679" d="M295 0 C482 0 647 111 647 350 C647 579 494 700 293 700 L70 700 C64 700 62 698 62 692 L65 408 L4 408 C-2 408 -4 406 -4 400 L-4 339 C-4 333 -2 331 4 331 L66 331 L62 8 C62 2 64 0 70 0 L295 0 Z M165 75 C161 75 159 77 159 81 C158 112 156 255 155 331 L348 331 C354 331 356 333 356 339 L356 400 C356 406 354 408 348 408 L155 408 C156 481 158 592 159 619 C159 623 161 625 165 625 L299 625 C437 625 551 535 551 350 C551 156 426 75 303 75 L165 75 Z " />
<glyph glyph-name="Ntilde" unicode="&#xd1;" horiz-adv-x="673" d="M478 863 C478 868 476 871 470 871 L435 871 C430 871 427 869 427 863 C426 831 416 809 391 809 C357 809 342 875 282 875 C226 875 200 827 198 764 C198 759 200 756 206 756 L241 756 C246 756 249 758 249 764 C250 796 260 817 283 817 C321 817 332 751 394 751 C450 751 476 796 478 863 L478 863 Z M143 8 L142 305 L140 500 L138 573 L501 7 C504 2 507 0 513 0 L611 0 C617 0 619 2 619 8 L615 355 L620 692 C620 698 618 700 612 700 L538 700 C532 700 530 698 530 692 L531 387 L533 179 L535 119 L167 693 C164 698 161 700 155 700 L62 700 C56 700 54 698 54 692 L58 355 L53 8 C53 2 55 0 61 0 L135 0 C141 0 143 2 143 8 L143 8 Z " />
<glyph glyph-name="Ograve" unicode="&#xd2;" horiz-adv-x="733" d="M462 789 L245 892 C240 894 237 893 235 887 L215 828 C213 822 214 819 220 817 L441 740 C447 738 450 739 452 744 L466 779 C468 784 467 787 462 789 L462 789 Z M366 713 C164 713 32 573 32 349 C32 131 164 -13 366 -13 C567 -13 701 130 701 349 C701 574 568 713 366 713 L366 713 Z M366 636 C515 636 604 527 604 349 C604 171 515 64 366 64 C218 64 128 172 128 349 C128 528 216 636 366 636 L366 636 Z " />
<glyph glyph-name="Oacute" unicode="&#xd3;" horiz-adv-x="733" d="M507 828 L487 887 C485 893 482 894 477 892 L260 789 C255 787 254 784 256 779 L270 744 C272 739 275 738 281 740 L502 817 C508 819 509 822 507 828 L507 828 Z M701 349 C701 574 568 713 366 713 C164 713 32 573 32 349 C32 131 164 -13 366 -13 C567 -13 701 130 701 349 L701 349 Z M128 349 C128 528 216 636 366 636 C515 636 604 527 604 349 C604 171 515 64 366 64 C218 64 128 172 128 349 L128 349 Z " />
<glyph glyph-name="Ocircumflex" unicode="&#xd4;" horiz-adv-x="733" d="M522 791 L391 881 C386 884 382 885 376 885 L353 885 C347 885 343 884 338 881 L206 791 C201 788 200 785 202 780 L216 744 C218 739 221 738 226 741 L360 810 C364 812 366 812 370 810 L502 741 C507 738 510 739 512 744 L526 780 C528 785 527 788 522 791 L522 791 Z M701 349 C701 574 568 713 366 713 C164 713 32 573 32 349 C32 131 164 -13 366 -13 C567 -13 701 130 701 349 L701 349 Z M128 349 C128 528 216 636 366 636 C515 636 604 527 604 349 C604 171 515 64 366 64 C218 64 128 172 128 349 L128 349 Z " />
<glyph glyph-name="Otilde" unicode="&#xd5;" horiz-adv-x="733" d="M505 863 C505 868 503 871 497 871 L462 871 C457 871 454 869 454 863 C453 831 443 809 418 809 C384 809 369 875 309 875 C253 875 227 827 225 764 C225 759 227 756 233 756 L268 756 C273 756 276 758 276 764 C277 796 287 817 310 817 C348 817 359 751 421 751 C477 751 503 796 505 863 L505 863 Z M701 349 C701 574 568 713 366 713 C164 713 32 573 32 349 C32 131 164 -13 366 -13 C567 -13 701 130 701 349 L701 349 Z M128 349 C128 528 216 636 366 636 C515 636 604 527 604 349 C604 171 515 64 366 64 C218 64 128 172 128 349 L128 349 Z " />
<glyph glyph-name="Odieresis" unicode="&#xd6;" horiz-adv-x="733" d="M475 760 C481 760 483 762 483 768 L483 851 C483 857 481 859 475 859 L412 859 C406 859 404 857 404 851 L404 768 C404 762 406 760 412 760 L475 760 Z M316 760 C322 760 324 762 324 768 L324 851 C324 857 322 859 316 859 L254 859 C248 859 246 857 246 851 L246 768 C246 762 248 760 254 760 L316 760 Z M701 349 C701 574 568 713 366 713 C164 713 32 573 32 349 C32 131 164 -13 366 -13 C567 -13 701 130 701 349 L701 349 Z M128 349 C128 528 216 636 366 636 C515 636 604 527 604 349 C604 171 515 64 366 64 C218 64 128 172 128 349 L128 349 Z " />
<glyph glyph-name="multiply" unicode="&#xd7;" horiz-adv-x="508" d="M447 191 C450 195 450 199 446 203 L309 340 C306 343 306 345 309 348 L446 486 C450 490 450 494 447 498 L407 539 C404 543 400 543 396 539 L258 400 C255 397 253 397 250 400 L111 539 C107 543 103 543 100 539 L60 498 C57 494 57 490 61 486 L198 348 C201 345 201 343 198 340 L62 203 C58 199 58 195 61 191 L101 150 C104 146 108 146 112 150 L250 289 C253 292 255 292 258 289 L396 150 C400 146 404 146 407 150 L447 191 Z " />
<glyph glyph-name="Oslash" unicode="&#xd8;" horiz-adv-x="733" d="M128 349 C128 528 216 636 366 636 C428 636 480 617 519 582 L168 174 C142 220 128 279 128 349 L128 349 Z M366 64 C303 64 250 84 211 120 L563 528 C590 481 604 421 604 349 C604 171 515 64 366 64 L366 64 Z M91 -33 L162 51 C217 10 286 -13 366 -13 C567 -13 701 130 701 349 C701 450 674 533 627 594 L699 678 C702 682 702 686 698 690 L652 736 C648 740 644 740 641 736 L568 652 C514 692 445 713 366 713 C164 713 32 573 32 349 C32 252 58 170 104 109 L33 25 C30 21 30 17 34 13 L80 -33 C84 -37 88 -37 91 -33 L91 -33 Z " />
<glyph glyph-name="Ugrave" unicode="&#xd9;" horiz-adv-x="607" d="M400 789 L183 892 C178 894 175 893 173 887 L153 828 C151 822 152 819 158 817 L379 740 C385 738 388 739 390 744 L404 779 C406 784 405 787 400 789 L400 789 Z M562 265 L562 483 L564 692 C564 698 562 700 556 700 L481 700 C475 700 473 698 473 692 L476 483 L476 265 C476 146 427 66 305 66 C186 66 138 146 138 265 L137 485 L141 692 C141 697 138 700 133 700 L50 700 C45 700 42 697 42 692 L46 483 L45 265 C44 89 132 -13 305 -13 C478 -13 562 89 562 265 L562 265 Z " />
<glyph glyph-name="Uacute" unicode="&#xda;" horiz-adv-x="607" d="M445 828 L425 887 C423 893 420 894 415 892 L198 789 C193 787 192 784 194 779 L208 744 C210 739 213 738 219 740 L440 817 C446 819 447 822 445 828 L445 828 Z M562 265 L562 483 L564 692 C564 698 562 700 556 700 L481 700 C475 700 473 698 473 692 L476 483 L476 265 C476 146 427 66 305 66 C186 66 138 146 138 265 L137 485 L141 692 C141 697 138 700 133 700 L50 700 C45 700 42 697 42 692 L46 483 L45 265 C44 89 132 -13 305 -13 C478 -13 562 89 562 265 L562 265 Z " />
<glyph glyph-name="Ucircumflex" unicode="&#xdb;" horiz-adv-x="607" d="M460 791 L329 881 C324 884 320 885 314 885 L291 885 C285 885 281 884 276 881 L144 791 C139 788 138 785 140 780 L154 744 C156 739 159 738 164 741 L298 810 C302 812 304 812 308 810 L440 741 C445 738 448 739 450 744 L464 780 C466 785 465 788 460 791 L460 791 Z M562 265 L562 483 L564 692 C564 698 562 700 556 700 L481 700 C475 700 473 698 473 692 L476 483 L476 265 C476 146 427 66 305 66 C186 66 138 146 138 265 L137 485 L141 692 C141 697 138 700 133 700 L50 700 C45 700 42 697 42 692 L46 483 L45 265 C44 89 132 -13 305 -13 C478 -13 562 89 562 265 L562 265 Z " />
<glyph glyph-name="Udieresis" unicode="&#xdc;" horiz-adv-x="607" d="M262 768 L262 851 C262 857 260 859 254 859 L192 859 C186 859 184 857 184 851 L184 768 C184 762 186 760 192 760 L254 760 C260 760 262 762 262 768 L262 768 Z M421 768 L421 851 C421 857 419 859 413 859 L350 859 C344 859 342 857 342 851 L342 768 C342 762 344 760 350 760 L413 760 C419 760 421 762 421 768 L421 768 Z M562 265 L562 483 L564 692 C564 698 562 700 556 700 L481 700 C475 700 473 698 473 692 L476 483 L476 265 C476 146 427 66 305 66 C186 66 138 146 138 265 L137 485 L141 692 C141 697 138 700 133 700 L50 700 C45 700 42 697 42 692 L46 483 L45 265 C44 89 132 -13 305 -13 C478 -13 562 89 562 265 L562 265 Z " />
<glyph glyph-name="Yacute" unicode="&#xdd;" horiz-adv-x="567" d="M418 817 C424 819 425 822 423 828 L403 887 C401 893 398 894 393 892 L176 789 C171 787 170 784 172 779 L186 744 C188 739 191 738 197 740 L418 817 Z M322 0 C328 0 330 2 330 8 L327 243 L328 244 L560 693 C563 697 561 700 556 700 L474 700 C468 700 465 698 463 693 L287 328 L112 693 C110 698 107 700 101 700 L11 700 C6 700 4 697 7 693 L238 245 L234 8 C234 2 236 0 242 0 L322 0 Z " />
<glyph glyph-name="Thorn" unicode="&#xde;" horiz-adv-x="564" d="M541 355 C541 497 445 569 292 569 L154 569 C150 569 148 571 148 575 L150 692 C150 698 148 700 142 700 L61 700 C55 700 53 698 53 692 L58 359 L53 8 C53 2 55 0 61 0 L142 0 C148 0 150 2 150 8 L148 130 C148 134 150 136 154 136 L293 136 C442 136 541 210 541 355 L541 355 Z M147 489 C147 493 149 495 153 495 L295 495 C393 495 450 450 450 354 C450 250 389 210 299 210 L153 210 C149 210 147 212 147 216 L145 351 L147 489 Z " />
<glyph glyph-name="germandbls" unicode="&#xdf;" horiz-adv-x="554" d="M143 -1 C148 -1 151 2 151 7 L147 231 L147 497 C147 601 202 642 274 642 C345 642 393 604 393 520 C393 451 359 406 279 406 L252 406 C246 406 244 404 244 398 L244 347 C244 341 246 339 252 339 L279 339 C375 339 434 293 433 207 C432 120 381 71 283 71 L252 71 C246 71 244 69 244 63 L244 7 C244 1 246 -1 252 -1 L283 -1 C426 -1 528 77 528 209 C528 298 476 363 375 382 C372 382 372 383 375 384 C441 403 486 452 486 529 C485 647 404 712 277 712 C159 711 58 655 58 499 L58 231 L55 7 C55 1 57 -1 63 -1 L143 -1 Z " />
<glyph glyph-name="agrave" unicode="&#xe0;" horiz-adv-x="544" d="M359 604 L142 707 C137 709 134 708 132 702 L112 643 C110 637 111 634 117 632 L338 555 C344 553 347 554 349 559 L363 594 C365 599 364 602 359 604 L359 604 Z M259 457 C264 457 274 457 278 457 C362 451 410 378 409 253 C408 124 354 58 265 58 C168 58 122 141 122 263 C122 376 166 454 259 457 L259 457 Z M497 8 L493 262 L497 507 C497 513 495 515 489 515 L412 515 C407 515 404 512 404 507 L406 442 C406 439 404 439 403 441 C369 495 314 524 244 524 C108 524 29 404 29 256 C29 107 103 -9 242 -9 C315 -9 369 24 404 78 C405 80 407 80 407 77 L405 8 C405 3 408 0 413 0 L489 0 C495 0 497 2 497 8 L497 8 Z " />
<glyph glyph-name="aacute" unicode="&#xe1;" horiz-adv-x="544" d="M404 643 L384 702 C382 708 379 709 374 707 L157 604 C152 602 151 599 153 594 L167 559 C169 554 172 553 178 555 L399 632 C405 634 406 637 404 643 L404 643 Z M259 457 C264 457 274 457 278 457 C362 451 410 378 409 253 C408 124 354 58 265 58 C168 58 122 141 122 263 C122 376 166 454 259 457 L259 457 Z M497 8 L493 262 L497 507 C497 513 495 515 489 515 L412 515 C407 515 404 512 404 507 L406 442 C406 439 404 439 403 441 C369 495 314 524 244 524 C108 524 29 404 29 256 C29 107 103 -9 242 -9 C315 -9 369 24 404 78 C405 80 407 80 407 77 L405 8 C405 3 408 0 413 0 L489 0 C495 0 497 2 497 8 L497 8 Z " />
<glyph glyph-name="acircumflex" unicode="&#xe2;" horiz-adv-x="544" d="M409 559 L423 595 C425 600 424 603 419 606 L288 696 C283 699 279 700 273 700 L250 700 C244 700 240 699 235 696 L103 606 C98 603 97 600 99 595 L113 559 C115 554 118 553 123 556 L262 628 L399 556 C404 553 407 554 409 559 L409 559 Z M122 263 C122 376 166 454 259 457 C264 457 274 457 278 457 C362 451 410 378 409 253 C408 124 354 58 265 58 C168 58 122 141 122 263 L122 263 Z M405 8 C405 3 408 0 413 0 L489 0 C495 0 497 2 497 8 L493 262 L497 507 C497 513 495 515 489 515 L412 515 C407 515 404 512 404 507 L406 436 C372 493 316 524 244 524 C108 524 29 404 29 256 C29 107 103 -9 242 -9 C317 -9 372 26 407 83 L405 8 Z " />
<glyph glyph-name="atilde" unicode="&#xe3;" horiz-adv-x="544" d="M403 678 C403 683 401 686 395 686 L360 686 C355 686 352 684 352 678 C351 646 341 624 316 624 C282 624 267 690 207 690 C151 690 125 642 123 579 C123 574 125 571 131 571 L166 571 C171 571 174 573 174 579 C175 611 185 632 208 632 C246 632 257 566 319 566 C375 566 401 611 403 678 L403 678 Z M259 457 C264 457 274 457 278 457 C362 451 410 378 409 253 C408 124 354 58 265 58 C168 58 122 141 122 263 C122 376 166 454 259 457 L259 457 Z M497 8 L493 262 L497 507 C497 513 495 515 489 515 L412 515 C407 515 404 512 404 507 L406 442 C406 439 404 439 403 441 C369 495 314 524 244 524 C108 524 29 404 29 256 C29 107 103 -9 242 -9 C315 -9 369 24 404 78 C405 80 407 80 407 77 L405 8 C405 3 408 0 413 0 L489 0 C495 0 497 2 497 8 L497 8 Z " />
<glyph glyph-name="adieresis" unicode="&#xe4;" horiz-adv-x="544" d="M222 583 L222 666 C222 672 220 674 214 674 L152 674 C146 674 144 672 144 666 L144 583 C144 577 146 575 152 575 L214 575 C220 575 222 577 222 583 L222 583 Z M381 583 L381 666 C381 672 379 674 373 674 L310 674 C304 674 302 672 302 666 L302 583 C302 577 304 575 310 575 L373 575 C379 575 381 577 381 583 L381 583 Z M259 457 C264 457 274 457 278 457 C362 451 410 378 409 253 C408 124 354 58 265 58 C168 58 122 141 122 263 C122 376 166 454 259 457 L259 457 Z M497 8 L493 262 L497 507 C497 513 495 515 489 515 L412 515 C407 515 404 512 404 507 L406 442 C406 439 404 439 403 441 C369 495 314 524 244 524 C108 524 29 404 29 256 C29 107 103 -9 242 -9 C315 -9 369 24 404 78 C405 80 407 80 407 77 L405 8 C405 3 408 0 413 0 L489 0 C495 0 497 2 497 8 L497 8 Z " />
<glyph glyph-name="aring" unicode="&#xe5;" horiz-adv-x="544" d="M370 663 C370 722 324 767 262 767 C201 767 155 722 155 663 C155 603 201 558 262 558 C324 558 370 603 370 663 L370 663 Z M207 663 C207 703 229 726 262 726 C294 726 318 703 318 663 C318 623 294 599 262 599 C229 599 207 623 207 663 L207 663 Z M122 263 C122 376 166 454 259 457 C264 457 274 457 278 457 C362 451 410 378 409 253 C408 124 354 58 265 58 C168 58 122 141 122 263 L122 263 Z M405 8 C405 3 408 0 413 0 L489 0 C495 0 497 2 497 8 L493 262 L497 507 C497 513 495 515 489 515 L412 515 C407 515 404 512 404 507 L406 436 C372 493 316 524 244 524 C108 524 29 404 29 256 C29 107 103 -9 242 -9 C317 -9 372 26 407 83 L405 8 Z " />
<glyph glyph-name="ae" unicode="&#xe6;" horiz-adv-x="917" d="M666 -12 C791 -12 864 65 880 171 C881 176 878 179 873 179 L802 179 C796 179 794 177 793 171 C778 95 731 55 655 55 C557 55 505 119 500 239 C500 243 502 245 506 245 L881 245 C886 245 889 248 889 253 C886 424 803 527 661 527 C589 527 532 494 496 437 L497 507 C497 513 495 515 489 515 L412 515 C407 515 404 512 404 507 L406 442 C406 439 404 439 403 441 C369 495 314 524 244 524 C108 524 29 404 29 256 C29 107 103 -9 242 -9 C315 -9 369 24 404 78 C405 80 407 80 407 77 L405 8 C405 3 408 0 413 0 L489 0 C495 0 497 2 497 8 L496 76 C532 21 589 -12 666 -12 L666 -12 Z M791 315 C791 311 789 309 785 309 L509 309 C505 309 503 311 504 315 C518 408 567 461 650 461 C739 461 786 394 791 315 L791 315 Z M259 457 C264 457 274 457 278 457 C362 451 410 378 409 253 C408 124 354 58 265 58 C168 58 122 141 122 263 C122 376 166 454 259 457 L259 457 Z " />
<glyph glyph-name="ccedilla" unicode="&#xe7;" horiz-adv-x="519" d="M262 -165 L306 -10 C418 4 486 82 495 186 C496 191 493 194 488 194 L419 194 C413 194 411 192 410 186 C402 101 349 55 272 55 C171 56 123 126 123 257 C123 385 171 459 272 459 C340 459 392 422 405 345 C406 339 408 337 414 337 L482 337 C487 337 490 340 489 345 C478 454 400 527 272 527 C116 527 29 418 29 256 C29 111 99 10 225 -9 L176 -146 C174 -152 176 -155 181 -156 L252 -171 C258 -172 261 -171 262 -165 L262 -165 Z " />
<glyph glyph-name="egrave" unicode="&#xe8;" horiz-adv-x="538" d="M371 594 C373 599 372 602 367 604 L150 707 C145 709 142 708 140 702 L120 643 C118 637 119 634 125 632 L346 555 C352 553 355 554 357 559 L371 594 Z M271 461 C360 461 407 394 412 315 C412 311 410 309 406 309 L124 309 C137 406 186 461 271 461 L271 461 Z M501 171 C502 176 499 179 494 179 L423 179 C417 179 415 177 414 171 C398 95 352 55 276 55 C175 55 124 121 121 245 L502 245 C507 245 510 248 510 253 C507 424 420 527 270 527 C121 527 29 417 29 256 C29 99 115 -12 275 -12 C408 -12 485 65 501 171 L501 171 Z " />
<glyph glyph-name="eacute" unicode="&#xe9;" horiz-adv-x="538" d="M412 643 L392 702 C390 708 387 709 382 707 L165 604 C160 602 159 599 161 594 L175 559 C177 554 180 553 186 555 L407 632 C413 634 414 637 412 643 L412 643 Z M271 461 C360 461 407 394 412 315 C412 311 410 309 406 309 L124 309 C137 406 186 461 271 461 L271 461 Z M501 171 C502 176 499 179 494 179 L423 179 C417 179 415 177 414 171 C398 95 352 55 276 55 C175 55 124 121 121 245 L502 245 C507 245 510 248 510 253 C507 424 420 527 270 527 C121 527 29 417 29 256 C29 99 115 -12 275 -12 C408 -12 485 65 501 171 L501 171 Z " />
<glyph glyph-name="ecircumflex" unicode="&#xea;" horiz-adv-x="538" d="M417 559 L431 595 C433 600 432 603 427 606 L296 696 C291 699 287 700 281 700 L258 700 C252 700 248 699 243 696 L111 606 C106 603 105 600 107 595 L121 559 C123 554 126 553 131 556 L270 628 L407 556 C412 553 415 554 417 559 L417 559 Z M271 461 C360 461 407 394 412 315 C412 311 410 309 406 309 L124 309 C137 406 186 461 271 461 L271 461 Z M501 171 C502 176 499 179 494 179 L423 179 C417 179 415 177 414 171 C398 95 352 55 276 55 C175 55 124 121 121 245 L502 245 C507 245 510 248 510 253 C507 424 420 527 270 527 C121 527 29 417 29 256 C29 99 115 -12 275 -12 C408 -12 485 65 501 171 L501 171 Z " />
<glyph glyph-name="edieresis" unicode="&#xeb;" horiz-adv-x="538" d="M380 575 C386 575 388 577 388 583 L388 666 C388 672 386 674 380 674 L317 674 C311 674 309 672 309 666 L309 583 C309 577 311 575 317 575 L380 575 Z M221 575 C227 575 229 577 229 583 L229 666 C229 672 227 674 221 674 L159 674 C153 674 151 672 151 666 L151 583 C151 577 153 575 159 575 L221 575 Z M271 461 C360 461 407 394 412 315 C412 311 410 309 406 309 L124 309 C137 406 186 461 271 461 L271 461 Z M501 171 C502 176 499 179 494 179 L423 179 C417 179 415 177 414 171 C398 95 352 55 276 55 C175 55 124 121 121 245 L502 245 C507 245 510 248 510 253 C507 424 420 527 270 527 C121 527 29 417 29 256 C29 99 115 -12 275 -12 C408 -12 485 65 501 171 L501 171 Z " />
<glyph glyph-name="igrave" unicode="&#xec;" horiz-adv-x="198" d="M196 604 L-21 707 C-26 709 -29 708 -31 702 L-51 643 C-53 637 -52 634 -46 632 L175 555 C181 553 184 554 186 559 L200 594 C202 599 201 602 196 604 L196 604 Z M146 8 L143 266 L146 507 C146 513 144 515 138 515 L60 515 C54 515 52 513 52 507 L55 265 L52 8 C52 2 54 0 60 0 L138 0 C144 0 146 2 146 8 L146 8 Z " />
<glyph glyph-name="iacute" unicode="&#xed;" horiz-adv-x="198" d="M241 643 L221 702 C219 708 216 709 211 707 L-6 604 C-11 602 -12 599 -10 594 L4 559 C6 554 9 553 15 555 L236 632 C242 634 243 637 241 643 L241 643 Z M146 8 L143 266 L146 507 C146 513 144 515 138 515 L60 515 C54 515 52 513 52 507 L55 265 L52 8 C52 2 54 0 60 0 L138 0 C144 0 146 2 146 8 L146 8 Z " />
<glyph glyph-name="icircumflex" unicode="&#xee;" horiz-adv-x="198" d="M247 559 L261 595 C263 600 262 603 257 606 L126 696 C121 699 117 700 111 700 L88 700 C82 700 78 699 73 696 L-59 606 C-64 603 -65 600 -63 595 L-49 559 C-47 554 -44 553 -39 556 L100 628 L237 556 C242 553 245 554 247 559 L247 559 Z M146 8 L143 266 L146 507 C146 513 144 515 138 515 L60 515 C54 515 52 513 52 507 L55 265 L52 8 C52 2 54 0 60 0 L138 0 C144 0 146 2 146 8 L146 8 Z " />
<glyph glyph-name="idieresis" unicode="&#xef;" horiz-adv-x="198" d="M210 575 C216 575 218 577 218 583 L218 666 C218 672 216 674 210 674 L147 674 C141 674 139 672 139 666 L139 583 C139 577 141 575 147 575 L210 575 Z M51 575 C57 575 59 577 59 583 L59 666 C59 672 57 674 51 674 L-11 674 C-17 674 -19 672 -19 666 L-19 583 C-19 577 -17 575 -11 575 L51 575 Z M146 8 L143 266 L146 507 C146 513 144 515 138 515 L60 515 C54 515 52 513 52 507 L55 265 L52 8 C52 2 54 0 60 0 L138 0 C144 0 146 2 146 8 L146 8 Z " />
<glyph glyph-name="eth" unicode="&#xf0;" horiz-adv-x="561" d="M522 303 C522 422 485 515 421 586 C418 588 419 591 422 593 L518 639 C523 642 524 645 522 650 L501 695 C499 700 496 701 491 698 L371 639 C368 637 365 637 361 640 C316 673 264 699 207 719 C201 721 198 720 195 715 L168 668 C165 663 167 660 172 659 C212 645 250 626 285 602 C288 600 288 598 285 596 L187 548 C182 545 181 542 183 537 L204 493 C206 488 209 487 214 490 L338 550 C341 552 344 552 347 549 C392 500 422 439 426 370 C426 367 425 367 423 369 C389 425 332 457 256 457 C126 457 38 365 38 222 C38 86 137 -13 274 -13 C429 -13 522 101 522 303 L522 303 Z M135 217 C136 318 183 385 274 385 C365 385 420 323 420 221 C420 129 368 61 278 61 C187 61 135 120 135 217 L135 217 Z " />
<glyph glyph-name="ntilde" unicode="&#xf1;" horiz-adv-x="525" d="M405 678 C405 683 403 686 397 686 L362 686 C357 686 354 684 354 678 C353 646 343 624 318 624 C284 624 269 690 209 690 C153 690 127 642 125 579 C125 574 127 571 133 571 L168 571 C173 571 176 573 176 579 C177 611 187 632 210 632 C248 632 259 566 321 566 C377 566 403 611 405 678 L405 678 Z M134 0 C140 0 142 2 142 8 L140 220 L140 292 C140 296 141 301 141 304 C162 402 216 454 282 454 C347 454 391 412 391 319 L391 220 L389 8 C389 2 391 0 397 0 L474 0 C480 0 482 2 482 8 L479 220 L479 323 C479 457 413 527 307 527 C228 527 171 483 139 433 C138 431 136 431 136 434 L138 507 C138 512 135 515 130 515 L57 515 C51 515 49 513 49 507 L52 235 L48 8 C48 3 51 0 56 0 L134 0 Z " />
<glyph glyph-name="ograve" unicode="&#xf2;" horiz-adv-x="547" d="M369 604 L152 707 C147 709 144 708 142 702 L122 643 C120 637 121 634 127 632 L348 555 C354 553 357 554 359 559 L373 594 C375 599 374 602 369 604 L369 604 Z M518 258 C518 420 431 527 274 527 C118 527 30 419 30 256 C30 94 118 -12 274 -12 C431 -12 518 96 518 258 L518 258 Z M123 256 C123 385 172 459 274 460 C374 460 424 385 424 256 C424 127 375 55 274 55 C173 55 123 127 123 256 L123 256 Z " />
<glyph glyph-name="oacute" unicode="&#xf3;" horiz-adv-x="547" d="M414 643 L394 702 C392 708 389 709 384 707 L167 604 C162 602 161 599 163 594 L177 559 C179 554 182 553 188 555 L409 632 C415 634 416 637 414 643 L414 643 Z M518 258 C518 420 431 527 274 527 C118 527 30 419 30 256 C30 94 118 -12 274 -12 C431 -12 518 96 518 258 L518 258 Z M123 256 C123 385 172 459 274 460 C374 460 424 385 424 256 C424 127 375 55 274 55 C173 55 123 127 123 256 L123 256 Z " />
<glyph glyph-name="ocircumflex" unicode="&#xf4;" horiz-adv-x="547" d="M419 559 L433 595 C435 600 434 603 429 606 L298 696 C293 699 289 700 283 700 L260 700 C254 700 250 699 245 696 L113 606 C108 603 107 600 109 595 L123 559 C125 554 128 553 133 556 L272 628 L409 556 C414 553 417 554 419 559 L419 559 Z M518 258 C518 420 431 527 274 527 C118 527 30 419 30 256 C30 94 118 -12 274 -12 C431 -12 518 96 518 258 L518 258 Z M123 256 C123 385 172 459 274 460 C374 460 424 385 424 256 C424 127 375 55 274 55 C173 55 123 127 123 256 L123 256 Z " />
<glyph glyph-name="otilde" unicode="&#xf5;" horiz-adv-x="547" d="M412 678 C412 683 410 686 404 686 L369 686 C364 686 361 684 361 678 C360 646 350 624 325 624 C291 624 276 690 216 690 C160 690 134 642 132 579 C132 574 134 571 140 571 L175 571 C180 571 183 573 183 579 C184 611 194 632 217 632 C255 632 266 566 328 566 C384 566 410 611 412 678 L412 678 Z M518 258 C518 420 431 527 274 527 C118 527 30 419 30 256 C30 94 118 -12 274 -12 C431 -12 518 96 518 258 L518 258 Z M123 256 C123 385 172 459 274 460 C374 460 424 385 424 256 C424 127 375 55 274 55 C173 55 123 127 123 256 L123 256 Z " />
<glyph glyph-name="odieresis" unicode="&#xf6;" horiz-adv-x="547" d="M231 583 L231 666 C231 672 229 674 223 674 L161 674 C155 674 153 672 153 666 L153 583 C153 577 155 575 161 575 L223 575 C229 575 231 577 231 583 L231 583 Z M390 583 L390 666 C390 672 388 674 382 674 L319 674 C313 674 311 672 311 666 L311 583 C311 577 313 575 319 575 L382 575 C388 575 390 577 390 583 L390 583 Z M518 258 C518 420 431 527 274 527 C118 527 30 419 30 256 C30 94 118 -12 274 -12 C431 -12 518 96 518 258 L518 258 Z M123 256 C123 385 172 459 274 460 C374 460 424 385 424 256 C424 127 375 55 274 55 C173 55 123 127 123 256 L123 256 Z " />
<glyph glyph-name="divide" unicode="&#xf7;" horiz-adv-x="503" d="M300 512 L300 601 C300 607 298 609 292 609 L207 609 C201 609 199 607 199 601 L199 512 C199 506 201 504 207 504 L292 504 C298 504 300 506 300 512 L300 512 Z M476 315 L476 374 C476 380 474 382 468 382 L34 382 C28 382 26 380 26 374 L26 315 C26 309 28 307 34 307 L468 307 C474 307 476 309 476 315 L476 315 Z M300 95 L300 184 C300 190 298 192 292 192 L207 192 C201 192 199 190 199 184 L199 95 C199 89 201 87 207 87 L292 87 C298 87 300 89 300 95 L300 95 Z " />
<glyph glyph-name="oslash" unicode="&#xf8;" horiz-adv-x="547" d="M123 256 C123 385 172 459 274 460 C316 460 349 447 374 422 L141 142 C129 173 123 211 123 256 L123 256 Z M274 55 C230 55 196 69 171 94 L404 375 C417 343 424 303 424 256 C424 127 375 55 274 55 L274 55 Z M76 -31 L127 31 C166 3 215 -12 274 -12 C431 -12 518 96 518 258 C518 332 500 395 465 441 L516 503 C519 507 519 511 515 515 L481 548 C477 552 473 552 470 548 L419 485 C381 512 332 527 274 527 C118 527 30 419 30 256 C30 183 48 122 81 76 L31 14 C28 10 28 6 32 2 L65 -31 C69 -35 73 -35 76 -31 L76 -31 Z " />
<glyph glyph-name="ugrave" unicode="&#xf9;" horiz-adv-x="525" d="M357 604 L140 707 C135 709 132 708 130 702 L110 643 C108 637 109 634 115 632 L336 555 C342 553 345 554 347 559 L361 594 C363 599 362 602 357 604 L357 604 Z M387 83 C388 85 390 85 390 82 L387 8 C387 3 390 0 395 0 L468 0 C474 0 476 2 476 8 L474 280 L477 507 C477 513 475 515 469 515 L392 515 C386 515 384 513 384 507 L385 295 L385 223 C385 219 384 214 384 211 C363 113 310 61 243 61 C179 61 134 103 134 196 L134 295 L136 507 C136 513 134 515 128 515 L52 515 C46 515 44 513 44 507 L46 295 L46 193 C46 58 112 -12 218 -12 C297 -12 354 32 387 83 L387 83 Z " />
<glyph glyph-name="uacute" unicode="&#xfa;" horiz-adv-x="525" d="M402 643 L382 702 C380 708 377 709 372 707 L155 604 C150 602 149 599 151 594 L165 559 C167 554 170 553 176 555 L397 632 C403 634 404 637 402 643 L402 643 Z M387 83 C388 85 390 85 390 82 L387 8 C387 3 390 0 395 0 L468 0 C474 0 476 2 476 8 L474 280 L477 507 C477 513 475 515 469 515 L392 515 C386 515 384 513 384 507 L385 295 L385 223 C385 219 384 214 384 211 C363 113 310 61 243 61 C179 61 134 103 134 196 L134 295 L136 507 C136 513 134 515 128 515 L52 515 C46 515 44 513 44 507 L46 295 L46 193 C46 58 112 -12 218 -12 C297 -12 354 32 387 83 L387 83 Z " />
<glyph glyph-name="ucircumflex" unicode="&#xfb;" horiz-adv-x="525" d="M407 559 L421 595 C423 600 422 603 417 606 L286 696 C281 699 277 700 271 700 L248 700 C242 700 238 699 233 696 L101 606 C96 603 95 600 97 595 L111 559 C113 554 116 553 121 556 L260 628 L397 556 C402 553 405 554 407 559 L407 559 Z M387 83 C388 85 390 85 390 82 L387 8 C387 3 390 0 395 0 L468 0 C474 0 476 2 476 8 L474 280 L477 507 C477 513 475 515 469 515 L392 515 C386 515 384 513 384 507 L385 295 L385 223 C385 219 384 214 384 211 C363 113 310 61 243 61 C179 61 134 103 134 196 L134 295 L136 507 C136 513 134 515 128 515 L52 515 C46 515 44 513 44 507 L46 295 L46 193 C46 58 112 -12 218 -12 C297 -12 354 32 387 83 L387 83 Z " />
<glyph glyph-name="udieresis" unicode="&#xfc;" horiz-adv-x="525" d="M370 575 C376 575 378 577 378 583 L378 666 C378 672 376 674 370 674 L307 674 C301 674 299 672 299 666 L299 583 C299 577 301 575 307 575 L370 575 Z M211 575 C217 575 219 577 219 583 L219 666 C219 672 217 674 211 674 L149 674 C143 674 141 672 141 666 L141 583 C141 577 143 575 149 575 L211 575 Z M387 83 C388 85 390 85 390 82 L387 8 C387 3 390 0 395 0 L468 0 C474 0 476 2 476 8 L474 280 L477 507 C477 513 475 515 469 515 L392 515 C386 515 384 513 384 507 L385 295 L385 223 C385 219 384 214 384 211 C363 113 310 61 243 61 C179 61 134 103 134 196 L134 295 L136 507 C136 513 134 515 128 515 L52 515 C46 515 44 513 44 507 L46 295 L46 193 C46 58 112 -12 218 -12 C297 -12 354 32 387 83 L387 83 Z " />
<glyph glyph-name="yacute" unicode="&#xfd;" horiz-adv-x="474" d="M376 643 L356 702 C354 708 351 709 346 707 L129 604 C124 602 123 599 125 594 L139 559 C141 554 144 553 150 555 L371 632 C377 634 378 637 376 643 L376 643 Z M227 -170 C233 -170 236 -168 238 -162 L470 507 C472 512 470 515 465 515 L387 515 C381 515 378 513 377 507 L253 118 L107 508 C105 513 102 515 96 515 L9 515 C4 515 2 512 4 508 L206 -1 L151 -162 C149 -167 151 -170 156 -170 L227 -170 Z " />
<glyph glyph-name="thorn" unicode="&#xfe;" horiz-adv-x="546" d="M135 262 C136 391 190 458 279 458 C377 458 423 375 423 252 C423 137 376 57 277 57 C186 57 134 132 135 262 L135 262 Z M515 259 C515 409 441 525 302 525 C230 525 175 492 140 436 C139 434 137 434 137 437 L140 692 C140 698 138 700 132 700 L55 700 C49 700 47 698 47 692 L51 257 L47 -162 C47 -168 49 -170 55 -170 L134 -170 C140 -170 142 -168 142 -162 L140 69 C140 72 142 72 143 70 C177 18 231 -10 300 -10 C436 -10 515 110 515 259 L515 259 Z " />
<glyph glyph-name="ydieresis" unicode="&#xff;" horiz-adv-x="474" d="M344 575 C350 575 352 577 352 583 L352 666 C352 672 350 674 344 674 L281 674 C275 674 273 672 273 666 L273 583 C273 577 275 575 281 575 L344 575 Z M185 575 C191 575 193 577 193 583 L193 666 C193 672 191 674 185 674 L123 674 C117 674 115 672 115 666 L115 583 C115 577 117 575 123 575 L185 575 Z M227 -170 C233 -170 236 -168 238 -162 L470 507 C472 512 470 515 465 515 L387 515 C381 515 378 513 377 507 L253 118 L107 508 C105 513 102 515 96 515 L9 515 C4 515 2 512 4 508 L206 -1 L151 -162 C149 -167 151 -170 156 -170 L227 -170 Z " />
<glyph glyph-name="Amacron" unicode="&#x100;" horiz-adv-x="629" d="M459 776 L459 829 C459 835 457 837 451 837 L170 837 C164 837 162 835 162 829 L162 776 C162 770 164 768 170 768 L451 768 C457 768 459 770 459 776 L459 776 Z M197 294 L309 626 C310 629 312 629 313 626 L427 294 C428 290 427 288 423 288 L201 288 C197 288 196 290 197 294 L197 294 Z M622 8 L380 692 C378 698 375 700 369 700 L263 700 C257 700 254 698 252 692 L7 8 C5 3 7 0 12 0 L90 0 C96 0 99 2 101 8 L166 203 C167 207 170 209 174 209 L450 209 C454 209 457 207 458 203 L525 8 C527 2 530 0 536 0 L617 0 C622 0 624 3 622 8 L622 8 Z " />
<glyph glyph-name="amacron" unicode="&#x101;" horiz-adv-x="544" d="M403 583 C409 583 411 585 411 591 L411 644 C411 650 409 652 403 652 L122 652 C116 652 114 650 114 644 L114 591 C114 585 116 583 122 583 L403 583 Z M122 263 C122 376 166 454 259 457 C264 457 274 457 278 457 C362 451 410 378 409 253 C408 124 354 58 265 58 C168 58 122 141 122 263 L122 263 Z M405 8 C405 3 408 0 413 0 L489 0 C495 0 497 2 497 8 L493 262 L497 507 C497 513 495 515 489 515 L412 515 C407 515 404 512 404 507 L406 436 C372 493 316 524 244 524 C108 524 29 404 29 256 C29 107 103 -9 242 -9 C317 -9 372 26 407 83 L405 8 Z " />
<glyph glyph-name="Abreve" unicode="&#x102;" horiz-adv-x="629" d="M452 876 C452 881 450 884 444 884 L397 884 C392 884 389 882 389 876 C385 837 357 811 311 811 C263 811 237 838 233 876 C233 882 230 884 225 884 L178 884 C172 884 170 881 170 876 C174 801 228 745 311 745 C394 745 448 801 452 876 L452 876 Z M429 288 L195 288 L311 632 L429 288 Z M101 8 L168 209 L456 209 L525 8 C527 2 530 0 536 0 L617 0 C622 0 624 3 622 8 L380 692 C378 698 375 700 369 700 L263 700 C257 700 254 698 252 692 L7 8 C5 3 7 0 12 0 L90 0 C96 0 99 2 101 8 L101 8 Z " />
<glyph glyph-name="abreve" unicode="&#x103;" horiz-adv-x="544" d="M395 699 L348 699 C343 699 340 697 340 691 C336 652 308 626 262 626 C214 626 188 653 184 691 C184 697 181 699 176 699 L129 699 C123 699 121 696 121 691 C125 616 179 560 262 560 C345 560 399 616 403 691 C403 696 401 699 395 699 L395 699 Z M259 457 C264 457 274 457 278 457 C362 451 410 378 409 253 C408 124 354 58 265 58 C168 58 122 141 122 263 C122 376 166 454 259 457 L259 457 Z M497 8 L493 262 L497 507 C497 513 495 515 489 515 L412 515 C407 515 404 512 404 507 L406 442 C406 439 404 439 403 441 C369 495 314 524 244 524 C108 524 29 404 29 256 C29 107 103 -9 242 -9 C315 -9 369 24 404 78 C405 80 407 80 407 77 L405 8 C405 3 408 0 413 0 L489 0 C495 0 497 2 497 8 L497 8 Z " />
<glyph glyph-name="Aogonek" unicode="&#x104;" horiz-adv-x="629" d="M197 294 L309 626 C310 629 312 629 313 626 L427 294 C428 290 427 288 423 288 L201 288 C197 288 196 290 197 294 L197 294 Z M641 -184 L641 -134 C641 -128 639 -126 633 -126 L590 -126 C555 -126 530 -111 530 -78 C530 -45 559 -17 579 -4 C581 -3 582 -1 583 0 L617 0 C622 0 624 3 622 8 L380 692 C378 698 375 700 369 700 L263 700 C257 700 254 698 252 692 L7 8 C5 3 7 0 12 0 L90 0 C96 0 99 2 101 8 L166 203 C167 207 170 209 174 209 L450 209 C454 209 457 207 458 203 L525 8 L526 7 C487 -15 458 -49 458 -96 C458 -154 509 -192 583 -192 L633 -192 C639 -192 641 -190 641 -184 L641 -184 Z " />
<glyph glyph-name="aogonek" unicode="&#x105;" horiz-adv-x="544" d="M259 457 C264 457 274 457 278 457 C362 451 410 378 409 253 C408 124 354 58 265 58 C168 58 122 141 122 263 C122 376 166 454 259 457 L259 457 Z M524 -184 L524 -134 C524 -128 522 -126 516 -126 L473 -126 C438 -126 413 -111 413 -78 C413 -45 442 -17 462 -4 C464 -3 465 -1 466 0 L489 0 C495 0 497 2 497 8 L493 262 L497 507 C497 513 495 515 489 515 L412 515 C407 515 404 512 404 507 L406 442 C406 439 404 439 403 441 C369 495 314 524 244 524 C108 524 29 404 29 256 C29 107 103 -9 242 -9 C315 -9 369 24 404 78 C405 80 407 80 407 77 L405 8 L406 5 C369 -17 341 -50 341 -96 C341 -154 392 -192 466 -192 L516 -192 C522 -192 524 -190 524 -184 L524 -184 Z " />
<glyph glyph-name="Cacute" unicode="&#x106;" horiz-adv-x="682" d="M484 817 C490 819 491 822 489 828 L469 887 C467 893 464 894 459 892 L242 789 C237 787 236 784 238 779 L252 744 C254 739 257 738 263 740 L484 817 Z M656 248 C657 253 654 256 649 256 L571 256 C565 256 563 254 562 248 C549 128 472 64 356 64 C214 64 128 162 128 351 C128 523 210 636 357 636 C460 636 537 583 559 467 C560 461 562 459 568 459 L644 459 C649 459 652 462 651 467 C618 649 498 713 358 713 C157 713 32 572 32 351 C32 125 154 -13 358 -13 C519 -13 630 70 656 248 L656 248 Z " />
<glyph glyph-name="cacute" unicode="&#x107;" horiz-adv-x="519" d="M407 643 L387 702 C385 708 382 709 377 707 L160 604 C155 602 154 599 156 594 L170 559 C172 554 175 553 181 555 L402 632 C408 634 409 637 407 643 L407 643 Z M495 186 C496 191 493 194 488 194 L419 194 C413 194 411 192 410 186 C402 101 349 55 272 55 C171 56 123 126 123 257 C123 385 171 459 272 459 C340 459 392 422 405 345 C406 339 408 337 414 337 L482 337 C487 337 490 340 489 345 C478 454 400 527 272 527 C116 527 29 418 29 256 C29 94 116 -12 270 -12 C403 -12 485 71 495 186 L495 186 Z " />
<glyph glyph-name="Ccircumflex" unicode="&#x108;" horiz-adv-x="682" d="M504 791 L373 881 C368 884 364 885 358 885 L335 885 C329 885 325 884 320 881 L188 791 C183 788 182 785 184 780 L198 744 C200 739 203 738 208 741 L342 810 C346 812 348 812 352 810 L484 741 C489 738 492 739 494 744 L508 780 C510 785 509 788 504 791 L504 791 Z M649 256 L571 256 C565 256 563 254 562 248 C549 128 472 64 356 64 C214 64 128 162 128 351 C128 523 210 636 357 636 C460 636 537 583 559 467 C560 461 562 459 568 459 L644 459 C649 459 652 462 651 467 C618 649 498 713 358 713 C157 713 32 572 32 351 C32 125 154 -13 358 -13 C519 -13 630 70 656 248 C657 253 654 256 649 256 L649 256 Z " />
<glyph glyph-name="ccircumflex" unicode="&#x109;" horiz-adv-x="519" d="M412 559 L426 595 C428 600 427 603 422 606 L291 696 C286 699 282 700 276 700 L253 700 C247 700 243 699 238 696 L106 606 C101 603 100 600 102 595 L116 559 C118 554 121 553 126 556 L265 628 L402 556 C407 553 410 554 412 559 L412 559 Z M495 186 C496 191 493 194 488 194 L419 194 C413 194 411 192 410 186 C402 101 349 55 272 55 C171 56 123 126 123 257 C123 385 171 459 272 459 C340 459 392 422 405 345 C406 339 408 337 414 337 L482 337 C487 337 490 340 489 345 C478 454 400 527 272 527 C116 527 29 418 29 256 C29 94 116 -12 270 -12 C403 -12 485 71 495 186 L495 186 Z " />
<glyph glyph-name="Cdotaccent" unicode="&#x10a;" horiz-adv-x="682" d="M385 755 C391 755 393 757 393 763 L393 846 C393 852 391 854 385 854 L308 854 C302 854 300 852 300 846 L300 763 C300 757 302 755 308 755 L385 755 Z M656 248 C657 253 654 256 649 256 L571 256 C565 256 563 254 562 248 C549 128 472 64 356 64 C214 64 128 162 128 351 C128 523 210 636 357 636 C460 636 537 583 559 467 C560 461 562 459 568 459 L644 459 C649 459 652 462 651 467 C618 649 498 713 358 713 C157 713 32 572 32 351 C32 125 154 -13 358 -13 C519 -13 630 70 656 248 L656 248 Z " />
<glyph glyph-name="cdotaccent" unicode="&#x10b;" horiz-adv-x="519" d="M311 578 L311 661 C311 667 309 669 303 669 L226 669 C220 669 218 667 218 661 L218 578 C218 572 220 570 226 570 L303 570 C309 570 311 572 311 578 L311 578 Z M495 186 C496 191 493 194 488 194 L419 194 C413 194 411 192 410 186 C402 101 349 55 272 55 C171 56 123 126 123 257 C123 385 171 459 272 459 C340 459 392 422 405 345 C406 339 408 337 414 337 L482 337 C487 337 490 340 489 345 C478 454 400 527 272 527 C116 527 29 418 29 256 C29 94 116 -12 270 -12 C403 -12 485 71 495 186 L495 186 Z " />
<glyph glyph-name="Ccaron" unicode="&#x10c;" horiz-adv-x="682" d="M508 851 L494 887 C492 892 489 893 484 890 L351 821 C347 819 345 819 341 821 L208 890 C203 893 200 892 198 887 L184 851 C182 846 183 843 188 840 L320 750 C325 747 329 746 335 746 L358 746 C364 746 368 747 373 750 L504 840 C509 843 510 846 508 851 L508 851 Z M656 248 C657 253 654 256 649 256 L571 256 C565 256 563 254 562 248 C549 128 472 64 356 64 C214 64 128 162 128 351 C128 523 210 636 357 636 C460 636 537 583 559 467 C560 461 562 459 568 459 L644 459 C649 459 652 462 651 467 C618 649 498 713 358 713 C157 713 32 572 32 351 C32 125 154 -13 358 -13 C519 -13 630 70 656 248 L656 248 Z " />
<glyph glyph-name="ccaron" unicode="&#x10d;" horiz-adv-x="519" d="M276 561 C282 561 286 562 291 565 L422 655 C427 658 428 661 426 666 L412 702 C410 707 407 708 402 705 L264 633 L264 633 L126 705 C121 708 118 707 116 702 L102 666 C100 661 101 658 106 655 L238 565 C243 562 247 561 253 561 L276 561 Z M495 186 C496 191 493 194 488 194 L419 194 C413 194 411 192 410 186 C402 101 349 55 272 55 C171 56 123 126 123 257 C123 385 171 459 272 459 C340 459 392 422 405 345 C406 339 408 337 414 337 L482 337 C487 337 490 340 489 345 C478 454 400 527 272 527 C116 527 29 418 29 256 C29 94 116 -12 270 -12 C403 -12 485 71 495 186 L495 186 Z " />
<glyph glyph-name="Dcaron" unicode="&#x10e;" horiz-adv-x="670" d="M502 851 L488 887 C486 892 483 893 478 890 L345 821 C341 819 339 819 335 821 L202 890 C197 893 194 892 192 887 L178 851 C176 846 177 843 182 840 L314 750 C319 747 323 746 329 746 L352 746 C358 746 362 747 367 750 L498 840 C503 843 504 846 502 851 L502 851 Z M287 0 C474 0 639 111 639 350 C639 579 486 700 285 700 L62 700 C56 700 54 698 54 692 L58 359 L54 8 C54 2 56 0 62 0 L287 0 Z M147 361 C147 418 150 585 151 619 C151 623 153 625 157 625 L291 625 C429 625 543 535 543 350 C543 156 418 75 295 75 L157 75 C153 75 151 77 151 81 C150 117 147 302 147 361 L147 361 Z " />
<glyph glyph-name="dcaron" unicode="&#x10f;" horiz-adv-x="544" d="M648 725 C649 730 647 733 642 733 L579 733 C573 733 571 731 570 725 L533 533 C532 528 535 525 540 525 L585 525 C591 525 594 527 595 533 L648 725 Z M122 263 C122 379 168 461 267 460 C358 459 410 383 409 253 C408 122 353 56 265 56 C168 56 122 139 122 263 L122 263 Z M404 8 C404 3 407 0 412 0 L489 0 C495 0 497 2 497 8 L494 388 L497 692 C497 698 495 700 489 700 L412 700 C406 700 404 698 404 692 L406 438 C371 495 316 525 244 525 C108 525 29 405 29 256 C29 106 103 -10 242 -10 C316 -10 372 24 406 82 L404 8 Z " />
<glyph glyph-name="Dcroat" unicode="&#x110;" horiz-adv-x="682" d="M292 0 C479 0 644 111 644 350 C644 579 491 700 290 700 L67 700 C61 700 59 698 59 692 L62 408 L1 408 C-5 408 -7 406 -7 400 L-7 339 C-7 333 -5 331 1 331 L63 331 L59 8 C59 2 61 0 67 0 L292 0 Z M162 75 C158 75 156 77 156 81 C155 112 153 255 152 331 L345 331 C351 331 353 333 353 339 L353 400 C353 406 351 408 345 408 L152 408 C153 481 155 592 156 619 C156 623 158 625 162 625 L296 625 C434 625 548 535 548 350 C548 156 423 75 300 75 L162 75 Z " />
<glyph glyph-name="dcroat" unicode="&#x111;" horiz-adv-x="546" d="M127 263 C127 379 173 461 272 460 C363 459 415 383 414 253 C413 122 358 56 270 56 C173 56 127 139 127 263 L127 263 Z M409 8 C409 3 412 0 417 0 L494 0 C500 0 502 2 502 8 L499 388 L501 568 L556 568 C562 568 564 570 564 576 L564 629 C564 635 562 637 556 637 L501 637 L502 692 C502 698 500 700 494 700 L417 700 C411 700 409 698 409 692 L409 637 L259 637 C253 637 251 635 251 629 L251 576 C251 570 253 568 259 568 L410 568 L411 438 C376 495 321 525 249 525 C113 525 34 405 34 256 C34 106 108 -10 247 -10 C321 -10 377 24 411 82 L409 8 Z " />
<glyph glyph-name="Emacron" unicode="&#x112;" horiz-adv-x="535" d="M435 768 C441 768 443 770 443 776 L443 829 C443 835 441 837 435 837 L154 837 C148 837 146 835 146 829 L146 776 C146 770 148 768 154 768 L435 768 Z M503 8 L503 67 C503 73 501 75 495 75 L156 75 C152 75 150 77 150 81 L145 330 C145 334 147 336 151 336 L463 336 C469 336 471 338 471 344 L471 403 C471 409 469 411 463 411 L151 411 C147 411 145 413 145 417 L150 619 C150 623 152 625 156 625 L487 625 C493 625 495 627 495 633 L495 692 C495 698 493 700 487 700 L61 700 C55 700 53 698 53 692 L58 361 L53 8 C53 2 55 0 61 0 L495 0 C501 0 503 2 503 8 L503 8 Z " />
<glyph glyph-name="emacron" unicode="&#x113;" horiz-adv-x="538" d="M418 591 L418 644 C418 650 416 652 410 652 L129 652 C123 652 121 650 121 644 L121 591 C121 585 123 583 129 583 L410 583 C416 583 418 585 418 591 L418 591 Z M271 461 C360 461 407 394 412 315 C412 311 410 309 406 309 L124 309 C137 406 186 461 271 461 L271 461 Z M501 171 C502 176 499 179 494 179 L423 179 C417 179 415 177 414 171 C398 95 352 55 276 55 C175 55 124 121 121 245 L502 245 C507 245 510 248 510 253 C507 424 420 527 270 527 C121 527 29 417 29 256 C29 99 115 -12 275 -12 C408 -12 485 65 501 171 L501 171 Z " />
<glyph glyph-name="Ebreve" unicode="&#x114;" horiz-adv-x="535" d="M428 884 L381 884 C376 884 373 882 373 876 C369 837 341 811 295 811 C247 811 221 838 217 876 C217 882 214 884 209 884 L162 884 C156 884 154 881 154 876 C158 801 212 745 295 745 C378 745 432 801 436 876 C436 881 434 884 428 884 L428 884 Z M503 8 L503 67 C503 73 501 75 495 75 L156 75 C152 75 150 77 150 81 L145 330 C145 334 147 336 151 336 L463 336 C469 336 471 338 471 344 L471 403 C471 409 469 411 463 411 L151 411 C147 411 145 413 145 417 L150 619 C150 623 152 625 156 625 L487 625 C493 625 495 627 495 633 L495 692 C495 698 493 700 487 700 L61 700 C55 700 53 698 53 692 L58 361 L53 8 C53 2 55 0 61 0 L495 0 C501 0 503 2 503 8 L503 8 Z " />
<glyph glyph-name="ebreve" unicode="&#x115;" horiz-adv-x="538" d="M403 699 L356 699 C351 699 348 697 348 691 C344 652 316 626 270 626 C222 626 196 653 192 691 C192 697 189 699 184 699 L137 699 C131 699 129 696 129 691 C133 616 187 560 270 560 C353 560 407 616 411 691 C411 696 409 699 403 699 L403 699 Z M271 461 C360 461 407 394 412 315 C412 311 410 309 406 309 L124 309 C137 406 186 461 271 461 L271 461 Z M501 171 C502 176 499 179 494 179 L423 179 C417 179 415 177 414 171 C398 95 352 55 276 55 C175 55 124 121 121 245 L502 245 C507 245 510 248 510 253 C507 424 420 527 270 527 C121 527 29 417 29 256 C29 99 115 -12 275 -12 C408 -12 485 65 501 171 L501 171 Z " />
<glyph glyph-name="Edotaccent" unicode="&#x116;" horiz-adv-x="535" d="M333 755 C339 755 341 757 341 763 L341 846 C341 852 339 854 333 854 L256 854 C250 854 248 852 248 846 L248 763 C248 757 250 755 256 755 L333 755 Z M495 0 C501 0 503 2 503 8 L503 67 C503 73 501 75 495 75 L156 75 C152 75 150 77 150 81 L145 330 C145 334 147 336 151 336 L463 336 C469 336 471 338 471 344 L471 403 C471 409 469 411 463 411 L151 411 C147 411 145 413 145 417 L150 619 C150 623 152 625 156 625 L487 625 C493 625 495 627 495 633 L495 692 C495 698 493 700 487 700 L61 700 C55 700 53 698 53 692 L58 361 L53 8 C53 2 55 0 61 0 L495 0 Z " />
<glyph glyph-name="edotaccent" unicode="&#x117;" horiz-adv-x="538" d="M316 578 L316 661 C316 667 314 669 308 669 L231 669 C225 669 223 667 223 661 L223 578 C223 572 225 570 231 570 L308 570 C314 570 316 572 316 578 L316 578 Z M271 461 C360 461 407 394 412 315 C412 311 410 309 406 309 L124 309 C137 406 186 461 271 461 L271 461 Z M501 171 C502 176 499 179 494 179 L423 179 C417 179 415 177 414 171 C398 95 352 55 276 55 C175 55 124 121 121 245 L502 245 C507 245 510 248 510 253 C507 424 420 527 270 527 C121 527 29 417 29 256 C29 99 115 -12 275 -12 C408 -12 485 65 501 171 L501 171 Z " />
<glyph glyph-name="Eogonek" unicode="&#x118;" horiz-adv-x="535" d="M509 -184 L509 -134 C509 -128 507 -126 501 -126 L458 -126 C423 -126 398 -111 398 -78 C398 -45 427 -17 447 -4 C449 -3 450 -1 451 0 L495 0 C501 0 503 2 503 8 L503 67 C503 73 501 75 495 75 L156 75 C152 75 150 77 150 81 L145 330 C145 334 147 336 151 336 L463 336 C469 336 471 338 471 344 L471 403 C471 409 469 411 463 411 L151 411 C147 411 145 413 145 417 L150 619 C150 623 152 625 156 625 L487 625 C493 625 495 627 495 633 L495 692 C495 698 493 700 487 700 L61 700 C55 700 53 698 53 692 L58 361 L53 8 C53 2 55 0 61 0 L383 0 C350 -22 326 -54 326 -96 C326 -154 377 -192 451 -192 L501 -192 C507 -192 509 -190 509 -184 L509 -184 Z " />
<glyph glyph-name="eogonek" unicode="&#x119;" horiz-adv-x="538" d="M271 461 C360 461 407 394 412 315 C412 311 410 309 406 309 L124 309 C137 406 186 461 271 461 L271 461 Z M411 -184 L411 -134 C411 -128 409 -126 403 -126 L360 -126 C325 -126 300 -111 300 -78 C300 -45 329 -17 349 -4 L351 -2 C437 21 488 87 501 171 C502 176 499 179 494 179 L423 179 C417 179 415 177 414 171 C398 95 352 55 276 55 C175 55 124 121 121 245 L502 245 C507 245 510 248 510 253 C507 424 420 527 270 527 C121 527 29 417 29 256 C29 101 113 -9 269 -12 C244 -33 228 -61 228 -96 C228 -154 279 -192 353 -192 L403 -192 C409 -192 411 -190 411 -184 L411 -184 Z " />
<glyph glyph-name="Ecaron" unicode="&#x11a;" horiz-adv-x="535" d="M456 851 L442 887 C440 892 437 893 432 890 L299 821 C295 819 293 819 289 821 L156 890 C151 893 148 892 146 887 L132 851 C130 846 131 843 136 840 L268 750 C273 747 277 746 283 746 L306 746 C312 746 316 747 321 750 L452 840 C457 843 458 846 456 851 L456 851 Z M503 8 L503 67 C503 73 501 75 495 75 L156 75 C152 75 150 77 150 81 L145 330 C145 334 147 336 151 336 L463 336 C469 336 471 338 471 344 L471 403 C471 409 469 411 463 411 L151 411 C147 411 145 413 145 417 L150 619 C150 623 152 625 156 625 L487 625 C493 625 495 627 495 633 L495 692 C495 698 493 700 487 700 L61 700 C55 700 53 698 53 692 L58 361 L53 8 C53 2 55 0 61 0 L495 0 C501 0 503 2 503 8 L503 8 Z " />
<glyph glyph-name="ecaron" unicode="&#x11b;" horiz-adv-x="538" d="M431 666 L417 702 C415 707 412 708 407 705 L274 636 C270 634 268 634 264 636 L131 705 C126 708 123 707 121 702 L107 666 C105 661 106 658 111 655 L243 565 C248 562 252 561 258 561 L281 561 C287 561 291 562 296 565 L427 655 C432 658 433 661 431 666 L431 666 Z M271 461 C360 461 407 394 412 315 C412 311 410 309 406 309 L124 309 C137 406 186 461 271 461 L271 461 Z M501 171 C502 176 499 179 494 179 L423 179 C417 179 415 177 414 171 C398 95 352 55 276 55 C175 55 124 121 121 245 L502 245 C507 245 510 248 510 253 C507 424 420 527 270 527 C121 527 29 417 29 256 C29 99 115 -12 275 -12 C408 -12 485 65 501 171 L501 171 Z " />
<glyph glyph-name="Gcircumflex" unicode="&#x11c;" horiz-adv-x="694" d="M506 791 L375 881 C370 884 366 885 360 885 L337 885 C331 885 327 884 322 881 L190 791 C185 788 184 785 186 780 L200 744 C202 739 205 738 210 741 L344 810 C348 812 350 812 354 810 L486 741 C491 738 494 739 496 744 L510 780 C512 785 511 788 506 791 L506 791 Z M654 364 L353 364 C347 364 345 362 345 356 L345 298 C345 292 347 290 353 290 L558 290 C562 290 564 288 564 284 C561 148 487 63 355 63 C218 63 128 173 128 349 C128 527 215 637 351 637 C455 637 527 585 550 485 C552 479 554 477 560 477 L639 477 C644 477 646 480 645 485 C612 632 507 713 351 713 C163 713 32 573 32 350 C32 130 165 -13 352 -13 C555 -13 665 116 662 356 C662 361 660 364 654 364 L654 364 Z " />
<glyph glyph-name="gcircumflex" unicode="&#x11d;" horiz-adv-x="542" d="M408 559 L422 595 C424 600 423 603 418 606 L287 696 C282 699 278 700 272 700 L249 700 C243 700 239 699 234 696 L102 606 C97 603 96 600 98 595 L112 559 C114 554 117 553 122 556 L261 628 L398 556 C403 553 406 554 408 559 L408 559 Z M121 262 C121 378 167 454 259 457 C264 457 274 457 278 457 C362 451 410 378 409 255 C408 128 353 68 269 68 C171 67 121 138 121 262 L121 262 Z M266 -196 C413 -196 496 -113 495 35 L493 309 L495 507 C495 513 493 515 487 515 L412 515 C407 515 404 512 404 507 L407 434 C373 491 318 522 246 522 C107 522 29 404 29 259 C29 112 105 3 249 3 C321 3 376 37 409 94 L409 36 C409 -80 354 -130 267 -130 C195 -130 143 -100 134 -36 C133 -30 131 -28 125 -28 L51 -28 C46 -28 43 -31 43 -36 C52 -147 147 -198 266 -196 L266 -196 Z " />
<glyph glyph-name="Gbreve" unicode="&#x11e;" horiz-adv-x="694" d="M490 876 C490 881 488 884 482 884 L435 884 C430 884 427 882 427 876 C423 837 395 811 349 811 C301 811 275 838 271 876 C271 882 268 884 263 884 L216 884 C210 884 208 881 208 876 C212 801 266 745 349 745 C432 745 486 801 490 876 L490 876 Z M662 356 C662 361 660 364 654 364 L353 364 C347 364 345 362 345 356 L345 298 C345 292 347 290 353 290 L558 290 C562 290 564 288 564 284 C561 148 487 63 355 63 C218 63 128 173 128 349 C128 527 215 637 351 637 C455 637 527 585 550 485 C552 479 554 477 560 477 L639 477 C644 477 646 480 645 485 C612 632 507 713 351 713 C163 713 32 573 32 350 C32 130 165 -13 352 -13 C555 -13 665 116 662 356 L662 356 Z " />
<glyph glyph-name="gbreve" unicode="&#x11f;" horiz-adv-x="542" d="M394 699 L347 699 C342 699 339 697 339 691 C335 652 307 626 261 626 C213 626 187 653 183 691 C183 697 180 699 175 699 L128 699 C122 699 120 696 120 691 C124 616 178 560 261 560 C344 560 398 616 402 691 C402 696 400 699 394 699 L394 699 Z M259 457 C264 457 274 457 278 457 C362 451 410 378 409 255 C408 128 353 68 269 68 C171 67 121 138 121 262 C121 378 167 454 259 457 L259 457 Z M493 309 L495 507 C495 513 493 515 487 515 L412 515 C407 515 404 512 404 507 L407 440 C407 437 405 437 404 439 C370 493 316 522 246 522 C107 522 29 404 29 259 C29 112 105 3 249 3 C319 3 373 35 406 89 C407 91 409 91 409 88 L409 36 C409 -80 354 -130 267 -130 C195 -130 143 -100 134 -36 C133 -30 131 -28 125 -28 L51 -28 C46 -28 43 -31 43 -36 C52 -147 147 -198 266 -196 C413 -196 496 -113 495 35 L493 309 Z " />
<glyph glyph-name="Gdotaccent" unicode="&#x120;" horiz-adv-x="694" d="M387 755 C393 755 395 757 395 763 L395 846 C395 852 393 854 387 854 L310 854 C304 854 302 852 302 846 L302 763 C302 757 304 755 310 755 L387 755 Z M662 356 C662 361 660 364 654 364 L353 364 C347 364 345 362 345 356 L345 298 C345 292 347 290 353 290 L558 290 C562 290 564 288 564 284 C561 148 487 63 355 63 C218 63 128 173 128 349 C128 527 215 637 351 637 C455 637 527 585 550 485 C552 479 554 477 560 477 L639 477 C644 477 646 480 645 485 C612 632 507 713 351 713 C163 713 32 573 32 350 C32 130 165 -13 352 -13 C555 -13 665 116 662 356 L662 356 Z " />
<glyph glyph-name="gdotaccent" unicode="&#x121;" horiz-adv-x="542" d="M307 578 L307 661 C307 667 305 669 299 669 L222 669 C216 669 214 667 214 661 L214 578 C214 572 216 570 222 570 L299 570 C305 570 307 572 307 578 L307 578 Z M259 457 C264 457 274 457 278 457 C362 451 410 378 409 255 C408 128 353 68 269 68 C171 67 121 138 121 262 C121 378 167 454 259 457 L259 457 Z M493 309 L495 507 C495 513 493 515 487 515 L412 515 C407 515 404 512 404 507 L407 440 C407 437 405 437 404 439 C370 493 316 522 246 522 C107 522 29 404 29 259 C29 112 105 3 249 3 C319 3 373 35 406 89 C407 91 409 91 409 88 L409 36 C409 -80 354 -130 267 -130 C195 -130 143 -100 134 -36 C133 -30 131 -28 125 -28 L51 -28 C46 -28 43 -31 43 -36 C52 -147 147 -198 266 -196 C413 -196 496 -113 495 35 L493 309 Z " />
<glyph glyph-name="Gcommaaccent" unicode="&#x122;" horiz-adv-x="694" d="M654 364 L353 364 C347 364 345 362 345 356 L345 298 C345 292 347 290 353 290 L558 290 C562 290 564 288 564 284 C561 148 487 63 355 63 C218 63 128 173 128 349 C128 527 215 637 351 637 C455 637 527 585 550 485 C552 479 554 477 560 477 L639 477 C644 477 646 480 645 485 C612 632 507 713 351 713 C163 713 32 573 32 350 C32 130 165 -13 352 -13 C555 -13 665 116 662 356 C662 361 660 364 654 364 L654 364 Z M337 -204 L389 -131 C393 -127 394 -123 394 -117 L394 -46 C394 -40 392 -38 386 -38 L315 -38 C309 -38 307 -40 307 -46 L307 -119 C307 -123 306 -127 305 -131 L286 -202 C285 -207 287 -210 292 -210 L324 -210 C330 -210 333 -208 337 -204 L337 -204 Z " />
<glyph glyph-name="gcommaaccent" unicode="&#x123;" horiz-adv-x="542" d="M296 578 C302 578 304 580 304 586 L304 659 C304 663 305 667 306 671 L327 745 C328 750 326 753 321 753 L284 753 C278 753 275 751 271 747 L214 671 C210 667 209 663 209 657 L209 586 C209 580 211 578 217 578 L296 578 Z M121 262 C121 378 167 454 259 457 C264 457 274 457 278 457 C362 451 410 378 409 255 C408 128 353 68 269 68 C171 67 121 138 121 262 L121 262 Z M266 -196 C413 -196 496 -113 495 35 L493 309 L495 507 C495 513 493 515 487 515 L412 515 C407 515 404 512 404 507 L407 434 C373 491 318 522 246 522 C107 522 29 404 29 259 C29 112 105 3 249 3 C321 3 376 37 409 94 L409 36 C409 -80 354 -130 267 -130 C195 -130 143 -100 134 -36 C133 -30 131 -28 125 -28 L51 -28 C46 -28 43 -31 43 -36 C52 -147 147 -198 266 -196 L266 -196 Z " />
<glyph glyph-name="Hcircumflex" unicode="&#x124;" horiz-adv-x="667" d="M481 744 L495 780 C497 785 496 788 491 791 L360 881 C355 884 351 885 345 885 L322 885 C316 885 312 884 307 881 L175 791 C170 788 169 785 171 780 L185 744 C187 739 190 738 195 741 L334 813 L471 741 C476 738 479 739 481 744 L481 744 Z M150 8 L146 338 L521 338 L516 8 C516 2 518 0 524 0 L605 0 C611 0 613 2 613 8 L608 346 L613 692 C613 698 611 700 605 700 L524 700 C518 700 516 698 516 692 L520 413 L147 413 L150 692 C150 698 148 700 142 700 L61 700 C55 700 53 698 53 692 L58 346 L53 8 C53 2 55 0 61 0 L142 0 C148 0 150 2 150 8 L150 8 Z " />
<glyph glyph-name="hcircumflex" unicode="&#x125;" horiz-adv-x="525" d="M251 791 L120 881 C115 884 111 885 105 885 L82 885 C76 885 72 884 67 881 L-65 791 C-70 788 -71 785 -69 780 L-55 744 C-53 739 -50 738 -45 741 L89 810 C93 812 95 812 99 810 L231 741 C236 738 239 739 241 744 L255 780 C257 785 256 788 251 791 L251 791 Z M140 8 L137 309 C157 400 215 455 282 455 C345 455 389 415 390 319 L390 207 L387 8 C387 2 389 0 395 0 L473 0 C479 0 481 2 481 8 L478 208 L479 312 C481 460 414 527 304 527 C224 527 169 486 137 433 L140 692 C140 698 138 700 132 700 L56 700 C50 700 48 698 48 692 L52 355 L48 8 C48 2 50 0 56 0 L132 0 C138 0 140 2 140 8 L140 8 Z " />
<glyph glyph-name="Hbar" unicode="&#x126;" horiz-adv-x="674" d="M157 374 C153 374 151 376 151 380 L152 485 C152 489 154 491 158 491 L516 491 C520 491 522 489 522 485 L523 380 C523 376 521 374 517 374 L157 374 Z M608 0 C614 0 616 2 616 8 L613 346 L614 485 C614 489 616 491 620 491 L668 491 C674 491 676 493 676 499 L676 558 C676 564 674 566 668 566 L621 566 C617 566 615 568 615 572 L616 692 C616 698 614 700 608 700 L529 700 C523 700 521 698 521 692 L522 572 C522 568 520 566 516 566 L158 566 C154 566 152 568 152 572 L153 692 C153 698 151 700 145 700 L66 700 C60 700 58 698 58 692 L59 572 C59 568 57 566 53 566 L5 566 C-1 566 -3 564 -3 558 L-3 499 C-3 493 -1 491 5 491 L54 491 C58 491 60 489 60 485 L61 346 L58 8 C58 2 60 0 66 0 L145 0 C151 0 153 2 153 8 L151 294 C151 298 153 300 157 300 L517 300 C521 300 523 298 523 294 L521 8 C521 2 523 0 529 0 L608 0 Z " />
<glyph glyph-name="hbar" unicode="&#x127;" horiz-adv-x="530" d="M145 8 L142 303 C142 307 143 312 143 315 C166 403 222 455 287 455 C350 455 394 415 395 319 L395 207 L392 8 C392 2 394 0 400 0 L478 0 C484 0 486 2 486 8 L483 208 L484 312 C486 460 419 527 309 527 C232 527 178 489 145 438 C144 436 142 436 142 439 L144 568 L302 568 C308 568 310 570 310 576 L310 629 C310 635 308 637 302 637 L144 637 L145 692 C145 698 143 700 137 700 L61 700 C55 700 53 698 53 692 L54 637 L4 637 C-2 637 -4 635 -4 629 L-4 576 C-4 570 -2 568 4 568 L55 568 L57 355 L53 8 C53 2 55 0 61 0 L137 0 C143 0 145 2 145 8 L145 8 Z " />
<glyph glyph-name="Itilde" unicode="&#x128;" horiz-adv-x="213" d="M247 863 C247 868 245 871 239 871 L204 871 C199 871 196 869 196 863 C195 831 185 809 160 809 C126 809 111 875 51 875 C-5 875 -31 827 -33 764 C-33 759 -31 756 -25 756 L10 756 C15 756 18 758 18 764 C19 796 29 817 52 817 C90 817 101 751 163 751 C219 751 245 796 247 863 L247 863 Z M146 0 C152 0 154 2 154 8 L150 356 L154 692 C154 698 152 700 146 700 L67 700 C61 700 59 698 59 692 L63 356 L59 8 C59 2 61 0 67 0 L146 0 Z " />
<glyph glyph-name="itilde" unicode="&#x129;" horiz-adv-x="198" d="M239 678 C239 683 237 686 231 686 L196 686 C191 686 188 684 188 678 C187 646 177 624 152 624 C118 624 103 690 43 690 C-13 690 -39 642 -41 579 C-41 574 -39 571 -33 571 L2 571 C7 571 10 573 10 579 C11 611 21 632 44 632 C82 632 93 566 155 566 C211 566 237 611 239 678 L239 678 Z M146 8 L143 266 L146 507 C146 513 144 515 138 515 L60 515 C54 515 52 513 52 507 L55 265 L52 8 C52 2 54 0 60 0 L138 0 C144 0 146 2 146 8 L146 8 Z " />
<glyph glyph-name="Imacron" unicode="&#x12a;" horiz-adv-x="213" d="M255 776 L255 829 C255 835 253 837 247 837 L-34 837 C-40 837 -42 835 -42 829 L-42 776 C-42 770 -40 768 -34 768 L247 768 C253 768 255 770 255 776 L255 776 Z M154 8 L150 356 L154 692 C154 698 152 700 146 700 L67 700 C61 700 59 698 59 692 L63 356 L59 8 C59 2 61 0 67 0 L146 0 C152 0 154 2 154 8 L154 8 Z " />
<glyph glyph-name="imacron" unicode="&#x12b;" horiz-adv-x="198" d="M240 583 C246 583 248 585 248 591 L248 644 C248 650 246 652 240 652 L-41 652 C-47 652 -49 650 -49 644 L-49 591 C-49 585 -47 583 -41 583 L240 583 Z M146 8 L143 266 L146 507 C146 513 144 515 138 515 L60 515 C54 515 52 513 52 507 L55 265 L52 8 C52 2 54 0 60 0 L138 0 C144 0 146 2 146 8 L146 8 Z " />
<glyph glyph-name="Ibreve" unicode="&#x12c;" horiz-adv-x="213" d="M240 884 L193 884 C188 884 185 882 185 876 C181 837 153 811 107 811 C59 811 33 838 29 876 C29 882 26 884 21 884 L-26 884 C-32 884 -34 881 -34 876 C-30 801 24 745 107 745 C190 745 244 801 248 876 C248 881 246 884 240 884 L240 884 Z M154 8 L150 356 L154 692 C154 698 152 700 146 700 L67 700 C61 700 59 698 59 692 L63 356 L59 8 C59 2 61 0 67 0 L146 0 C152 0 154 2 154 8 L154 8 Z " />
<glyph glyph-name="ibreve" unicode="&#x12d;" horiz-adv-x="198" d="M232 699 L185 699 C180 699 177 697 177 691 C173 652 145 626 99 626 C51 626 25 653 21 691 C21 697 18 699 13 699 L-34 699 C-40 699 -42 696 -42 691 C-38 616 16 560 99 560 C182 560 236 616 240 691 C240 696 238 699 232 699 L232 699 Z M146 8 L143 266 L146 507 C146 513 144 515 138 515 L60 515 C54 515 52 513 52 507 L55 265 L52 8 C52 2 54 0 60 0 L138 0 C144 0 146 2 146 8 L146 8 Z " />
<glyph glyph-name="Iogonek" unicode="&#x12e;" horiz-adv-x="213" d="M181 -184 L181 -134 C181 -128 179 -126 173 -126 L130 -126 C95 -126 70 -111 70 -78 C70 -45 99 -17 119 -4 C121 -3 122 -1 123 0 L146 0 C152 0 154 2 154 8 L150 356 L154 692 C154 698 152 700 146 700 L67 700 C61 700 59 698 59 692 L63 356 L59 8 L60 4 C24 -19 -2 -51 -2 -96 C-2 -154 49 -192 123 -192 L173 -192 C179 -192 181 -190 181 -184 L181 -184 Z " />
<glyph glyph-name="iogonek" unicode="&#x12f;" horiz-adv-x="198" d="M146 661 C146 667 144 669 138 669 L61 669 C55 669 53 667 53 661 L53 578 C53 572 55 570 61 570 L138 570 C144 570 146 572 146 578 L146 661 Z M172 -184 L172 -134 C172 -128 170 -126 164 -126 L121 -126 C86 -126 61 -111 61 -78 C61 -45 90 -17 110 -4 C112 -3 113 -1 114 0 L138 0 C144 0 146 2 146 8 L143 266 L146 507 C146 513 144 515 138 515 L60 515 C54 515 52 513 52 507 L55 265 L52 8 L53 5 C16 -18 -11 -51 -11 -96 C-11 -154 40 -192 114 -192 L164 -192 C170 -192 172 -190 172 -184 L172 -184 Z " />
<glyph glyph-name="Idotaccent" unicode="&#x130;" horiz-adv-x="213" d="M153 763 L153 846 C153 852 151 854 145 854 L68 854 C62 854 60 852 60 846 L60 763 C60 757 62 755 68 755 L145 755 C151 755 153 757 153 763 L153 763 Z M146 0 C152 0 154 2 154 8 L150 356 L154 692 C154 698 152 700 146 700 L67 700 C61 700 59 698 59 692 L63 356 L59 8 C59 2 61 0 67 0 L146 0 Z " />
<glyph glyph-name="dotlessi" unicode="&#x131;" horiz-adv-x="198" d="M138 0 C144 0 146 2 146 8 L143 266 L146 507 C146 513 144 515 138 515 L60 515 C54 515 52 513 52 507 L55 265 L52 8 C52 2 54 0 60 0 L138 0 Z " />
<glyph glyph-name="IJ" unicode="&#x132;" horiz-adv-x="704" d="M154 8 L150 356 L154 692 C154 698 152 700 146 700 L67 700 C61 700 59 698 59 692 L63 356 L59 8 C59 2 61 0 67 0 L146 0 C152 0 154 2 154 8 L154 8 Z M659 248 L658 445 L662 692 C662 698 660 700 654 700 L572 700 C566 700 564 698 564 692 L567 445 L566 249 C565 132 541 64 445 64 C352 64 324 132 323 241 C323 247 321 249 315 249 L241 249 C236 249 233 246 233 241 C235 83 299 -14 445 -14 C592 -14 661 76 659 248 L659 248 Z " />
<glyph glyph-name="ij" unicode="&#x133;" horiz-adv-x="397" d="M344 578 L344 661 C344 667 342 669 336 669 L259 669 C253 669 251 667 251 661 L251 578 C251 572 253 570 259 570 L336 570 C342 570 344 572 344 578 L344 578 Z M146 578 L146 661 C146 667 144 669 138 669 L61 669 C55 669 53 667 53 661 L53 578 C53 572 55 570 61 570 L138 570 C144 570 146 572 146 578 L146 578 Z M146 8 L143 266 L146 507 C146 513 144 515 138 515 L60 515 C54 515 52 513 52 507 L55 265 L52 8 C52 2 54 0 60 0 L138 0 C144 0 146 2 146 8 L146 8 Z M345 -162 L342 166 L345 507 C345 513 343 515 337 515 L259 515 C253 515 251 513 251 507 L254 166 L251 -162 C251 -168 253 -170 259 -170 L337 -170 C343 -170 345 -168 345 -162 L345 -162 Z " />
<glyph glyph-name="Jcircumflex" unicode="&#x134;" horiz-adv-x="491" d="M542 744 L556 780 C558 785 557 788 552 791 L421 881 C416 884 412 885 406 885 L383 885 C377 885 373 884 368 881 L236 791 C231 788 230 785 232 780 L246 744 C248 739 251 738 256 741 L395 813 L532 741 C537 738 540 739 542 744 L542 744 Z M446 248 L445 445 L449 692 C449 698 447 700 441 700 L359 700 C353 700 351 698 351 692 L354 445 L353 249 C352 132 328 64 232 64 C139 64 111 132 110 241 C110 247 108 249 102 249 L28 249 C23 249 20 246 20 241 C22 83 86 -14 232 -14 C379 -14 448 76 446 248 L446 248 Z " />
<glyph glyph-name="jcircumflex" unicode="&#x135;" horiz-adv-x="198" d="M257 606 L126 696 C121 699 117 700 111 700 L88 700 C82 700 78 699 73 696 L-59 606 C-64 603 -65 600 -63 595 L-49 559 C-47 554 -44 553 -39 556 L95 625 C99 627 101 627 105 625 L237 556 C242 553 245 554 247 559 L261 595 C263 600 262 603 257 606 L257 606 Z M146 -162 L143 166 L146 507 C146 513 144 515 138 515 L60 515 C54 515 52 513 52 507 L55 166 L52 -162 C52 -168 54 -170 60 -170 L138 -170 C144 -170 146 -168 146 -162 L146 -162 Z " />
<glyph glyph-name="Kcommaaccent" unicode="&#x136;" horiz-adv-x="566" d="M149 8 L147 251 L225 346 L380 111 L448 7 C451 2 454 0 460 0 L559 0 C564 0 565 3 563 7 L286 420 L516 694 C519 697 518 700 513 700 L418 700 C412 700 409 698 405 694 L146 360 L146 362 L149 692 C149 698 147 700 141 700 L62 700 C56 700 54 698 54 692 L58 359 L54 8 C54 2 56 0 62 0 L141 0 C147 0 149 2 149 8 L149 8 Z M275 -210 C281 -210 284 -208 288 -204 L340 -131 C344 -127 345 -123 345 -117 L345 -46 C345 -40 343 -38 337 -38 L266 -38 C260 -38 258 -40 258 -46 L258 -119 C258 -123 257 -127 256 -131 L237 -202 C236 -207 238 -210 243 -210 L275 -210 Z " />
<glyph glyph-name="kcommaaccent" unicode="&#x137;" horiz-adv-x="466" d="M139 8 L137 190 L202 262 L311 83 L352 7 C355 2 358 0 364 0 L454 0 C459 0 460 3 458 7 L266 327 L437 509 C440 512 438 515 434 515 L345 515 C339 515 336 513 332 509 L136 293 L136 349 L139 692 C139 698 137 700 131 700 L55 700 C49 700 47 698 47 692 L51 347 L47 8 C47 2 49 0 55 0 L131 0 C137 0 139 2 139 8 L139 8 Z M227 -210 C233 -210 236 -208 240 -204 L292 -131 C296 -127 297 -123 297 -117 L297 -46 C297 -40 295 -38 289 -38 L218 -38 C212 -38 210 -40 210 -46 L210 -119 C210 -123 209 -127 208 -131 L189 -202 C188 -207 190 -210 195 -210 L227 -210 Z " />
<glyph glyph-name="Lacute" unicode="&#x139;" horiz-adv-x="477" d="M259 828 L239 887 C237 893 234 894 229 892 L12 789 C7 787 6 784 8 779 L22 744 C24 739 27 738 33 740 L254 817 C260 819 261 822 259 828 L259 828 Z M460 0 C466 0 468 2 468 8 L468 67 C468 73 466 75 460 75 L156 75 C152 75 150 77 150 81 L146 371 L150 692 C150 698 148 700 142 700 L62 700 C56 700 54 698 54 692 L58 366 L54 8 C54 2 56 0 62 0 L460 0 Z " />
<glyph glyph-name="lacute" unicode="&#x13a;" horiz-adv-x="197" d="M240 828 L220 887 C218 893 215 894 210 892 L-7 789 C-12 787 -13 784 -11 779 L3 744 C5 739 8 738 14 740 L235 817 C241 819 242 822 240 828 L240 828 Z M136 0 C142 0 144 2 144 8 L140 355 L144 692 C144 698 142 700 136 700 L60 700 C54 700 52 698 52 692 L56 354 L52 8 C52 2 54 0 60 0 L136 0 Z " />
<glyph glyph-name="Lcommaaccent" unicode="&#x13b;" horiz-adv-x="477" d="M468 8 L468 67 C468 73 466 75 460 75 L156 75 C152 75 150 77 150 81 L146 371 L150 692 C150 698 148 700 142 700 L62 700 C56 700 54 698 54 692 L58 366 L54 8 C54 2 56 0 62 0 L460 0 C466 0 468 2 468 8 L468 8 Z M250 -204 L302 -131 C306 -127 307 -123 307 -117 L307 -46 C307 -40 305 -38 299 -38 L228 -38 C222 -38 220 -40 220 -46 L220 -119 C220 -123 219 -127 218 -131 L199 -202 C198 -207 200 -210 205 -210 L237 -210 C243 -210 246 -208 250 -204 L250 -204 Z " />
<glyph glyph-name="lcommaaccent" unicode="&#x13c;" horiz-adv-x="197" d="M144 8 L140 355 L144 692 C144 698 142 700 136 700 L60 700 C54 700 52 698 52 692 L56 354 L52 8 C52 2 54 0 60 0 L136 0 C142 0 144 2 144 8 L144 8 Z M87 -204 L139 -131 C143 -127 144 -123 144 -117 L144 -46 C144 -40 142 -38 136 -38 L65 -38 C59 -38 57 -40 57 -46 L57 -119 C57 -123 56 -127 55 -131 L36 -202 C35 -207 37 -210 42 -210 L74 -210 C80 -210 83 -208 87 -204 L87 -204 Z " />
<glyph glyph-name="Lcaron" unicode="&#x13d;" horiz-adv-x="477" d="M468 8 L468 67 C468 73 466 75 460 75 L156 75 C152 75 150 77 150 81 L146 371 L150 692 C150 698 148 700 142 700 L62 700 C56 700 54 698 54 692 L58 366 L54 8 C54 2 56 0 62 0 L460 0 C466 0 468 2 468 8 L468 8 Z M451 690 C452 695 450 698 445 698 L382 698 C376 698 374 696 373 690 L336 498 C335 493 338 490 343 490 L388 490 C394 490 397 492 398 498 L451 690 Z " />
<glyph glyph-name="lcaron" unicode="&#x13e;" horiz-adv-x="197" d="M293 729 L230 729 C224 729 222 727 221 721 L184 529 C183 524 186 521 191 521 L236 521 C242 521 245 523 246 529 L299 721 C300 726 298 729 293 729 L293 729 Z M144 8 L140 355 L144 692 C144 698 142 700 136 700 L60 700 C54 700 52 698 52 692 L56 354 L52 8 C52 2 54 0 60 0 L136 0 C142 0 144 2 144 8 L144 8 Z " />
<glyph glyph-name="Ldot" unicode="&#x13f;" horiz-adv-x="477" d="M468 8 L468 67 C468 73 466 75 460 75 L156 75 C152 75 150 77 150 81 L146 371 L150 692 C150 698 148 700 142 700 L62 700 C56 700 54 698 54 692 L58 366 L54 8 C54 2 56 0 62 0 L460 0 C466 0 468 2 468 8 L468 8 Z M389 349 L389 432 C389 438 387 440 381 440 L304 440 C298 440 296 438 296 432 L296 349 C296 343 298 341 304 341 L381 341 C387 341 389 343 389 349 L389 349 Z " />
<glyph glyph-name="ldot" unicode="&#x140;" horiz-adv-x="287" d="M144 8 L140 355 L144 692 C144 698 142 700 136 700 L60 700 C54 700 52 698 52 692 L56 354 L52 8 C52 2 54 0 60 0 L136 0 C142 0 144 2 144 8 L144 8 Z M287 274 L287 357 C287 363 285 365 279 365 L202 365 C196 365 194 363 194 357 L194 274 C194 268 196 266 202 266 L279 266 C285 266 287 268 287 274 L287 274 Z " />
<glyph glyph-name="Lslash" unicode="&#x141;" horiz-adv-x="481" d="M465 0 C471 0 473 2 473 8 L473 67 C473 73 471 75 465 75 L161 75 C157 75 155 77 155 81 L152 306 L319 360 C325 361 327 364 327 370 L327 431 C327 436 324 438 319 437 L151 383 L155 692 C155 698 153 700 147 700 L67 700 C61 700 59 698 59 692 L63 366 L63 354 L5 335 C-1 334 -3 331 -3 325 L-3 265 C-3 260 0 258 5 259 L62 278 L59 8 C59 2 61 0 67 0 L465 0 Z " />
<glyph glyph-name="lslash" unicode="&#x142;" horiz-adv-x="217" d="M141 0 C147 0 149 2 149 8 L146 275 L203 306 C208 309 210 312 210 318 L210 376 C210 381 207 383 203 380 L145 349 L145 355 L149 692 C149 698 147 700 141 700 L65 700 C59 700 57 698 57 692 L61 354 L60 303 L14 278 C9 275 7 272 7 266 L7 208 C7 203 10 201 14 204 L60 228 L57 8 C57 2 59 0 65 0 L141 0 Z " />
<glyph glyph-name="Nacute" unicode="&#x143;" horiz-adv-x="673" d="M480 828 L460 887 C458 893 455 894 450 892 L233 789 C228 787 227 784 229 779 L243 744 C245 739 248 738 254 740 L475 817 C481 819 482 822 480 828 L480 828 Z M138 567 C138 570 140 570 141 568 L501 7 C504 2 507 0 513 0 L611 0 C617 0 619 2 619 8 L615 355 L620 692 C620 698 618 700 612 700 L538 700 C532 700 530 698 530 692 L531 387 L533 179 L535 125 C535 122 533 122 532 124 L167 693 C164 698 161 700 155 700 L62 700 C56 700 54 698 54 692 L58 355 L53 8 C53 2 55 0 61 0 L135 0 C141 0 143 2 143 8 L142 305 L140 500 L138 567 Z " />
<glyph glyph-name="nacute" unicode="&#x144;" horiz-adv-x="525" d="M408 643 L388 702 C386 708 383 709 378 707 L161 604 C156 602 155 599 157 594 L171 559 C173 554 176 553 182 555 L403 632 C409 634 410 637 408 643 L408 643 Z M142 8 L140 220 L140 292 C140 296 141 301 141 304 C162 402 216 454 282 454 C347 454 391 412 391 319 L391 220 L389 8 C389 2 391 0 397 0 L474 0 C480 0 482 2 482 8 L479 220 L479 323 C479 457 413 527 307 527 C228 527 171 483 139 433 C138 431 136 431 136 434 L138 507 C138 512 135 515 130 515 L57 515 C51 515 49 513 49 507 L52 235 L48 8 C48 3 51 0 56 0 L134 0 C140 0 142 2 142 8 L142 8 Z " />
<glyph glyph-name="Ncommaaccent" unicode="&#x145;" horiz-adv-x="673" d="M143 8 L142 305 L140 500 L138 573 L501 7 C504 2 507 0 513 0 L611 0 C617 0 619 2 619 8 L615 355 L620 692 C620 698 618 700 612 700 L538 700 C532 700 530 698 530 692 L531 387 L533 179 L535 119 L167 693 C164 698 161 700 155 700 L62 700 C56 700 54 698 54 692 L58 355 L53 8 C53 2 55 0 61 0 L135 0 C141 0 143 2 143 8 L143 8 Z M326 -204 L378 -131 C382 -127 383 -123 383 -117 L383 -46 C383 -40 381 -38 375 -38 L304 -38 C298 -38 296 -40 296 -46 L296 -119 C296 -123 295 -127 294 -131 L275 -202 C274 -207 276 -210 281 -210 L313 -210 C319 -210 322 -208 326 -204 L326 -204 Z " />
<glyph glyph-name="ncommaaccent" unicode="&#x146;" horiz-adv-x="525" d="M134 0 C140 0 142 2 142 8 L140 220 L140 292 C140 296 141 301 141 304 C162 402 216 454 282 454 C347 454 391 412 391 319 L391 220 L389 8 C389 2 391 0 397 0 L474 0 C480 0 482 2 482 8 L479 220 L479 323 C479 457 413 527 307 527 C228 527 171 483 139 433 C138 431 136 431 136 434 L138 507 C138 512 135 515 130 515 L57 515 C51 515 49 513 49 507 L52 235 L48 8 C48 3 51 0 56 0 L134 0 Z M254 -204 L306 -131 C310 -127 311 -123 311 -117 L311 -46 C311 -40 309 -38 303 -38 L232 -38 C226 -38 224 -40 224 -46 L224 -119 C224 -123 223 -127 222 -131 L203 -202 C202 -207 204 -210 209 -210 L241 -210 C247 -210 250 -208 254 -204 L254 -204 Z " />
<glyph glyph-name="Ncaron" unicode="&#x147;" horiz-adv-x="673" d="M499 851 L485 887 C483 892 480 893 475 890 L342 821 C338 819 336 819 332 821 L199 890 C194 893 191 892 189 887 L175 851 C173 846 174 843 179 840 L311 750 C316 747 320 746 326 746 L349 746 C355 746 359 747 364 750 L495 840 C500 843 501 846 499 851 L499 851 Z M143 8 L142 305 L140 500 L138 573 L501 7 C504 2 507 0 513 0 L611 0 C617 0 619 2 619 8 L615 355 L620 692 C620 698 618 700 612 700 L538 700 C532 700 530 698 530 692 L531 387 L533 179 L535 119 L167 693 C164 698 161 700 155 700 L62 700 C56 700 54 698 54 692 L58 355 L53 8 C53 2 55 0 61 0 L135 0 C141 0 143 2 143 8 L143 8 Z " />
<glyph glyph-name="ncaron" unicode="&#x148;" horiz-adv-x="525" d="M426 666 L412 702 C410 707 407 708 402 705 L269 636 C265 634 263 634 259 636 L126 705 C121 708 118 707 116 702 L102 666 C100 661 101 658 106 655 L238 565 C243 562 247 561 253 561 L276 561 C282 561 286 562 291 565 L422 655 C427 658 428 661 426 666 L426 666 Z M142 8 L140 220 L140 292 C140 296 141 301 141 304 C162 402 216 454 282 454 C347 454 391 412 391 319 L391 220 L389 8 C389 2 391 0 397 0 L474 0 C480 0 482 2 482 8 L479 220 L479 323 C479 457 413 527 307 527 C228 527 171 483 139 433 C138 431 136 431 136 434 L138 507 C138 512 135 515 130 515 L57 515 C51 515 49 513 49 507 L52 235 L48 8 C48 3 51 0 56 0 L134 0 C140 0 142 2 142 8 L142 8 Z " />
<glyph glyph-name="eng" unicode="&#x14b;" horiz-adv-x="526" d="M481 -27 L481 323 C481 457 414 527 308 527 C229 527 172 483 139 433 C138 431 136 431 136 434 L139 507 C139 512 136 515 131 515 L58 515 C52 515 50 513 50 507 L51 235 L49 8 C49 2 51 0 57 0 L134 0 C140 0 142 2 142 8 L141 220 L141 292 C141 296 142 301 142 304 C163 402 216 454 283 454 C347 454 391 412 391 319 L391 -19 C391 -85 366 -109 325 -109 C307 -109 291 -108 277 -104 C272 -103 269 -105 269 -110 L269 -162 C269 -168 271 -171 277 -172 C296 -176 321 -180 345 -180 C411 -180 481 -140 481 -27 L481 -27 Z " />
<glyph glyph-name="Omacron" unicode="&#x14c;" horiz-adv-x="733" d="M512 776 L512 829 C512 835 510 837 504 837 L223 837 C217 837 215 835 215 829 L215 776 C215 770 217 768 223 768 L504 768 C510 768 512 770 512 776 L512 776 Z M366 713 C164 713 32 573 32 349 C32 131 164 -13 366 -13 C567 -13 701 130 701 349 C701 574 568 713 366 713 L366 713 Z M366 636 C515 636 604 527 604 349 C604 171 515 64 366 64 C218 64 128 172 128 349 C128 528 216 636 366 636 L366 636 Z " />
<glyph glyph-name="omacron" unicode="&#x14d;" horiz-adv-x="547" d="M412 583 C418 583 420 585 420 591 L420 644 C420 650 418 652 412 652 L131 652 C125 652 123 650 123 644 L123 591 C123 585 125 583 131 583 L412 583 Z M518 258 C518 420 431 527 274 527 C118 527 30 419 30 256 C30 94 118 -12 274 -12 C431 -12 518 96 518 258 L518 258 Z M123 256 C123 385 172 459 274 460 C374 460 424 385 424 256 C424 127 375 55 274 55 C173 55 123 127 123 256 L123 256 Z " />
<glyph glyph-name="Obreve" unicode="&#x14e;" horiz-adv-x="733" d="M498 884 L451 884 C446 884 443 882 443 876 C439 837 411 811 365 811 C317 811 291 838 287 876 C287 882 284 884 279 884 L232 884 C226 884 224 881 224 876 C228 801 282 745 365 745 C448 745 502 801 506 876 C506 881 504 884 498 884 L498 884 Z M701 349 C701 574 568 713 366 713 C164 713 32 573 32 349 C32 131 164 -13 366 -13 C567 -13 701 130 701 349 L701 349 Z M128 349 C128 528 216 636 366 636 C515 636 604 527 604 349 C604 171 515 64 366 64 C218 64 128 172 128 349 L128 349 Z " />
<glyph glyph-name="obreve" unicode="&#x14f;" horiz-adv-x="547" d="M413 691 C413 696 411 699 405 699 L358 699 C353 699 350 697 350 691 C346 652 318 626 272 626 C224 626 198 653 194 691 C194 697 191 699 186 699 L139 699 C133 699 131 696 131 691 C135 616 189 560 272 560 C355 560 409 616 413 691 L413 691 Z M518 258 C518 420 431 527 274 527 C118 527 30 419 30 256 C30 94 118 -12 274 -12 C431 -12 518 96 518 258 L518 258 Z M123 256 C123 385 172 459 274 460 C374 460 424 385 424 256 C424 127 375 55 274 55 C173 55 123 127 123 256 L123 256 Z " />
<glyph glyph-name="Ohungarumlaut" unicode="&#x150;" horiz-adv-x="733" d="M413 900 L376 939 C372 943 368 943 365 939 L250 782 C246 778 247 774 251 771 L273 751 C277 748 281 748 284 752 L414 888 C417 892 417 896 413 900 L413 900 Z M563 898 L526 935 C522 939 518 939 515 935 L400 779 C396 775 397 771 401 768 L423 748 C427 745 431 745 434 749 L564 886 C567 890 567 894 563 898 L563 898 Z M701 349 C701 574 568 713 366 713 C164 713 32 573 32 349 C32 131 164 -13 366 -13 C567 -13 701 130 701 349 L701 349 Z M128 349 C128 528 216 636 366 636 C515 636 604 527 604 349 C604 171 515 64 366 64 C218 64 128 172 128 349 L128 349 Z " />
<glyph glyph-name="ohungarumlaut" unicode="&#x151;" horiz-adv-x="547" d="M320 715 L283 754 C279 758 275 758 272 754 L157 597 C153 593 154 589 158 586 L180 566 C184 563 188 563 191 567 L321 703 C324 707 324 711 320 715 L320 715 Z M470 713 L433 750 C429 754 425 754 422 750 L307 594 C303 590 304 586 308 583 L330 563 C334 560 338 560 341 564 L471 701 C474 705 474 709 470 713 L470 713 Z M518 258 C518 420 431 527 274 527 C118 527 30 419 30 256 C30 94 118 -12 274 -12 C431 -12 518 96 518 258 L518 258 Z M123 256 C123 385 172 459 274 460 C374 460 424 385 424 256 C424 127 375 55 274 55 C173 55 123 127 123 256 L123 256 Z " />
<glyph glyph-name="OE" unicode="&#x152;" horiz-adv-x="1018" d="M977 0 C983 0 985 2 985 8 L985 67 C985 73 983 75 977 75 L637 75 C633 75 631 77 631 81 L629 330 C629 334 631 336 635 336 L945 336 C951 336 953 338 953 344 L953 403 C953 409 951 411 945 411 L635 411 C631 411 629 413 629 417 L631 619 C631 623 633 625 637 625 L969 625 C975 625 977 627 977 633 L977 692 C977 698 975 700 969 700 L401 700 C200 700 47 579 47 350 C47 111 211 0 399 0 L977 0 Z M391 75 C267 75 143 156 143 350 C143 535 256 625 395 625 L529 625 C533 625 535 623 535 619 C536 585 539 418 539 361 C539 302 536 117 535 81 C535 77 533 75 529 75 L391 75 Z " />
<glyph glyph-name="oe" unicode="&#x153;" horiz-adv-x="935" d="M821 179 C815 179 813 177 812 171 C797 95 750 55 674 55 C576 55 524 119 519 239 C519 243 521 245 525 245 L900 245 C905 245 908 248 908 253 C905 424 820 527 673 527 C582 527 513 479 476 401 C475 398 473 398 472 401 C437 480 368 527 271 527 C117 527 31 419 31 256 C31 94 117 -12 271 -12 C368 -12 435 35 471 112 C472 115 474 115 475 112 C511 36 579 -12 678 -12 C807 -12 883 65 899 171 C900 176 897 179 892 179 L821 179 Z M810 315 C810 311 808 309 804 309 L528 309 C524 309 522 311 523 315 C537 408 586 461 669 461 C758 461 805 394 810 315 L810 315 Z M125 256 C125 385 174 459 275 460 C376 460 425 385 425 256 C425 127 376 55 276 55 C175 55 125 127 125 256 L125 256 Z " />
<glyph glyph-name="Racute" unicode="&#x154;" horiz-adv-x="603" d="M454 828 L434 887 C432 893 429 894 424 892 L207 789 C202 787 201 784 203 779 L217 744 C219 739 222 738 228 740 L449 817 C455 819 456 822 454 828 L454 828 Z M318 359 L151 359 C147 359 145 361 145 365 L149 620 C149 624 151 626 155 626 L316 626 C415 626 474 581 474 492 C474 398 410 359 318 359 L318 359 Z M482 0 L575 0 C580 0 581 3 579 7 L399 289 C397 292 398 294 402 295 C502 319 565 385 565 494 C565 631 467 700 308 700 L61 700 C55 700 53 698 53 692 L58 360 L53 8 C53 2 55 0 61 0 L142 0 C148 0 150 2 150 8 L146 280 C146 284 148 286 152 286 L290 286 C294 286 297 285 299 281 L403 121 L470 7 C473 2 476 0 482 0 L482 0 Z " />
<glyph glyph-name="racute" unicode="&#x155;" horiz-adv-x="361" d="M341 643 L321 702 C319 708 316 709 311 707 L94 604 C89 602 88 599 90 594 L104 559 C106 554 109 553 115 555 L336 632 C342 634 343 637 341 643 L341 643 Z M140 8 L138 276 C138 279 138 284 139 287 C154 395 226 445 310 445 C323 445 333 444 341 443 C347 442 349 444 349 449 L349 507 C349 513 347 516 341 517 C332 519 322 520 311 520 C241 520 176 487 139 423 C137 421 136 421 136 424 L139 507 C139 512 136 515 131 515 L55 515 C49 515 47 513 47 507 L51 263 L47 8 C47 2 49 0 55 0 L132 0 C138 0 140 2 140 8 L140 8 Z " />
<glyph glyph-name="Rcommaaccent" unicode="&#x156;" horiz-adv-x="603" d="M316 626 C415 626 474 581 474 492 C474 398 410 359 318 359 L145 359 L149 626 L316 626 Z M150 8 L146 286 L296 286 L403 121 L470 7 C473 2 476 0 482 0 L575 0 C580 0 581 3 579 7 L396 294 C500 316 565 383 565 494 C565 631 467 700 308 700 L61 700 C55 700 53 698 53 692 L58 360 L53 8 C53 2 55 0 61 0 L142 0 C148 0 150 2 150 8 L150 8 Z M300 -204 L352 -131 C356 -127 357 -123 357 -117 L357 -46 C357 -40 355 -38 349 -38 L278 -38 C272 -38 270 -40 270 -46 L270 -119 C270 -123 269 -127 268 -131 L249 -202 C248 -207 250 -210 255 -210 L287 -210 C293 -210 296 -208 300 -204 L300 -204 Z " />
<glyph glyph-name="rcommaaccent" unicode="&#x157;" horiz-adv-x="361" d="M140 8 L138 276 C138 279 138 284 139 287 C154 395 226 445 310 445 C323 445 333 444 341 443 C347 442 349 444 349 449 L349 507 C349 513 347 516 341 517 C332 519 322 520 311 520 C241 520 176 487 139 423 C137 421 136 421 136 424 L139 507 C139 512 136 515 131 515 L55 515 C49 515 47 513 47 507 L51 263 L47 8 C47 2 49 0 55 0 L132 0 C138 0 140 2 140 8 L140 8 Z M84 -204 L136 -131 C140 -127 141 -123 141 -117 L141 -46 C141 -40 139 -38 133 -38 L62 -38 C56 -38 54 -40 54 -46 L54 -119 C54 -123 53 -127 52 -131 L33 -202 C32 -207 34 -210 39 -210 L71 -210 C77 -210 80 -208 84 -204 L84 -204 Z " />
<glyph glyph-name="Rcaron" unicode="&#x158;" horiz-adv-x="603" d="M323 746 C329 746 333 747 338 750 L469 840 C474 843 475 846 473 851 L459 887 C457 892 454 893 449 890 L311 818 L311 818 L173 890 C168 893 165 892 163 887 L149 851 C147 846 148 843 153 840 L285 750 C290 747 294 746 300 746 L323 746 Z M316 626 C415 626 474 581 474 492 C474 398 410 359 318 359 L145 359 L149 626 L316 626 Z M150 8 L146 286 L296 286 L403 121 L470 7 C473 2 476 0 482 0 L575 0 C580 0 581 3 579 7 L396 294 C500 316 565 383 565 494 C565 631 467 700 308 700 L61 700 C55 700 53 698 53 692 L58 360 L53 8 C53 2 55 0 61 0 L142 0 C148 0 150 2 150 8 L150 8 Z " />
<glyph glyph-name="rcaron" unicode="&#x159;" horiz-adv-x="361" d="M360 666 L346 702 C344 707 341 708 336 705 L203 636 C199 634 197 634 193 636 L60 705 C55 708 52 707 50 702 L36 666 C34 661 35 658 40 655 L172 565 C177 562 181 561 187 561 L210 561 C216 561 220 562 225 565 L356 655 C361 658 362 661 360 666 L360 666 Z M140 8 L138 276 C138 279 138 284 139 287 C154 395 226 445 310 445 C323 445 333 444 341 443 C347 442 349 444 349 449 L349 507 C349 513 347 516 341 517 C332 519 322 520 311 520 C241 520 176 487 139 423 C137 421 136 421 136 424 L139 507 C139 512 136 515 131 515 L55 515 C49 515 47 513 47 507 L51 263 L47 8 C47 2 49 0 55 0 L132 0 C138 0 140 2 140 8 L140 8 Z " />
<glyph glyph-name="Sacute" unicode="&#x15a;" horiz-adv-x="617" d="M449 828 L429 887 C427 893 424 894 419 892 L202 789 C197 787 196 784 198 779 L212 744 C214 739 217 738 223 740 L444 817 C450 819 451 822 449 828 L449 828 Z M589 205 C589 478 133 340 133 520 C133 600 200 636 296 636 C410 636 469 591 476 500 C477 494 479 492 485 492 L566 492 C571 492 574 495 573 500 C558 644 459 712 298 712 C144 712 42 639 42 511 C42 245 498 387 498 193 C498 101 424 63 320 63 C183 63 133 128 125 233 C124 239 122 241 116 241 L36 241 C31 241 28 238 28 233 C34 73 139 -12 317 -12 C476 -12 589 61 589 205 L589 205 Z " />
<glyph glyph-name="sacute" unicode="&#x15b;" horiz-adv-x="501" d="M390 643 L370 702 C368 708 365 709 360 707 L143 604 C138 602 137 599 139 594 L153 559 C155 554 158 553 164 555 L385 632 C391 634 392 637 390 643 L390 643 Z M474 148 C474 364 126 253 126 381 C126 438 171 464 242 464 C316 464 365 433 371 368 C372 362 374 360 380 360 L449 360 C455 360 457 363 457 368 C451 476 362 526 243 526 C121 526 39 474 39 375 C39 167 387 276 387 141 C387 84 336 52 260 52 C169 52 119 89 116 171 C116 177 113 179 108 179 L36 179 C30 179 28 176 28 171 C32 49 126 -11 260 -11 C380 -11 474 47 474 148 L474 148 Z " />
<glyph glyph-name="Scircumflex" unicode="&#x15c;" horiz-adv-x="617" d="M464 791 L333 881 C328 884 324 885 318 885 L295 885 C289 885 285 884 280 881 L148 791 C143 788 142 785 144 780 L158 744 C160 739 163 738 168 741 L302 810 C306 812 308 812 312 810 L444 741 C449 738 452 739 454 744 L468 780 C470 785 469 788 464 791 L464 791 Z M133 520 C133 600 200 636 296 636 C410 636 469 591 476 500 C477 494 479 492 485 492 L566 492 C571 492 574 495 573 500 C558 644 459 712 298 712 C144 712 42 639 42 511 C42 245 498 387 498 193 C498 101 424 63 320 63 C183 63 133 128 125 233 C124 239 122 241 116 241 L36 241 C31 241 28 238 28 233 C34 73 139 -12 317 -12 C476 -12 589 61 589 205 C589 478 133 340 133 520 L133 520 Z " />
<glyph glyph-name="scircumflex" unicode="&#x15d;" horiz-adv-x="501" d="M405 606 L274 696 C269 699 265 700 259 700 L236 700 C230 700 226 699 221 696 L89 606 C84 603 83 600 85 595 L99 559 C101 554 104 553 109 556 L243 625 C247 627 249 627 253 625 L385 556 C390 553 393 554 395 559 L409 595 C411 600 410 603 405 606 L405 606 Z M126 381 C126 438 171 464 242 464 C316 464 365 433 371 368 C372 362 374 360 380 360 L449 360 C455 360 457 363 457 368 C451 476 362 526 243 526 C121 526 39 474 39 375 C39 167 387 276 387 141 C387 84 336 52 260 52 C169 52 119 89 116 171 C116 177 113 179 108 179 L36 179 C30 179 28 176 28 171 C32 49 126 -11 260 -11 C380 -11 474 47 474 148 C474 364 126 253 126 381 L126 381 Z " />
<glyph glyph-name="Scedilla" unicode="&#x15e;" horiz-adv-x="617" d="M302 -171 C308 -172 311 -171 312 -165 L355 -11 C494 1 589 73 589 205 C589 478 133 340 133 520 C133 600 200 636 296 636 C410 636 469 591 476 500 C477 494 479 492 485 492 L566 492 C571 492 574 495 573 500 C558 644 459 712 298 712 C144 712 42 639 42 511 C42 245 498 387 498 193 C498 101 424 63 320 63 C183 63 133 128 125 233 C124 239 122 241 116 241 L36 241 C31 241 28 238 28 233 C34 86 122 3 274 -10 L226 -146 C224 -152 226 -155 231 -156 L302 -171 Z " />
<glyph glyph-name="scedilla" unicode="&#x15f;" horiz-adv-x="501" d="M241 -171 C247 -172 250 -171 251 -165 L295 -9 C398 1 474 57 474 148 C474 364 126 253 126 381 C126 438 171 464 242 464 C316 464 365 433 371 368 C372 362 374 360 380 360 L449 360 C455 360 457 363 457 368 C451 476 362 526 243 526 C121 526 39 474 39 375 C39 167 387 276 387 141 C387 84 336 52 260 52 C169 52 119 89 116 171 C116 177 113 179 108 179 L36 179 C30 179 28 176 28 171 C32 64 105 4 214 -8 L165 -146 C163 -152 165 -155 170 -156 L241 -171 Z " />
<glyph glyph-name="Scaron" unicode="&#x160;" horiz-adv-x="617" d="M318 746 C324 746 328 747 333 750 L464 840 C469 843 470 846 468 851 L454 887 C452 892 449 893 444 890 L306 818 L306 818 L168 890 C163 893 160 892 158 887 L144 851 C142 846 143 843 148 840 L280 750 C285 747 289 746 295 746 L318 746 Z M589 205 C589 478 133 340 133 520 C133 600 200 636 296 636 C410 636 469 591 476 500 C477 494 479 492 485 492 L566 492 C571 492 574 495 573 500 C558 644 459 712 298 712 C144 712 42 639 42 511 C42 245 498 387 498 193 C498 101 424 63 320 63 C183 63 133 128 125 233 C124 239 122 241 116 241 L36 241 C31 241 28 238 28 233 C34 73 139 -12 317 -12 C476 -12 589 61 589 205 L589 205 Z " />
<glyph glyph-name="scaron" unicode="&#x161;" horiz-adv-x="501" d="M259 561 C265 561 269 562 274 565 L405 655 C410 658 411 661 409 666 L395 702 C393 707 390 708 385 705 L247 633 L247 633 L109 705 C104 708 101 707 99 702 L85 666 C83 661 84 658 89 655 L221 565 C226 562 230 561 236 561 L259 561 Z M474 148 C474 364 126 253 126 381 C126 438 171 464 242 464 C316 464 365 433 371 368 C372 362 374 360 380 360 L449 360 C455 360 457 363 457 368 C451 476 362 526 243 526 C121 526 39 474 39 375 C39 167 387 276 387 141 C387 84 336 52 260 52 C169 52 119 89 116 171 C116 177 113 179 108 179 L36 179 C30 179 28 176 28 171 C32 49 126 -11 260 -11 C380 -11 474 47 474 148 L474 148 Z " />
<glyph glyph-name="Tcedilla" unicode="&#x162;" horiz-adv-x="526" d="M255 -165 L301 -2 L301 0 L304 0 C310 0 312 2 312 8 L307 347 L311 619 C311 623 313 625 317 625 L506 625 C512 625 514 627 514 633 L514 692 C514 698 512 700 506 700 L20 700 C14 700 12 698 12 692 L12 633 C12 627 14 625 20 625 L209 625 C213 625 215 623 215 619 L219 347 L214 8 C214 3 216 0 221 0 L169 -146 C167 -152 169 -155 174 -156 L245 -171 C251 -172 254 -171 255 -165 L255 -165 Z " />
<glyph glyph-name="tcedilla" unicode="&#x163;" horiz-adv-x="325" d="M189 -165 L233 -9 C255 -8 278 -2 297 4 C303 5 305 8 305 14 L305 64 C305 69 302 71 297 70 C283 66 263 63 243 63 C199 63 178 82 178 144 L178 444 L297 444 C303 444 305 446 305 452 L305 507 C305 513 303 515 297 515 L178 515 L180 636 C180 642 178 644 172 644 L95 644 C89 644 87 642 87 636 L88 515 L30 515 C24 515 22 513 22 507 L22 452 C22 446 24 444 30 444 L88 444 L88 142 C88 67 116 25 157 5 L103 -146 C101 -152 103 -155 108 -156 L179 -171 C185 -172 188 -171 189 -165 L189 -165 Z " />
<glyph glyph-name="Tcaron" unicode="&#x164;" horiz-adv-x="526" d="M419 851 L405 887 C403 892 400 893 395 890 L262 821 C258 819 256 819 252 821 L119 890 C114 893 111 892 109 887 L95 851 C93 846 94 843 99 840 L231 750 C236 747 240 746 246 746 L269 746 C275 746 279 747 284 750 L415 840 C420 843 421 846 419 851 L419 851 Z M304 0 C310 0 312 2 312 8 L307 347 L311 619 C311 623 313 625 317 625 L506 625 C512 625 514 627 514 633 L514 692 C514 698 512 700 506 700 L20 700 C14 700 12 698 12 692 L12 633 C12 627 14 625 20 625 L209 625 C213 625 215 623 215 619 L219 347 L214 8 C214 2 216 0 222 0 L304 0 Z " />
<glyph glyph-name="tcaron" unicode="&#x165;" horiz-adv-x="325" d="M352 773 C353 778 351 781 346 781 L283 781 C277 781 275 779 274 773 L237 581 C236 576 239 573 244 573 L289 573 C295 573 298 575 299 581 L352 773 Z M297 4 C303 5 305 8 305 14 L305 64 C305 69 302 71 297 70 C283 66 263 63 243 63 C199 63 178 82 178 144 L178 444 L297 444 C303 444 305 446 305 452 L305 507 C305 513 303 515 297 515 L178 515 L180 636 C180 642 178 644 172 644 L95 644 C89 644 87 642 87 636 L88 515 L30 515 C24 515 22 513 22 507 L22 452 C22 446 24 444 30 444 L88 444 L88 142 C88 30 151 -9 226 -9 C250 -9 276 -3 297 4 L297 4 Z " />
<glyph glyph-name="Tbar" unicode="&#x166;" horiz-adv-x="525" d="M309 8 L305 291 L423 291 C429 291 431 293 431 299 L431 358 C431 364 429 366 423 366 L304 366 L308 619 C308 623 310 625 314 625 L503 625 C509 625 511 627 511 633 L511 692 C511 698 509 700 503 700 L17 700 C11 700 9 698 9 692 L9 633 C9 627 11 625 17 625 L206 625 C210 625 212 623 212 619 L216 366 L99 366 C93 366 91 364 91 358 L91 299 C91 293 93 291 99 291 L215 291 L211 8 C211 2 213 0 219 0 L301 0 C307 0 309 2 309 8 L309 8 Z " />
<glyph glyph-name="tbar" unicode="&#x167;" horiz-adv-x="329" d="M295 4 C301 5 303 8 303 14 L303 64 C303 69 300 71 295 70 C281 66 261 63 241 63 C197 63 176 82 176 144 L176 241 L300 241 C306 241 308 243 308 249 L308 304 C308 310 306 312 300 312 L176 312 L176 444 L295 444 C301 444 303 446 303 452 L303 507 C303 513 301 515 295 515 L176 515 L178 636 C178 642 176 644 170 644 L93 644 C87 644 85 642 85 636 L86 515 L28 515 C22 515 20 513 20 507 L20 452 C20 446 22 444 28 444 L86 444 L86 312 L32 312 C26 312 24 310 24 304 L24 249 C24 243 26 241 32 241 L86 241 L86 142 C86 30 149 -9 224 -9 C248 -9 274 -3 295 4 L295 4 Z " />
<glyph glyph-name="Utilde" unicode="&#x168;" horiz-adv-x="607" d="M443 863 C443 868 441 871 435 871 L400 871 C395 871 392 869 392 863 C391 831 381 809 356 809 C322 809 307 875 247 875 C191 875 165 827 163 764 C163 759 165 756 171 756 L206 756 C211 756 214 758 214 764 C215 796 225 817 248 817 C286 817 297 751 359 751 C415 751 441 796 443 863 L443 863 Z M562 265 L562 483 L564 692 C564 698 562 700 556 700 L481 700 C475 700 473 698 473 692 L476 483 L476 265 C476 146 427 66 305 66 C186 66 138 146 138 265 L137 485 L141 692 C141 697 138 700 133 700 L50 700 C45 700 42 697 42 692 L46 483 L45 265 C44 89 132 -13 305 -13 C478 -13 562 89 562 265 L562 265 Z " />
<glyph glyph-name="utilde" unicode="&#x169;" horiz-adv-x="525" d="M400 678 C400 683 398 686 392 686 L357 686 C352 686 349 684 349 678 C348 646 338 624 313 624 C279 624 264 690 204 690 C148 690 122 642 120 579 C120 574 122 571 128 571 L163 571 C168 571 171 573 171 579 C172 611 182 632 205 632 C243 632 254 566 316 566 C372 566 398 611 400 678 L400 678 Z M387 83 C388 85 390 85 390 82 L387 8 C387 3 390 0 395 0 L468 0 C474 0 476 2 476 8 L474 280 L477 507 C477 513 475 515 469 515 L392 515 C386 515 384 513 384 507 L385 295 L385 223 C385 219 384 214 384 211 C363 113 310 61 243 61 C179 61 134 103 134 196 L134 295 L136 507 C136 513 134 515 128 515 L52 515 C46 515 44 513 44 507 L46 295 L46 193 C46 58 112 -12 218 -12 C297 -12 354 32 387 83 L387 83 Z " />
<glyph glyph-name="Umacron" unicode="&#x16a;" horiz-adv-x="607" d="M450 776 L450 829 C450 835 448 837 442 837 L161 837 C155 837 153 835 153 829 L153 776 C153 770 155 768 161 768 L442 768 C448 768 450 770 450 776 L450 776 Z M562 265 L562 483 L564 692 C564 698 562 700 556 700 L481 700 C475 700 473 698 473 692 L476 483 L476 265 C476 146 427 66 305 66 C186 66 138 146 138 265 L137 485 L141 692 C141 697 138 700 133 700 L50 700 C45 700 42 697 42 692 L46 483 L45 265 C44 89 132 -13 305 -13 C478 -13 562 89 562 265 L562 265 Z " />
<glyph glyph-name="umacron" unicode="&#x16b;" horiz-adv-x="525" d="M400 583 C406 583 408 585 408 591 L408 644 C408 650 406 652 400 652 L119 652 C113 652 111 650 111 644 L111 591 C111 585 113 583 119 583 L400 583 Z M387 83 C388 85 390 85 390 82 L387 8 C387 3 390 0 395 0 L468 0 C474 0 476 2 476 8 L474 280 L477 507 C477 513 475 515 469 515 L392 515 C386 515 384 513 384 507 L385 295 L385 223 C385 219 384 214 384 211 C363 113 310 61 243 61 C179 61 134 103 134 196 L134 295 L136 507 C136 513 134 515 128 515 L52 515 C46 515 44 513 44 507 L46 295 L46 193 C46 58 112 -12 218 -12 C297 -12 354 32 387 83 L387 83 Z " />
<glyph glyph-name="Ubreve" unicode="&#x16c;" horiz-adv-x="607" d="M444 876 C444 881 442 884 436 884 L389 884 C384 884 381 882 381 876 C377 837 349 811 303 811 C255 811 229 838 225 876 C225 882 222 884 217 884 L170 884 C164 884 162 881 162 876 C166 801 220 745 303 745 C386 745 440 801 444 876 L444 876 Z M562 265 L562 483 L564 692 C564 698 562 700 556 700 L481 700 C475 700 473 698 473 692 L476 483 L476 265 C476 146 427 66 305 66 C186 66 138 146 138 265 L137 485 L141 692 C141 697 138 700 133 700 L50 700 C45 700 42 697 42 692 L46 483 L45 265 C44 89 132 -13 305 -13 C478 -13 562 89 562 265 L562 265 Z " />
<glyph glyph-name="ubreve" unicode="&#x16d;" horiz-adv-x="525" d="M393 699 L346 699 C341 699 338 697 338 691 C334 652 306 626 260 626 C212 626 186 653 182 691 C182 697 179 699 174 699 L127 699 C121 699 119 696 119 691 C123 616 177 560 260 560 C343 560 397 616 401 691 C401 696 399 699 393 699 L393 699 Z M387 83 C388 85 390 85 390 82 L387 8 C387 3 390 0 395 0 L468 0 C474 0 476 2 476 8 L474 280 L477 507 C477 513 475 515 469 515 L392 515 C386 515 384 513 384 507 L385 295 L385 223 C385 219 384 214 384 211 C363 113 310 61 243 61 C179 61 134 103 134 196 L134 295 L136 507 C136 513 134 515 128 515 L52 515 C46 515 44 513 44 507 L46 295 L46 193 C46 58 112 -12 218 -12 C297 -12 354 32 387 83 L387 83 Z " />
<glyph glyph-name="Uring" unicode="&#x16e;" horiz-adv-x="607" d="M410 848 C410 907 364 952 302 952 C241 952 195 907 195 848 C195 788 241 743 302 743 C364 743 410 788 410 848 L410 848 Z M247 848 C247 888 269 911 302 911 C334 911 358 888 358 848 C358 808 334 784 302 784 C269 784 247 808 247 848 L247 848 Z M562 265 L562 483 L564 692 C564 698 562 700 556 700 L481 700 C475 700 473 698 473 692 L476 483 L476 265 C476 146 427 66 305 66 C186 66 138 146 138 265 L137 485 L141 692 C141 697 138 700 133 700 L50 700 C45 700 42 697 42 692 L46 483 L45 265 C44 89 132 -13 305 -13 C478 -13 562 89 562 265 L562 265 Z " />
<glyph glyph-name="uring" unicode="&#x16f;" horiz-adv-x="525" d="M367 663 C367 722 321 767 259 767 C198 767 152 722 152 663 C152 603 198 558 259 558 C321 558 367 603 367 663 L367 663 Z M204 663 C204 703 226 726 259 726 C291 726 315 703 315 663 C315 623 291 599 259 599 C226 599 204 623 204 663 L204 663 Z M387 83 C388 85 390 85 390 82 L387 8 C387 3 390 0 395 0 L468 0 C474 0 476 2 476 8 L474 280 L477 507 C477 513 475 515 469 515 L392 515 C386 515 384 513 384 507 L385 295 L385 223 C385 219 384 214 384 211 C363 113 310 61 243 61 C179 61 134 103 134 196 L134 295 L136 507 C136 513 134 515 128 515 L52 515 C46 515 44 513 44 507 L46 295 L46 193 C46 58 112 -12 218 -12 C297 -12 354 32 387 83 L387 83 Z " />
<glyph glyph-name="Uhungarumlaut" unicode="&#x170;" horiz-adv-x="607" d="M352 888 C355 892 355 896 351 900 L314 939 C310 943 306 943 303 939 L188 782 C184 778 185 774 189 771 L211 751 C215 748 219 748 222 752 L352 888 Z M502 886 C505 890 505 894 501 898 L464 935 C460 939 456 939 453 935 L338 779 C334 775 335 771 339 768 L361 748 C365 745 369 745 372 749 L502 886 Z M562 265 L562 483 L564 692 C564 698 562 700 556 700 L481 700 C475 700 473 698 473 692 L476 483 L476 265 C476 146 427 66 305 66 C186 66 138 146 138 265 L137 485 L141 692 C141 697 138 700 133 700 L50 700 C45 700 42 697 42 692 L46 483 L45 265 C44 89 132 -13 305 -13 C478 -13 562 89 562 265 L562 265 Z " />
<glyph glyph-name="uhungarumlaut" unicode="&#x171;" horiz-adv-x="525" d="M308 715 L271 754 C267 758 263 758 260 754 L145 597 C141 593 142 589 146 586 L168 566 C172 563 176 563 179 567 L309 703 C312 707 312 711 308 715 L308 715 Z M458 713 L421 750 C417 754 413 754 410 750 L295 594 C291 590 292 586 296 583 L318 563 C322 560 326 560 329 564 L459 701 C462 705 462 709 458 713 L458 713 Z M387 83 C388 85 390 85 390 82 L387 8 C387 3 390 0 395 0 L468 0 C474 0 476 2 476 8 L474 280 L477 507 C477 513 475 515 469 515 L392 515 C386 515 384 513 384 507 L385 295 L385 223 C385 219 384 214 384 211 C363 113 310 61 243 61 C179 61 134 103 134 196 L134 295 L136 507 C136 513 134 515 128 515 L52 515 C46 515 44 513 44 507 L46 295 L46 193 C46 58 112 -12 218 -12 C297 -12 354 32 387 83 L387 83 Z " />
<glyph glyph-name="Uogonek" unicode="&#x172;" horiz-adv-x="607" d="M388 -192 C394 -192 396 -190 396 -184 L396 -134 C396 -128 394 -126 388 -126 L345 -126 C310 -126 285 -111 285 -78 C285 -51 304 -27 322 -13 C484 -6 562 95 562 265 L562 483 L564 692 C564 698 562 700 556 700 L481 700 C475 700 473 698 473 692 L476 483 L476 265 C476 146 427 66 305 66 C186 66 138 146 138 265 L137 485 L141 692 C141 697 138 700 133 700 L50 700 C45 700 42 697 42 692 L46 483 L45 265 C44 106 115 8 256 -10 C230 -31 213 -60 213 -96 C213 -154 264 -192 338 -192 L388 -192 Z " />
<glyph glyph-name="uogonek" unicode="&#x173;" horiz-adv-x="525" d="M496 -184 L496 -134 C496 -128 494 -126 488 -126 L445 -126 C410 -126 385 -111 385 -78 C385 -45 414 -17 434 -4 C436 -3 437 -1 438 0 L468 0 C474 0 476 2 476 8 L474 280 L477 507 C477 513 475 515 469 515 L392 515 C386 515 384 513 384 507 L385 295 L385 223 C385 219 384 214 384 211 C363 113 310 61 243 61 C179 61 134 103 134 196 L134 295 L136 507 C136 513 134 515 128 515 L52 515 C46 515 44 513 44 507 L46 295 L46 193 C46 58 112 -12 218 -12 C297 -12 354 32 387 83 C388 85 390 85 390 82 L387 11 C346 -12 313 -46 313 -96 C313 -154 364 -192 438 -192 L488 -192 C494 -192 496 -190 496 -184 L496 -184 Z " />
<glyph glyph-name="Wcircumflex" unicode="&#x174;" horiz-adv-x="880" d="M593 791 L462 881 C457 884 453 885 447 885 L424 885 C418 885 414 884 409 881 L277 791 C272 788 271 785 273 780 L287 744 C289 739 292 738 297 741 L431 810 C435 812 437 812 441 810 L573 741 C578 738 581 739 583 744 L597 780 C599 785 598 788 593 791 L593 791 Z M691 8 L868 692 C869 697 867 700 862 700 L790 700 C784 700 781 698 780 692 L638 96 C638 93 636 93 636 96 L497 692 C496 698 493 700 487 700 L397 700 C391 700 388 698 387 692 L251 96 C251 93 249 93 249 96 L106 692 C105 698 102 700 96 700 L17 700 C12 700 10 697 11 692 L187 8 C188 2 191 0 197 0 L292 0 C298 0 301 2 302 8 L436 566 C436 569 438 569 438 566 L578 8 C579 2 582 0 588 0 L681 0 C687 0 690 2 691 8 L691 8 Z " />
<glyph glyph-name="wcircumflex" unicode="&#x175;" horiz-adv-x="705" d="M506 606 L375 696 C370 699 366 700 360 700 L337 700 C331 700 327 699 322 696 L190 606 C185 603 184 600 186 595 L200 559 C202 554 205 553 210 556 L344 625 C348 627 350 627 354 625 L486 556 C491 553 494 554 496 559 L510 595 C512 600 511 603 506 606 L506 606 Z M569 8 L696 507 C697 512 695 515 690 515 L621 515 C615 515 612 513 611 507 L516 87 C516 84 514 84 514 87 L412 507 C411 513 408 515 402 515 L310 515 C304 515 301 513 300 507 L201 79 C201 76 199 76 199 79 L100 507 C99 513 96 515 90 515 L15 515 C10 515 8 512 9 507 L142 8 C143 2 146 0 152 0 L242 0 C248 0 251 2 252 8 L348 437 C348 440 350 440 350 437 L459 8 C460 2 463 0 469 0 L559 0 C565 0 568 2 569 8 L569 8 Z " />
<glyph glyph-name="Ycircumflex" unicode="&#x176;" horiz-adv-x="567" d="M428 744 L442 780 C444 785 443 788 438 791 L307 881 C302 884 298 885 292 885 L269 885 C263 885 259 884 254 881 L122 791 C117 788 116 785 118 780 L132 744 C134 739 137 738 142 741 L281 813 L418 741 C423 738 426 739 428 744 L428 744 Z M322 0 C328 0 330 2 330 8 L327 243 L328 244 L560 693 C563 697 561 700 556 700 L474 700 C468 700 465 698 463 693 L287 328 L112 693 C110 698 107 700 101 700 L11 700 C6 700 4 697 7 693 L238 245 L234 8 C234 2 236 0 242 0 L322 0 Z " />
<glyph glyph-name="ycircumflex" unicode="&#x177;" horiz-adv-x="474" d="M391 606 L260 696 C255 699 251 700 245 700 L222 700 C216 700 212 699 207 696 L75 606 C70 603 69 600 71 595 L85 559 C87 554 90 553 95 556 L229 625 C233 627 235 627 239 625 L371 556 C376 553 379 554 381 559 L395 595 C397 600 396 603 391 606 L391 606 Z M227 -170 C233 -170 236 -168 238 -162 L470 507 C472 512 470 515 465 515 L387 515 C381 515 378 513 377 507 L253 118 L107 508 C105 513 102 515 96 515 L9 515 C4 515 2 512 4 508 L206 -1 L151 -162 C149 -167 151 -170 156 -170 L227 -170 Z " />
<glyph glyph-name="Ydieresis" unicode="&#x178;" horiz-adv-x="567" d="M391 760 C397 760 399 762 399 768 L399 851 C399 857 397 859 391 859 L328 859 C322 859 320 857 320 851 L320 768 C320 762 322 760 328 760 L391 760 Z M232 760 C238 760 240 762 240 768 L240 851 C240 857 238 859 232 859 L170 859 C164 859 162 857 162 851 L162 768 C162 762 164 760 170 760 L232 760 Z M322 0 C328 0 330 2 330 8 L327 243 L328 244 L560 693 C563 697 561 700 556 700 L474 700 C468 700 465 698 463 693 L287 328 L112 693 C110 698 107 700 101 700 L11 700 C6 700 4 697 7 693 L238 245 L234 8 C234 2 236 0 242 0 L322 0 Z " />
<glyph glyph-name="Zacute" unicode="&#x179;" horiz-adv-x="569" d="M424 828 L404 887 C402 893 399 894 394 892 L177 789 C172 787 171 784 173 779 L187 744 C189 739 192 738 198 740 L419 817 C425 819 426 822 424 828 L424 828 Z M534 0 C540 0 542 2 542 8 L542 67 C542 73 540 75 534 75 L142 75 L532 610 C536 614 537 618 537 624 L537 692 C537 698 535 700 529 700 L61 700 C55 700 53 698 53 692 L53 633 C53 627 55 625 61 625 L426 625 L32 88 C28 84 27 80 27 74 L27 8 C27 2 29 0 35 0 L534 0 Z " />
<glyph glyph-name="zacute" unicode="&#x17a;" horiz-adv-x="466" d="M375 643 L355 702 C353 708 350 709 345 707 L128 604 C123 602 122 599 124 594 L138 559 C140 554 143 553 149 555 L370 632 C376 634 377 637 375 643 L375 643 Z M428 0 C434 0 436 2 436 8 L436 63 C436 69 434 71 428 71 L139 71 L419 438 C423 442 424 446 424 452 L424 507 C424 513 422 515 416 515 L60 515 C54 515 52 513 52 507 L52 452 C52 446 54 444 60 444 L312 444 L36 77 C32 73 31 69 31 63 L31 8 C31 2 33 0 39 0 L428 0 Z " />
<glyph glyph-name="Zdotaccent" unicode="&#x17b;" horiz-adv-x="569" d="M328 763 L328 846 C328 852 326 854 320 854 L243 854 C237 854 235 852 235 846 L235 763 C235 757 237 755 243 755 L320 755 C326 755 328 757 328 763 L328 763 Z M534 75 L148 75 C145 75 143 77 146 80 L532 610 C536 614 537 618 537 624 L537 692 C537 698 535 700 529 700 L61 700 C55 700 53 698 53 692 L53 633 C53 627 55 625 61 625 L420 625 C423 625 425 623 422 620 L32 88 C28 84 27 80 27 74 L27 8 C27 2 29 0 35 0 L534 0 C540 0 542 2 542 8 L542 67 C542 73 540 75 534 75 L534 75 Z " />
<glyph glyph-name="zdotaccent" unicode="&#x17c;" horiz-adv-x="466" d="M279 578 L279 661 C279 667 277 669 271 669 L194 669 C188 669 186 667 186 661 L186 578 C186 572 188 570 194 570 L271 570 C277 570 279 572 279 578 L279 578 Z M428 0 C434 0 436 2 436 8 L436 63 C436 69 434 71 428 71 L139 71 L419 438 C423 442 424 446 424 452 L424 507 C424 513 422 515 416 515 L60 515 C54 515 52 513 52 507 L52 452 C52 446 54 444 60 444 L312 444 L36 77 C32 73 31 69 31 63 L31 8 C31 2 33 0 39 0 L428 0 Z " />
<glyph glyph-name="Zcaron" unicode="&#x17d;" horiz-adv-x="569" d="M443 851 L429 887 C427 892 424 893 419 890 L286 821 C282 819 280 819 276 821 L143 890 C138 893 135 892 133 887 L119 851 C117 846 118 843 123 840 L255 750 C260 747 264 746 270 746 L293 746 C299 746 303 747 308 750 L439 840 C444 843 445 846 443 851 L443 851 Z M534 0 C540 0 542 2 542 8 L542 67 C542 73 540 75 534 75 L142 75 L532 610 C536 614 537 618 537 624 L537 692 C537 698 535 700 529 700 L61 700 C55 700 53 698 53 692 L53 633 C53 627 55 625 61 625 L426 625 L32 88 C28 84 27 80 27 74 L27 8 C27 2 29 0 35 0 L534 0 Z " />
<glyph glyph-name="zcaron" unicode="&#x17e;" horiz-adv-x="466" d="M394 666 L380 702 C378 707 375 708 370 705 L237 636 C233 634 231 634 227 636 L94 705 C89 708 86 707 84 702 L70 666 C68 661 69 658 74 655 L206 565 C211 562 215 561 221 561 L244 561 C250 561 254 562 259 565 L390 655 C395 658 396 661 394 666 L394 666 Z M428 71 L145 71 C142 71 141 73 143 76 L419 438 C423 442 424 446 424 452 L424 507 C424 513 422 515 416 515 L60 515 C54 515 52 513 52 507 L52 452 C52 446 54 444 60 444 L306 444 C309 444 310 442 308 439 L36 77 C32 73 31 69 31 63 L31 8 C31 2 33 0 39 0 L428 0 C434 0 436 2 436 8 L436 63 C436 69 434 71 428 71 L428 71 Z " />
<glyph glyph-name="florin" unicode="&#x192;" horiz-adv-x="353" d="M202 -27 L202 439 C202 443 204 445 208 445 L316 445 C322 445 324 447 324 453 L324 507 C324 513 322 515 316 515 L208 515 C204 515 202 517 202 521 L202 553 C202 618 228 643 268 643 C287 643 302 641 316 637 C321 636 324 638 324 643 L324 696 C324 702 322 705 316 706 C298 710 273 713 249 713 C183 713 113 673 113 560 L113 521 C113 517 111 515 107 515 L40 515 C34 515 32 513 32 507 L32 453 C32 447 34 445 40 445 L107 445 C111 445 113 443 113 439 L113 -19 C113 -85 88 -109 47 -109 C29 -109 13 -108 -1 -104 C-6 -103 -9 -105 -9 -110 L-9 -162 C-9 -168 -7 -171 -1 -172 C18 -176 43 -180 67 -180 C133 -180 202 -140 202 -27 L202 -27 Z " />
<glyph glyph-name="Scommaaccent" unicode="&#x218;" horiz-adv-x="617" d="M589 205 C589 478 133 340 133 520 C133 600 200 636 296 636 C410 636 469 591 476 500 C477 494 479 492 485 492 L566 492 C571 492 574 495 573 500 C558 644 459 712 298 712 C144 712 42 639 42 511 C42 245 498 387 498 193 C498 101 424 63 320 63 C183 63 133 128 125 233 C124 239 122 241 116 241 L36 241 C31 241 28 238 28 233 C34 73 139 -12 317 -12 C476 -12 589 61 589 205 L589 205 Z M286 -204 L338 -131 C342 -127 343 -123 343 -117 L343 -46 C343 -40 341 -38 335 -38 L264 -38 C258 -38 256 -40 256 -46 L256 -119 C256 -123 255 -127 254 -131 L235 -202 C234 -207 236 -210 241 -210 L273 -210 C279 -210 282 -208 286 -204 L286 -204 Z " />
<glyph glyph-name="scommaaccent" unicode="&#x219;" horiz-adv-x="501" d="M126 381 C126 438 171 464 242 464 C316 464 365 433 371 368 C372 362 374 360 380 360 L449 360 C455 360 457 363 457 368 C451 476 362 526 243 526 C121 526 39 474 39 375 C39 167 387 276 387 141 C387 84 336 52 260 52 C169 52 119 89 116 171 C116 177 113 179 108 179 L36 179 C30 179 28 176 28 171 C32 49 126 -11 260 -11 C380 -11 474 47 474 148 C474 364 126 253 126 381 L126 381 Z M229 -204 L281 -131 C285 -127 286 -123 286 -117 L286 -46 C286 -40 284 -38 278 -38 L207 -38 C201 -38 199 -40 199 -46 L199 -119 C199 -123 198 -127 197 -131 L178 -202 C177 -207 179 -210 184 -210 L216 -210 C222 -210 225 -208 229 -204 L229 -204 Z " />
<glyph glyph-name="Tcommaaccent" unicode="&#x21a;" horiz-adv-x="526" d="M304 0 C310 0 312 2 312 8 L307 347 L311 619 C311 623 313 625 317 625 L506 625 C512 625 514 627 514 633 L514 692 C514 698 512 700 506 700 L20 700 C14 700 12 698 12 692 L12 633 C12 627 14 625 20 625 L209 625 C213 625 215 623 215 619 L219 347 L214 8 C214 2 216 0 222 0 L304 0 Z M245 -204 L297 -131 C301 -127 302 -123 302 -117 L302 -46 C302 -40 300 -38 294 -38 L223 -38 C217 -38 215 -40 215 -46 L215 -119 C215 -123 214 -127 213 -131 L194 -202 C193 -207 195 -210 200 -210 L232 -210 C238 -210 241 -208 245 -204 L245 -204 Z " />
<glyph glyph-name="tcommaaccent" unicode="&#x21b;" horiz-adv-x="325" d="M297 4 C303 5 305 8 305 14 L305 64 C305 69 302 71 297 70 C283 66 263 63 243 63 C199 63 178 82 178 144 L178 444 L297 444 C303 444 305 446 305 452 L305 507 C305 513 303 515 297 515 L178 515 L180 636 C180 642 178 644 172 644 L95 644 C89 644 87 642 87 636 L88 515 L30 515 C24 515 22 513 22 507 L22 452 C22 446 24 444 30 444 L88 444 L88 142 C88 30 151 -9 226 -9 C250 -9 276 -3 297 4 L297 4 Z M182 -204 L234 -131 C238 -127 239 -123 239 -117 L239 -46 C239 -40 237 -38 231 -38 L160 -38 C154 -38 152 -40 152 -46 L152 -119 C152 -123 151 -127 150 -131 L131 -202 C130 -207 132 -210 137 -210 L169 -210 C175 -210 178 -208 182 -204 L182 -204 Z " />
<glyph glyph-name="dotlessj" unicode="&#x237;" horiz-adv-x="198" d="M138 -170 C144 -170 146 -168 146 -162 L143 166 L146 507 C146 513 144 515 138 515 L60 515 C54 515 52 513 52 507 L55 166 L52 -162 C52 -168 54 -170 60 -170 L138 -170 Z " />
<glyph glyph-name="schwa" unicode="&#x259;" horiz-adv-x="549" d="M274 -12 C423 -12 515 98 515 259 C515 416 429 527 269 527 C136 527 59 450 43 344 C42 339 45 336 50 336 L121 336 C127 336 129 338 130 344 C146 420 192 460 268 460 C369 460 420 394 423 270 L42 270 C37 270 34 267 34 262 C37 91 124 -12 274 -12 L274 -12 Z M273 54 C184 54 137 121 132 200 C132 204 134 206 138 206 L420 206 C407 109 358 54 273 54 L273 54 Z " />
<glyph glyph-name="uni02BB" unicode="&#x2bb;" horiz-adv-x="167" d="M36 608 C33 603 32 599 32 593 L32 507 C32 501 34 499 40 499 L114 499 C120 499 122 501 122 507 L122 596 C122 600 123 604 124 608 L147 694 C148 699 146 702 141 702 L106 702 C100 702 97 700 94 695 L36 608 Z " />
<glyph glyph-name="circumflex" unicode="&#x2c6;" horiz-adv-x="500" d="M397 559 L411 595 C413 600 412 603 407 606 L276 696 C271 699 267 700 261 700 L238 700 C232 700 228 699 223 696 L91 606 C86 603 85 600 87 595 L101 559 C103 554 106 553 111 556 L250 628 L387 556 C392 553 395 554 397 559 L397 559 Z " />
<glyph glyph-name="caron" unicode="&#x2c7;" horiz-adv-x="500" d="M411 666 L397 702 C395 707 392 708 387 705 L254 636 C250 634 248 634 244 636 L111 705 C106 708 103 707 101 702 L87 666 C85 661 86 658 91 655 L223 565 C228 562 232 561 238 561 L261 561 C267 561 271 562 276 565 L407 655 C412 658 413 661 411 666 L411 666 Z " />
<glyph glyph-name="uni02C9" unicode="&#x2c9;" horiz-adv-x="500" d="M397 591 L397 644 C397 650 395 652 389 652 L108 652 C102 652 100 650 100 644 L100 591 C100 585 102 583 108 583 L389 583 C395 583 397 585 397 591 L397 591 Z " />
<glyph glyph-name="breve" unicode="&#x2d8;" horiz-adv-x="500" d="M383 699 L336 699 C331 699 328 697 328 691 C324 652 296 626 250 626 C202 626 176 653 172 691 C172 697 169 699 164 699 L117 699 C111 699 109 696 109 691 C113 616 167 560 250 560 C333 560 387 616 391 691 C391 696 389 699 383 699 L383 699 Z " />
<glyph glyph-name="dotaccent" unicode="&#x2d9;" horiz-adv-x="500" d="M296 578 L296 661 C296 667 294 669 288 669 L211 669 C205 669 203 667 203 661 L203 578 C203 572 205 570 211 570 L288 570 C294 570 296 572 296 578 L296 578 Z " />
<glyph glyph-name="ring" unicode="&#x2da;" horiz-adv-x="500" d="M357 663 C357 722 311 767 249 767 C188 767 142 722 142 663 C142 603 188 558 249 558 C311 558 357 603 357 663 L357 663 Z M194 663 C194 703 216 726 249 726 C281 726 305 703 305 663 C305 623 281 599 249 599 C216 599 194 623 194 663 L194 663 Z " />
<glyph glyph-name="ogonek" unicode="&#x2db;" horiz-adv-x="500" d="M324 -184 L324 -134 C324 -128 322 -126 316 -126 L273 -126 C238 -126 213 -111 213 -78 C213 -45 242 -17 262 -4 C267 -1 268 2 265 7 L257 20 C254 25 251 26 245 24 C190 4 141 -35 141 -96 C141 -154 192 -192 266 -192 L316 -192 C322 -192 324 -190 324 -184 L324 -184 Z " />
<glyph glyph-name="tilde" unicode="&#x2dc;" horiz-adv-x="500" d="M390 678 C390 683 388 686 382 686 L347 686 C342 686 339 684 339 678 C338 646 328 624 303 624 C269 624 254 690 194 690 C138 690 112 642 110 579 C110 574 112 571 118 571 L153 571 C158 571 161 573 161 579 C162 611 172 632 195 632 C233 632 244 566 306 566 C362 566 388 611 390 678 L390 678 Z " />
<glyph glyph-name="hungarumlaut" unicode="&#x2dd;" horiz-adv-x="500" d="M298 715 L261 754 C257 758 253 758 250 754 L135 597 C131 593 132 589 136 586 L158 566 C162 563 166 563 169 567 L299 703 C302 707 302 711 298 715 L298 715 Z M448 713 L411 750 C407 754 403 754 400 750 L285 594 C281 590 282 586 286 583 L308 563 C312 560 316 560 319 564 L449 701 C452 705 452 709 448 713 L448 713 Z " />
<glyph glyph-name="gravecmb" unicode="&#x300;" d="M101 594 C103 599 102 602 97 604 L-120 707 C-125 709 -128 708 -130 702 L-150 643 C-152 637 -151 634 -145 632 L76 555 C82 553 85 554 87 559 L101 594 Z " />
<glyph glyph-name="acutecmb" unicode="&#x301;" d="M137 632 C143 634 144 637 142 643 L122 702 C120 708 117 709 112 707 L-105 604 C-110 602 -111 599 -109 594 L-95 559 C-93 554 -90 553 -84 555 L137 632 Z " />
<glyph glyph-name="circumflexcmb" unicode="&#x302;" d="M161 595 C163 600 162 603 157 606 L26 696 C21 699 17 700 11 700 L-12 700 C-18 700 -22 699 -27 696 L-159 606 C-164 603 -165 600 -163 595 L-149 559 C-147 554 -144 553 -139 556 L-5 625 C-1 627 1 627 5 625 L137 556 C142 553 145 554 147 559 L161 595 Z " />
<glyph glyph-name="tildecmb" unicode="&#x303;" d="M140 678 C140 683 138 686 132 686 L97 686 C92 686 89 684 89 678 C88 646 78 624 53 624 C19 624 4 690 -56 690 C-112 690 -138 642 -140 579 C-140 574 -138 571 -132 571 L-97 571 C-92 571 -89 573 -89 579 C-88 611 -78 632 -55 632 C-17 632 -6 566 56 566 C112 566 138 611 140 678 L140 678 Z " />
<glyph glyph-name="macroncmb" unicode="&#x304;" d="M139 583 C145 583 147 585 147 591 L147 644 C147 650 145 652 139 652 L-142 652 C-148 652 -150 650 -150 644 L-150 591 C-150 585 -148 583 -142 583 L139 583 Z " />
<glyph glyph-name="brevecmb" unicode="&#x306;" d="M141 691 C141 696 139 699 133 699 L86 699 C81 699 78 697 78 691 C74 652 46 626 0 626 C-48 626 -74 653 -78 691 C-78 697 -81 699 -86 699 L-133 699 C-139 699 -141 696 -141 691 C-137 616 -83 560 0 560 C83 560 137 616 141 691 L141 691 Z " />
<glyph glyph-name="dotaccentcmb" unicode="&#x307;" d="M38 570 C44 570 46 572 46 578 L46 661 C46 667 44 669 38 669 L-39 669 C-45 669 -47 667 -47 661 L-47 578 C-47 572 -45 570 -39 570 L38 570 Z " />
<glyph glyph-name="dieresiscmb" unicode="&#x308;" d="M-49 575 C-43 575 -41 577 -41 583 L-41 666 C-41 672 -43 674 -49 674 L-111 674 C-117 674 -119 672 -119 666 L-119 583 C-119 577 -117 575 -111 575 L-49 575 Z M110 575 C116 575 118 577 118 583 L118 666 C118 672 116 674 110 674 L47 674 C41 674 39 672 39 666 L39 583 C39 577 41 575 47 575 L110 575 Z " />
<glyph glyph-name="ringcmb" unicode="&#x30a;" d="M107 663 C107 722 61 767 -1 767 C-62 767 -108 722 -108 663 C-108 603 -62 558 -1 558 C61 558 107 603 107 663 L107 663 Z M-56 663 C-56 703 -34 726 -1 726 C31 726 55 703 55 663 C55 623 31 599 -1 599 C-34 599 -56 623 -56 663 L-56 663 Z " />
<glyph glyph-name="hungarumlautcmb" unicode="&#x30b;" d="M49 703 C52 707 52 711 48 715 L11 754 C7 758 3 758 0 754 L-115 597 C-119 593 -118 589 -114 586 L-92 566 C-88 563 -84 563 -81 567 L49 703 Z M199 701 C202 705 202 709 198 713 L161 750 C157 754 153 754 150 750 L35 594 C31 590 32 586 36 583 L58 563 C62 560 66 560 69 564 L199 701 Z " />
<glyph glyph-name="caroncmb" unicode="&#x30c;" d="M157 655 C162 658 163 661 161 666 L147 702 C145 707 142 708 137 705 L4 636 C0 634 -2 634 -6 636 L-139 705 C-144 708 -147 707 -149 702 L-163 666 C-165 661 -164 658 -159 655 L-27 565 C-22 562 -18 561 -12 561 L11 561 C17 561 21 562 26 565 L157 655 Z " />
<glyph glyph-name="commaturnedabovecmb" unicode="&#x312;" d="M27 570 C33 570 35 572 35 578 L35 651 C35 655 36 659 37 663 L58 737 C59 742 57 745 52 745 L15 745 C9 745 6 743 2 739 L-55 663 C-59 659 -60 655 -60 649 L-60 578 C-60 572 -58 570 -52 570 L27 570 Z " />
<glyph glyph-name="commaaccentcmb" unicode="&#x326;" d="M-25 -210 C-19 -210 -16 -208 -12 -204 L40 -131 C44 -127 45 -123 45 -117 L45 -46 C45 -40 43 -38 37 -38 L-34 -38 C-40 -38 -42 -40 -42 -46 L-42 -119 C-42 -123 -43 -127 -44 -131 L-63 -202 C-64 -207 -62 -210 -57 -210 L-25 -210 Z " />
<glyph glyph-name="cedillacmb" unicode="&#x327;" d="M45 -2 C46 3 44 6 39 7 L-21 16 C-27 17 -30 15 -32 9 L-87 -146 C-89 -152 -87 -155 -82 -156 L-11 -171 C-5 -172 -2 -171 -1 -165 L45 -2 Z " />
<glyph glyph-name="ogonekcmb" unicode="&#x328;" d="M66 -192 C72 -192 74 -190 74 -184 L74 -134 C74 -128 72 -126 66 -126 L23 -126 C-12 -126 -37 -111 -37 -78 C-37 -45 -8 -17 12 -4 C17 -1 18 2 15 7 L7 20 C4 25 1 26 -5 24 C-60 4 -109 -35 -109 -96 C-109 -154 -58 -192 16 -192 L66 -192 Z " />
<glyph glyph-name="Delta" unicode="&#x394;" horiz-adv-x="652" d="M629 0 C635 0 637 2 637 8 L637 71 C637 76 636 82 634 86 L391 693 C389 698 386 700 380 700 L274 700 C268 700 265 698 263 693 L18 86 C16 82 18 79 23 79 C17 79 15 77 15 71 L15 8 C15 2 17 0 23 0 L629 0 Z M102 79 C108 79 111 81 113 86 L321 629 C322 632 324 632 325 629 L538 85 C539 81 538 79 534 79 L102 79 Z " />
<glyph glyph-name="Omega" unicode="&#x3a9;" horiz-adv-x="755" d="M312 68 C312 74 310 77 305 80 C211 137 140 224 140 369 C140 535 229 636 378 636 C527 636 616 535 616 369 C616 225 545 138 450 80 C445 77 443 74 443 68 L442 8 C442 2 444 0 450 0 L690 0 C696 0 698 2 698 8 L698 68 C698 74 696 76 690 76 L574 76 C571 76 570 78 573 80 C657 148 712 243 712 374 C712 585 579 713 378 713 C176 713 43 585 43 374 C43 243 98 148 183 80 C186 78 185 76 182 76 L66 76 C60 76 58 74 58 68 L58 8 C58 2 60 0 66 0 L305 0 C311 0 313 2 313 8 L312 68 Z " />
<glyph glyph-name="mu" unicode="&#x3bc;" horiz-adv-x="523" d="M136 -162 L135 12 C161 -4 192 -12 228 -12 C307 -12 364 32 397 83 C398 85 400 85 400 82 L397 8 C397 3 400 0 405 0 L478 0 C484 0 486 2 486 8 L484 280 L487 507 C487 513 485 515 479 515 L402 515 C396 515 394 513 394 507 L395 295 L395 223 C395 219 394 214 394 211 C373 113 320 61 253 61 C189 61 144 103 144 196 L144 295 L146 507 C146 513 144 515 138 515 L52 515 C46 515 44 513 44 507 L46 224 L44 -162 C44 -168 46 -170 52 -170 L128 -170 C134 -170 136 -168 136 -162 L136 -162 Z " />
<glyph glyph-name="pi" unicode="&#x3c0;" horiz-adv-x="529" d="M134 0 C140 0 142 2 142 8 L141 220 L141 438 C141 442 143 444 147 444 L385 444 C389 444 391 442 391 438 L391 235 L390 8 C390 2 392 0 398 0 L475 0 C481 0 483 2 483 8 L481 220 L482 507 C482 513 480 515 474 515 L58 515 C52 515 50 513 50 507 L51 235 L49 8 C49 2 51 0 57 0 L134 0 Z " />
<glyph glyph-name="Wgrave" unicode="&#x1e80;" horiz-adv-x="880" d="M533 789 L316 892 C311 894 308 893 306 887 L286 828 C284 822 285 819 291 817 L512 740 C518 738 521 739 523 744 L537 779 C539 784 538 787 533 789 L533 789 Z M691 8 L868 692 C869 697 867 700 862 700 L790 700 C784 700 781 698 780 692 L638 96 C638 93 636 93 636 96 L497 692 C496 698 493 700 487 700 L397 700 C391 700 388 698 387 692 L251 96 C251 93 249 93 249 96 L106 692 C105 698 102 700 96 700 L17 700 C12 700 10 697 11 692 L187 8 C188 2 191 0 197 0 L292 0 C298 0 301 2 302 8 L436 566 C436 569 438 569 438 566 L578 8 C579 2 582 0 588 0 L681 0 C687 0 690 2 691 8 L691 8 Z " />
<glyph glyph-name="wgrave" unicode="&#x1e81;" horiz-adv-x="705" d="M446 604 L229 707 C224 709 221 708 219 702 L199 643 C197 637 198 634 204 632 L425 555 C431 553 434 554 436 559 L450 594 C452 599 451 602 446 604 L446 604 Z M569 8 L696 507 C697 512 695 515 690 515 L621 515 C615 515 612 513 611 507 L516 87 C516 84 514 84 514 87 L412 507 C411 513 408 515 402 515 L310 515 C304 515 301 513 300 507 L201 79 C201 76 199 76 199 79 L100 507 C99 513 96 515 90 515 L15 515 C10 515 8 512 9 507 L142 8 C143 2 146 0 152 0 L242 0 C248 0 251 2 252 8 L348 437 C348 440 350 440 350 437 L459 8 C460 2 463 0 469 0 L559 0 C565 0 568 2 569 8 L569 8 Z " />
<glyph glyph-name="Wacute" unicode="&#x1e82;" horiz-adv-x="880" d="M578 828 L558 887 C556 893 553 894 548 892 L331 789 C326 787 325 784 327 779 L341 744 C343 739 346 738 352 740 L573 817 C579 819 580 822 578 828 L578 828 Z M691 8 L868 692 C869 697 867 700 862 700 L790 700 C784 700 781 698 780 692 L638 96 C638 93 636 93 636 96 L497 692 C496 698 493 700 487 700 L397 700 C391 700 388 698 387 692 L251 96 C251 93 249 93 249 96 L106 692 C105 698 102 700 96 700 L17 700 C12 700 10 697 11 692 L187 8 C188 2 191 0 197 0 L292 0 C298 0 301 2 302 8 L436 566 C436 569 438 569 438 566 L578 8 C579 2 582 0 588 0 L681 0 C687 0 690 2 691 8 L691 8 Z " />
<glyph glyph-name="wacute" unicode="&#x1e83;" horiz-adv-x="705" d="M491 643 L471 702 C469 708 466 709 461 707 L244 604 C239 602 238 599 240 594 L254 559 C256 554 259 553 265 555 L486 632 C492 634 493 637 491 643 L491 643 Z M569 8 L696 507 C697 512 695 515 690 515 L621 515 C615 515 612 513 611 507 L516 87 C516 84 514 84 514 87 L412 507 C411 513 408 515 402 515 L310 515 C304 515 301 513 300 507 L201 79 C201 76 199 76 199 79 L100 507 C99 513 96 515 90 515 L15 515 C10 515 8 512 9 507 L142 8 C143 2 146 0 152 0 L242 0 C248 0 251 2 252 8 L348 437 C348 440 350 440 350 437 L459 8 C460 2 463 0 469 0 L559 0 C565 0 568 2 569 8 L569 8 Z " />
<glyph glyph-name="Wdieresis" unicode="&#x1e84;" horiz-adv-x="880" d="M547 760 C553 760 555 762 555 768 L555 851 C555 857 553 859 547 859 L484 859 C478 859 476 857 476 851 L476 768 C476 762 478 760 484 760 L547 760 Z M388 760 C394 760 396 762 396 768 L396 851 C396 857 394 859 388 859 L326 859 C320 859 318 857 318 851 L318 768 C318 762 320 760 326 760 L388 760 Z M691 8 L868 692 C869 697 867 700 862 700 L790 700 C784 700 781 698 780 692 L638 96 C638 93 636 93 636 96 L497 692 C496 698 493 700 487 700 L397 700 C391 700 388 698 387 692 L251 96 C251 93 249 93 249 96 L106 692 C105 698 102 700 96 700 L17 700 C12 700 10 697 11 692 L187 8 C188 2 191 0 197 0 L292 0 C298 0 301 2 302 8 L436 566 C436 569 438 569 438 566 L578 8 C579 2 582 0 588 0 L681 0 C687 0 690 2 691 8 L691 8 Z " />
<glyph glyph-name="wdieresis" unicode="&#x1e85;" horiz-adv-x="705" d="M459 575 C465 575 467 577 467 583 L467 666 C467 672 465 674 459 674 L396 674 C390 674 388 672 388 666 L388 583 C388 577 390 575 396 575 L459 575 Z M300 575 C306 575 308 577 308 583 L308 666 C308 672 306 674 300 674 L238 674 C232 674 230 672 230 666 L230 583 C230 577 232 575 238 575 L300 575 Z M569 8 L696 507 C697 512 695 515 690 515 L621 515 C615 515 612 513 611 507 L516 87 C516 84 514 84 514 87 L412 507 C411 513 408 515 402 515 L310 515 C304 515 301 513 300 507 L201 79 C201 76 199 76 199 79 L100 507 C99 513 96 515 90 515 L15 515 C10 515 8 512 9 507 L142 8 C143 2 146 0 152 0 L242 0 C248 0 251 2 252 8 L348 437 C348 440 350 440 350 437 L459 8 C460 2 463 0 469 0 L559 0 C565 0 568 2 569 8 L569 8 Z " />
<glyph glyph-name="Ygrave" unicode="&#x1ef2;" horiz-adv-x="567" d="M382 779 C384 784 383 787 378 789 L161 892 C156 894 153 893 151 887 L131 828 C129 822 130 819 136 817 L357 740 C363 738 366 739 368 744 L382 779 Z M322 0 C328 0 330 2 330 8 L327 243 L328 244 L560 693 C563 697 561 700 556 700 L474 700 C468 700 465 698 463 693 L287 328 L112 693 C110 698 107 700 101 700 L11 700 C6 700 4 697 7 693 L238 245 L234 8 C234 2 236 0 242 0 L322 0 Z " />
<glyph glyph-name="ygrave" unicode="&#x1ef3;" horiz-adv-x="474" d="M331 604 L114 707 C109 709 106 708 104 702 L84 643 C82 637 83 634 89 632 L310 555 C316 553 319 554 321 559 L335 594 C337 599 336 602 331 604 L331 604 Z M227 -170 C233 -170 236 -168 238 -162 L470 507 C472 512 470 515 465 515 L387 515 C381 515 378 513 377 507 L253 118 L107 508 C105 513 102 515 96 515 L9 515 C4 515 2 512 4 508 L206 -1 L151 -162 C149 -167 151 -170 156 -170 L227 -170 Z " />
<glyph glyph-name="endash" unicode="&#x2013;" horiz-adv-x="400" d="M372 261 C378 261 380 263 380 269 L380 324 C380 330 378 332 372 332 L28 332 C22 332 20 330 20 324 L20 269 C20 263 22 261 28 261 L372 261 Z " />
<glyph glyph-name="emdash" unicode="&#x2014;" horiz-adv-x="600" d="M572 261 C578 261 580 263 580 269 L580 324 C580 330 578 332 572 332 L28 332 C22 332 20 330 20 324 L20 269 C20 263 22 261 28 261 L572 261 Z " />
<glyph glyph-name="quoteleft" unicode="&#x2018;" horiz-adv-x="167" d="M36 608 C33 603 32 599 32 593 L32 507 C32 501 34 499 40 499 L114 499 C120 499 122 501 122 507 L122 596 C122 600 123 604 124 608 L147 694 C148 699 146 702 141 702 L106 702 C100 702 97 700 94 695 L36 608 Z " />
<glyph glyph-name="quoteright" unicode="&#x2019;" horiz-adv-x="167" d="M73 509 L131 596 C134 601 135 605 135 611 L135 697 C135 703 133 705 127 705 L53 705 C47 705 45 703 45 697 L45 608 C45 604 44 600 43 596 L20 510 C19 505 21 502 26 502 L61 502 C67 502 70 504 73 509 L73 509 Z " />
<glyph glyph-name="quotesinglbase" unicode="&#x201a;" horiz-adv-x="167" d="M57 -98 C63 -98 66 -96 69 -91 L127 -4 C130 1 131 5 131 11 L131 97 C131 103 129 105 123 105 L49 105 C43 105 41 103 41 97 L41 8 C41 4 40 0 39 -4 L16 -90 C15 -95 17 -98 22 -98 L57 -98 Z " />
<glyph glyph-name="quotedblleft" unicode="&#x201c;" horiz-adv-x="308" d="M234 695 L176 608 C173 603 172 599 172 593 L172 507 C172 501 174 499 180 499 L254 499 C260 499 262 501 262 507 L262 596 C262 600 263 604 264 608 L287 694 C288 699 286 702 281 702 L246 702 C240 702 237 700 234 695 L234 695 Z M93 695 L35 608 C32 603 31 599 31 593 L31 507 C31 501 33 499 39 499 L113 499 C119 499 121 501 121 507 L121 596 C121 600 122 604 123 608 L146 694 C147 699 145 702 140 702 L105 702 C99 702 96 700 93 695 L93 695 Z " />
<glyph glyph-name="quotedblright" unicode="&#x201d;" horiz-adv-x="308" d="M62 502 C68 502 71 504 74 509 L132 596 C135 601 136 605 136 611 L136 697 C136 703 134 705 128 705 L54 705 C48 705 46 703 46 697 L46 608 C46 604 45 600 44 596 L21 510 C20 505 22 502 27 502 L62 502 Z M203 502 C209 502 212 504 215 509 L273 596 C276 601 277 605 277 611 L277 697 C277 703 275 705 269 705 L195 705 C189 705 187 703 187 697 L187 608 C187 604 186 600 185 596 L162 510 C161 505 163 502 168 502 L203 502 Z " />
<glyph glyph-name="quotedblbase" unicode="&#x201e;" horiz-adv-x="306" d="M64 -91 L122 -4 C125 1 126 5 126 11 L126 97 C126 103 124 105 118 105 L44 105 C38 105 36 103 36 97 L36 8 C36 4 35 0 34 -4 L11 -90 C10 -95 12 -98 17 -98 L52 -98 C58 -98 61 -96 64 -91 L64 -91 Z M205 -91 L263 -4 C266 1 267 5 267 11 L267 97 C267 103 265 105 259 105 L185 105 C179 105 177 103 177 97 L177 8 C177 4 176 0 175 -4 L152 -90 C151 -95 153 -98 158 -98 L193 -98 C199 -98 202 -96 205 -91 L205 -91 Z " />
<glyph glyph-name="dagger" unicode="&#x2020;" horiz-adv-x="446" d="M268 425 C268 429 270 431 274 431 L422 429 C428 429 430 431 430 437 L430 518 C430 524 428 526 422 526 L274 524 C270 524 268 526 268 530 L270 692 C270 698 268 700 262 700 L184 700 C178 700 176 698 176 692 L178 530 C178 526 176 524 172 524 L24 526 C18 526 16 524 16 518 L16 437 C16 431 18 429 24 429 L172 431 C176 431 178 429 178 425 L179 356 L176 8 C176 2 178 0 184 0 L262 0 C268 0 270 2 270 8 L267 356 L268 425 Z " />
<glyph glyph-name="daggerdbl" unicode="&#x2021;" horiz-adv-x="446" d="M430 263 C430 269 428 271 422 271 L274 269 C270 269 268 271 268 275 L267 344 L268 425 C268 429 270 431 274 431 L422 429 C428 429 430 431 430 437 L430 518 C430 524 428 526 422 526 L275 524 C271 524 269 526 269 530 L270 692 C270 698 268 700 262 700 L184 700 C178 700 176 698 176 692 L177 530 C177 526 175 524 171 524 L24 526 C18 526 16 524 16 518 L16 437 C16 431 18 429 24 429 L172 431 C176 431 178 429 178 425 L179 344 L178 275 C178 271 176 269 172 269 L24 271 C18 271 16 269 16 263 L16 182 C16 176 18 174 24 174 L172 176 C176 176 178 174 178 170 L176 8 C176 2 178 0 184 0 L262 0 C268 0 270 2 270 8 L268 170 C268 174 270 176 274 176 L422 174 C428 174 430 176 430 182 L430 263 Z " />
<glyph glyph-name="bullet" unicode="&#x2022;" horiz-adv-x="256" d="M218 193 C224 193 226 195 226 201 L226 398 C226 404 224 406 218 406 L38 406 C32 406 30 404 30 398 L30 201 C30 195 32 193 38 193 L218 193 Z " />
<glyph glyph-name="ellipsis" unicode="&#x2026;" horiz-adv-x="497" d="M465 8 L465 97 C465 103 463 105 457 105 L372 105 C366 105 364 103 364 97 L364 8 C364 2 366 0 372 0 L457 0 C463 0 465 2 465 8 L465 8 Z M300 8 L300 97 C300 103 298 105 292 105 L207 105 C201 105 199 103 199 97 L199 8 C199 2 201 0 207 0 L292 0 C298 0 300 2 300 8 L300 8 Z M134 8 L134 97 C134 103 132 105 126 105 L41 105 C35 105 33 103 33 97 L33 8 C33 2 35 0 41 0 L126 0 C132 0 134 2 134 8 L134 8 Z " />
<glyph glyph-name="perthousand" unicode="&#x2030;" horiz-adv-x="1188" d="M354 537 C354 647 293 710 198 710 C102 710 40 647 40 538 C40 427 103 368 197 368 C292 368 354 428 354 537 L354 537 Z M211 0 C217 0 220 2 223 7 L682 693 C684 697 683 700 678 700 L614 700 C608 700 605 698 602 693 L143 7 C141 3 142 0 147 0 L211 0 Z M119 537 C119 612 148 650 197 650 C245 650 275 612 275 537 C275 464 246 428 197 428 C148 428 119 465 119 537 L119 537 Z M1148 163 C1148 273 1086 332 991 332 C896 332 834 273 834 163 C834 53 896 -10 991 -10 C1086 -10 1148 53 1148 163 L1148 163 Z M788 163 C788 273 726 332 631 332 C536 332 474 273 474 163 C474 53 536 -10 631 -10 C726 -10 788 53 788 163 L788 163 Z M913 163 C913 235 941 272 991 272 C1040 272 1069 234 1069 163 C1069 87 1039 50 991 50 C943 50 913 87 913 163 L913 163 Z M553 163 C553 235 581 272 631 272 C680 272 709 234 709 163 C709 87 679 50 631 50 C583 50 553 87 553 163 L553 163 Z " />
<glyph glyph-name="minute" unicode="&#x2032;" horiz-adv-x="173" d="M65 497 C71 497 74 499 75 505 L137 692 C138 697 136 700 131 700 L55 700 C49 700 47 698 46 692 L21 505 C20 500 23 497 28 497 L65 497 Z " />
<glyph glyph-name="second" unicode="&#x2033;" horiz-adv-x="318" d="M214 497 C220 497 223 499 224 505 L286 692 C287 697 285 700 280 700 L204 700 C198 700 196 698 195 692 L170 505 C169 500 172 497 177 497 L214 497 Z M69 497 C75 497 78 499 79 505 L141 692 C142 697 140 700 135 700 L59 700 C53 700 51 698 50 692 L25 505 C24 500 27 497 32 497 L69 497 Z " />
<glyph glyph-name="guilsinglleft" unicode="&#x2039;" horiz-adv-x="254" d="M220 97 C225 97 226 100 223 103 L100 275 C97 279 97 281 100 285 L223 454 C226 457 225 460 220 460 L158 460 C152 460 149 458 145 454 L24 286 C20 282 20 278 24 273 L145 104 C149 99 152 97 158 97 L220 97 Z " />
<glyph glyph-name="guilsinglright" unicode="&#x203a;" horiz-adv-x="254" d="M96 97 C102 97 105 99 109 104 L230 273 C234 278 234 282 230 286 L109 454 C105 458 102 460 96 460 L34 460 C29 460 28 457 31 454 L154 285 C157 281 157 279 154 275 L31 103 C28 100 29 97 34 97 L96 97 Z " />
<glyph glyph-name="fraction" unicode="&#x2044;" horiz-adv-x="367" d="M-8 0 C-2 0 1 2 4 7 L431 693 C433 697 432 700 427 700 L375 700 C369 700 366 698 363 693 L-64 7 C-66 3 -65 0 -60 0 L-8 0 Z " />
<glyph glyph-name="zero.sups" unicode="&#x2070;" horiz-adv-x="329" d="M303 515 C303 642 248 708 164 708 C80 708 25 641 25 515 C25 392 80 324 164 324 C248 324 303 392 303 515 L303 515 Z M91 515 C91 611 117 655 164 655 C210 655 237 610 237 515 C237 419 210 376 164 376 C118 376 91 420 91 515 L91 515 Z " />
<glyph glyph-name="four.sups" unicode="&#x2074;" horiz-adv-x="314" d="M293 464 C293 470 291 472 285 472 L260 472 C256 472 254 474 254 478 L254 692 C254 698 252 700 246 700 L175 700 C169 700 166 698 163 693 L26 486 C23 481 22 477 22 471 L22 429 C22 423 24 421 30 421 L184 421 C188 421 190 419 190 415 L190 338 C190 332 192 330 198 330 L246 330 C252 330 254 332 254 338 L254 415 C254 419 256 421 260 421 L285 421 C291 421 293 423 293 429 L293 464 Z M190 478 C190 474 188 472 184 472 L82 472 C78 472 77 474 79 477 L189 646 C190 648 192 648 192 645 L190 581 L190 478 Z " />
<glyph glyph-name="five.sups" unicode="&#x2075;" horiz-adv-x="312" d="M288 464 C288 542 238 593 172 593 C144 593 120 586 101 570 C99 568 97 569 98 572 L104 643 C105 647 107 649 111 649 L257 649 C263 649 265 651 265 657 L265 692 C265 698 263 700 257 700 L56 700 C50 700 48 698 47 692 L36 504 C35 499 38 496 43 496 L82 496 C89 496 91 498 93 504 C101 531 122 546 154 546 C198 546 220 516 220 460 C220 402 194 370 151 370 C116 370 94 390 91 423 C91 429 88 431 83 431 L35 431 C30 431 27 428 28 423 C35 363 76 323 152 323 C233 323 288 377 288 464 L288 464 Z " />
<glyph glyph-name="six.sups" unicode="&#x2076;" horiz-adv-x="320" d="M294 458 C294 532 247 578 177 578 C141 578 115 567 98 546 C96 543 94 544 94 547 C96 617 121 660 165 660 C196 660 212 642 217 618 C218 612 220 610 226 610 L273 610 C278 610 281 613 280 618 C272 676 233 708 170 708 C83 708 28 637 28 514 C28 389 79 324 164 324 C239 324 294 383 294 458 L294 458 Z M97 454 C97 502 123 530 164 530 C206 530 227 499 227 451 C227 402 202 373 161 373 C120 373 97 405 97 454 L97 454 Z " />
<glyph glyph-name="seven.sups" unicode="&#x2077;" horiz-adv-x="268" d="M246 641 C249 646 250 651 250 656 L250 692 C250 698 248 700 242 700 L26 700 C20 700 18 698 18 692 L18 657 C18 651 20 649 26 649 L174 649 C178 649 179 647 177 644 C129 559 97 448 79 338 C78 333 81 330 86 330 L137 330 C143 330 145 332 146 338 C163 451 202 551 246 641 L246 641 Z " />
<glyph glyph-name="eight.sups" unicode="&#x2078;" horiz-adv-x="320" d="M295 435 C295 476 272 509 229 525 C226 526 226 528 228 530 C264 547 284 573 284 606 C282 670 237 707 160 707 C84 707 38 670 37 606 C37 572 56 547 92 530 C94 528 94 526 91 525 C49 509 26 476 26 435 C26 365 84 326 160 326 C237 326 295 365 295 435 L295 435 Z M99 602 C100 639 124 662 160 662 C197 662 221 639 221 602 C221 570 198 545 160 545 C123 545 99 569 99 602 L99 602 Z M89 437 C89 477 116 502 160 502 C205 502 231 477 232 437 C232 398 203 370 160 370 C118 370 88 398 89 437 L89 437 Z " />
<glyph glyph-name="nine.sups" unicode="&#x2079;" horiz-adv-x="320" d="M94 580 C94 629 119 658 160 658 C201 658 224 626 224 577 C224 528 198 500 157 500 C115 500 94 532 94 580 L94 580 Z M293 517 C293 642 242 708 157 708 C82 708 27 648 27 572 C27 499 74 453 144 453 C180 453 206 464 223 484 C225 487 227 486 227 483 C225 413 201 371 156 371 C126 371 109 388 104 412 C103 418 101 420 94 420 L48 420 C43 420 40 417 41 412 C49 355 88 324 151 324 C238 324 293 393 293 517 L293 517 Z " />
<glyph glyph-name="zero.sinf" unicode="&#x2080;" horiz-adv-x="329" d="M303 185 C303 312 248 378 164 378 C80 378 25 311 25 185 C25 62 80 -6 164 -6 C248 -6 303 62 303 185 L303 185 Z M91 185 C91 281 117 325 164 325 C210 325 237 280 237 185 C237 89 210 46 164 46 C118 46 91 90 91 185 L91 185 Z " />
<glyph glyph-name="one.sinf" unicode="&#x2081;" horiz-adv-x="219" d="M170 6 L166 166 L170 359 C170 364 167 367 162 367 L114 367 C108 367 105 365 102 360 C86 336 61 316 31 305 C26 303 24 300 24 294 L24 257 C24 252 27 250 32 252 C57 261 80 272 99 288 C101 290 103 289 103 286 L105 184 L102 6 C102 0 104 -2 110 -2 L162 -2 C167 -2 170 1 170 6 L170 6 Z " />
<glyph glyph-name="two.sinf" unicode="&#x2082;" horiz-adv-x="297" d="M262 -2 C268 -2 270 0 270 6 L270 41 C270 47 268 49 262 49 L89 49 C87 49 86 50 86 52 L86 59 C86 141 271 130 271 264 C269 332 228 374 150 374 C71 373 29 329 27 250 C27 245 29 242 35 242 L77 242 C82 242 85 244 85 250 C89 298 112 324 150 324 C191 325 213 300 211 263 C211 178 26 194 26 48 L26 6 C26 0 28 -2 34 -2 L262 -2 Z " />
<glyph glyph-name="three.sinf" unicode="&#x2083;" horiz-adv-x="307" d="M218 196 C215 197 215 199 218 200 C251 213 274 236 274 278 C273 335 225 373 157 373 C83 373 35 335 29 266 C29 261 31 258 37 258 L83 258 C88 258 91 260 91 266 C95 307 115 326 154 326 C186 326 211 305 211 271 C211 238 187 216 136 216 L125 216 C119 216 117 214 117 208 L117 180 C117 174 119 172 125 172 L136 172 C192 172 218 152 217 108 C217 66 193 39 151 39 C109 38 88 63 86 106 C86 112 83 114 78 114 L31 114 C26 114 23 111 24 106 C30 32 73 -7 149 -7 C224 -7 283 37 283 110 C283 154 259 184 218 196 L218 196 Z " />
<glyph glyph-name="four.sinf" unicode="&#x2084;" horiz-adv-x="314" d="M190 248 L190 139 L76 139 L192 318 L190 248 Z M254 5 L254 88 L285 88 C291 88 293 90 293 96 L293 131 C293 137 291 139 285 139 L254 139 L254 359 C254 365 252 367 246 367 L175 367 C169 367 166 365 163 360 L26 153 C23 148 22 144 22 138 L22 96 C22 90 24 88 30 88 L190 88 L190 5 C190 -1 192 -3 198 -3 L246 -3 C252 -3 254 -1 254 5 L254 5 Z " />
<glyph glyph-name="five.sinf" unicode="&#x2085;" horiz-adv-x="312" d="M152 -10 C233 -10 288 44 288 131 C288 209 238 260 172 260 C142 260 116 252 97 233 L104 310 C105 314 107 316 111 316 L257 316 C263 316 265 318 265 324 L265 359 C265 365 263 367 257 367 L56 367 C50 367 48 365 47 359 L36 171 C35 166 38 163 43 163 L82 163 C89 163 91 165 93 171 C101 198 122 213 154 213 C198 213 220 183 220 127 C220 69 194 37 151 37 C116 37 94 57 91 90 C91 96 88 98 83 98 L35 98 C30 98 27 95 28 90 C35 30 76 -10 152 -10 L152 -10 Z " />
<glyph glyph-name="six.sinf" unicode="&#x2086;" horiz-adv-x="320" d="M294 125 C294 199 247 245 177 245 C141 245 115 234 98 213 C96 210 94 211 94 214 C96 284 121 327 165 327 C196 327 212 309 217 285 C218 279 220 277 226 277 L273 277 C278 277 281 280 280 285 C272 343 233 375 170 375 C83 375 28 304 28 181 C28 56 79 -9 164 -9 C239 -9 294 50 294 125 L294 125 Z M97 121 C97 169 123 197 164 197 C206 197 227 166 227 118 C227 69 202 40 161 40 C120 40 97 72 97 121 L97 121 Z " />
<glyph glyph-name="seven.sinf" unicode="&#x2087;" horiz-adv-x="268" d="M137 -3 C143 -3 145 -1 146 5 C163 118 202 218 246 308 C249 313 250 318 250 323 L250 359 C250 365 248 367 242 367 L26 367 C20 367 18 365 18 359 L18 324 C18 318 20 316 26 316 L180 316 C130 230 97 117 79 5 C78 0 81 -3 86 -3 L137 -3 Z " />
<glyph glyph-name="eight.sinf" unicode="&#x2088;" horiz-adv-x="320" d="M295 102 C295 143 272 176 229 192 C226 193 226 195 228 197 C264 214 284 240 284 273 C282 337 237 374 160 374 C84 374 38 337 37 273 C37 239 56 214 92 197 C94 195 94 193 91 192 C49 176 26 143 26 102 C26 32 84 -7 160 -7 C237 -7 295 32 295 102 L295 102 Z M99 269 C100 306 124 329 160 329 C197 329 221 306 221 269 C221 237 198 212 160 212 C123 212 99 236 99 269 L99 269 Z M89 104 C89 144 116 169 160 169 C205 169 231 144 232 104 C232 65 203 37 160 37 C118 37 88 65 89 104 L89 104 Z " />
<glyph glyph-name="nine.sinf" unicode="&#x2089;" horiz-adv-x="320" d="M160 325 C201 325 224 293 224 244 C224 195 198 167 157 167 C115 167 94 199 94 247 C94 296 119 325 160 325 L160 325 Z M157 375 C82 375 27 315 27 239 C27 166 74 120 144 120 C180 120 206 131 223 151 C225 154 227 153 227 150 C225 80 201 38 156 38 C126 38 109 55 104 79 C103 85 101 87 94 87 L48 87 C43 87 40 84 41 79 C49 22 88 -9 151 -9 C238 -9 293 60 293 184 C293 309 242 375 157 375 L157 375 Z " />
<glyph glyph-name="Euro" unicode="&#x20ac;" horiz-adv-x="644" d="M535 221 C529 221 527 219 526 213 C514 116 462 64 370 64 C263 64 202 148 193 309 C193 313 195 315 199 315 L392 315 C398 315 400 317 400 323 L400 387 C400 393 398 395 392 395 L199 395 C195 395 193 397 193 401 C205 545 263 636 371 636 C454 636 504 594 523 503 C524 497 526 495 532 495 L608 495 C613 495 616 498 615 503 C585 659 493 713 372 713 C211 713 112 593 97 401 C97 397 95 395 91 395 L23 395 C17 395 15 393 15 387 L15 323 C15 317 17 315 23 315 L91 315 C95 315 97 313 97 309 C109 108 206 -13 372 -13 C510 -13 597 59 620 213 C621 218 618 221 613 221 L535 221 Z " />
</font>
</svg>
